<?xml version="1.0" encoding="UTF-8" standalone="no"?>
<svg
   class="labSVG"
   viewBox="0 0 600 600"
   version="1.1"
   id="svg893"
   sodipodi:docname="loader.svg"
   inkscape:version="1.1.2 (b8e25be8, 2022-02-05)"
   xmlns:inkscape="http://www.inkscape.org/namespaces/inkscape"
   xmlns:sodipodi="http://sodipodi.sourceforge.net/DTD/sodipodi-0.dtd"
   xmlns:xlink="http://www.w3.org/1999/xlink"
   xmlns="http://www.w3.org/2000/svg"
   xmlns:svg="http://www.w3.org/2000/svg">
  <sodipodi:namedview
     id="namedview895"
     pagecolor="#ffffff"
     bordercolor="#666666"
     borderopacity="1.0"
     inkscape:pageshadow="2"
     inkscape:pageopacity="0.0"
     inkscape:pagecheckerboard="0"
     showgrid="false"
     inkscape:zoom="0.1617039"
     inkscape:cx="-207.16878"
     inkscape:cy="-896.70068"
     inkscape:window-width="1440"
     inkscape:window-height="900"
     inkscape:window-x="0"
     inkscape:window-y="0"
     inkscape:window-maximized="0"
     inkscape:current-layer="svg893" />
  <defs
     id="defs842">
    <linearGradient
       id="linearGradient2101"
       gradientUnits="userSpaceOnUse"
       x1="300"
       y1="100"
       x2="300"
       y2="600">
      <stop
         offset="0.5"
         style="stop-color:#72a2f3;stop-opacity:1"
         id="stop2097" />
      <stop
         offset="0.8"
         style="stop-color:#08285e;stop-opacity:1"
         id="stop2099" />
    </linearGradient>
    <linearGradient
       id="frontGrad"
       gradientUnits="userSpaceOnUse"
       x1="300"
       y1="100"
       x2="300"
       y2="600">
      <stop
         offset="0.5"
         style="stop-color:#005DE9"
         id="stop824" />
      <stop
         offset="0.8"
         style="stop-color:#ED1E79"
         id="stop826" />
    </linearGradient>
    <mask
       id="liquidMask">
      <path
         class="liquidMask"
         fill="#FFFFFF"
         d="M337,273.9V129h-74v144.8c-37,14.7-63.1,50.8-63.1,93c0,55.2,44.8,100,100,100 s100-44.8,100-100C400,324.7,373.9,288.6,337,273.9z"
         id="path829" />
    </mask>
    <clipPath
       id="sphereMask">
      <circle
         fill="red"
         istroke="none"
         stroke-width="0.4957"
         stroke-miterlimit="10"
         cx="300"
         cy="367"
         r="100"
         id="circle832" />
    </clipPath>
    <filter
       id="goo"
       color-interpolation-filters="sRGB">
      <feGaussianBlur
         in="SourceGraphic"
         stdDeviation="7 7"
         result="blur"
         id="feGaussianBlur835" />
      <feColorMatrix
         in="blur"
         mode="matrix"
         values="1 0 0 0 0  0 1 0 0 0  0 0 1 0 0  0 0 0 19 -7"
         result="cm"
         id="feColorMatrix837" />
      <feComposite
         in="SourceGraphic"
         in2="cm"
         id="feComposite839" />
    </filter>
    <linearGradient
       inkscape:collect="always"
       xlink:href="#linearGradient2101"
       id="linearGradient977"
       gradientUnits="userSpaceOnUse"
       x1="300"
       y1="100"
       x2="300"
       y2="600" />
    <linearGradient
       inkscape:collect="always"
       xlink:href="#linearGradient2101"
       id="linearGradient979"
       gradientUnits="userSpaceOnUse"
       x1="300"
       y1="100"
       x2="300"
       y2="600" />
    <linearGradient
       inkscape:collect="always"
       xlink:href="#linearGradient2101"
       id="linearGradient981"
       gradientUnits="userSpaceOnUse"
       x1="300"
       y1="100"
       x2="300"
       y2="600" />
    <linearGradient
       inkscape:collect="always"
       xlink:href="#linearGradient2101"
       id="linearGradient983"
       gradientUnits="userSpaceOnUse"
       x1="300"
       y1="100"
       x2="300"
       y2="600" />
    <linearGradient
       inkscape:collect="always"
       xlink:href="#linearGradient2101"
       id="linearGradient985"
       gradientUnits="userSpaceOnUse"
       x1="300"
       y1="100"
       x2="300"
       y2="600" />
    <linearGradient
       inkscape:collect="always"
       xlink:href="#linearGradient2101"
       id="linearGradient987"
       gradientUnits="userSpaceOnUse"
       x1="300"
       y1="100"
       x2="300"
       y2="600" />
    <linearGradient
       inkscape:collect="always"
       xlink:href="#linearGradient2101"
       id="linearGradient989"
       gradientUnits="userSpaceOnUse"
       x1="300"
       y1="100"
       x2="300"
       y2="600" />
    <linearGradient
       inkscape:collect="always"
       xlink:href="#linearGradient2101"
       id="linearGradient991"
       gradientUnits="userSpaceOnUse"
       x1="300"
       y1="100"
       x2="300"
       y2="600" />
    <linearGradient
       inkscape:collect="always"
       xlink:href="#linearGradient2101"
       id="linearGradient993"
       gradientUnits="userSpaceOnUse"
       x1="300"
       y1="100"
       x2="300"
       y2="600" />
    <linearGradient
       inkscape:collect="always"
       xlink:href="#frontGrad"
       id="linearGradient995"
       gradientUnits="userSpaceOnUse"
       x1="300"
       y1="100"
       x2="300"
       y2="600" />
  </defs>
  <ellipse
     opacity="0.9"
     fill="url(#shine)"
     stroke="none"
     stroke-width="0.495702"
     stroke-miterlimit="10"
     cx="300.37555"
     cy="301.53265"
     id="circle891"
     style="fill:url(#shine);fill-opacity:1.0"
     rx="291.495"
     ry="291.49539" />
  <g
     class="liquidMaskGroup"
     clip-path="url(#sphereMask)"
     id="g884"
     transform="matrix(2.914954,0,0,2.914954,-574.11062,-768.25549)"
     style="stroke-width:0.343059">
    <path
       class="liquidBack"
       fill="none"
       d="m 1199.9,365.1 c -41.8,0 -79.4,9.8 -107.4,8.1 -38.9,-2.3 -54.5,-16.4 -83.6,-19.9 -29.1,-3.5 -71.5,3.4 -110.4,1 -28,-1.7 -56.4,-13.7 -98.2,-13.7 -41.8,0 -70.2,12 -98.2,13.7 -38.9,2.3 -81.4,-4.6 -110.4,-1 -29.1,3.5 -44.7,17.5 -83.6,19.9 -28,1.7 -65.7,-8.2 -107.5,-8.2 -41.8,0 -79.5,9.9 -107.5,8.2 -38.9,-2.3 -54.5,-16.3 -83.6,-19.9 -29.1,-3.5 -72,3.4 -110.9,1 -28,-1.7 -56.7,-13.7 -98.7,-13.7 V 438 h 1200 z"
       id="path844"
       style="stroke-width:0.172095" />
    <g
       class="liquidBubblesGroup"
       fill="url(#frontGrad)"
       clip-path="url(#sphereMask)"
       id="g864"
       style="fill:url(#linearGradient995);stroke-width:0.343059">
      <path
         class="liquidFront"
         fill="url(#frontGrad)"
         d="m 1199.9,329.6 c -44,0 -70.6,29.4 -96.4,33 -36.1,5.1 -70.7,-14.5 -106.8,-9.4 -25.8,3.7 -52.4,33.3 -96.4,33.3 -44,0 -70.7,-29.7 -96.4,-33.4 -36.1,-5.1 -70.7,14.4 -106.8,9.2 -25.8,-3.7 -52.4,-33.3 -96.5,-33.3 -44,0 -70.7,29.7 -96.5,33.3 -36.1,5.1 -70.7,-14.4 -106.8,-9.3 -25.8,3.7 -52.4,33.3 -96.5,33.3 -44,0 -70.7,-29.7 -96.5,-33.3 C 168.2,347.9 133.1,367.4 97,362.3 71.2,358.6 45,329 0,329 v 204 h 1200 z"
         id="path846"
         style="fill:url(#linearGradient977);stroke-width:0.343059" />
      <circle
         class="bubble0"
         cx="350"
         cy="400"
         r="8"
         id="circle848"
         style="fill:url(#linearGradient979);stroke-width:0.343059;fill-opacity:1.0" />
      <circle
         class="bubble1"
         cx="320"
         cy="400"
         r="6"
         id="circle850"
         style="fill:url(#linearGradient981);stroke-width:0.343059;fill-opacity:1.0" />
      <circle
         class="bubble2"
         cx="300"
         cy="400"
         r="12"
         id="circle852"
         style="fill:url(#linearGradient983);stroke-width:0.343059;fill-opacity:1.0" />
      <circle
         class="bubble3"
         cx="276"
         cy="400"
         r="3"
         id="circle854"
         style="fill:url(#linearGradient985);stroke-width:0.343059;fill-opacity:1.0" />
      <circle
         class="bubble4"
         cx="244"
         cy="400"
         r="4"
         id="circle856"
         style="fill:url(#linearGradient987);stroke-width:0.343059;fill-opacity:1.0" />
      <circle
         class="bubblePop0"
         cx="280"
         cy="400"
         r="5"
         id="circle858"
         style="fill:url(#linearGradient989);stroke-width:0.343059;fill-opacity:1.0" />
      <circle
         class="bubblePop1"
         cx="310"
         cy="390"
         r="5"
         id="circle860"
         style="fill:url(#linearGradient991);stroke-width:0.343059;fill-opacity:1.0" />
      <circle
         class="bubblePop2"
         cx="350"
         cy="410"
         r="5"
         id="circle862"
         style="fill:url(#linearGradient993);stroke-width:0.343059;fill-opacity:1.0" />
    </g>
    <g
       class="darkBubbleGroup"
       fill="none"
       stroke="none"
       id="g880"
       style="stroke-width:0.172095">
      <circle
         class="darkBubble"
         cx="310"
         cy="480"
         r="7"
         id="circle866"
         style="stroke-width:0.343059" />
      <circle
         class="darkBubble"
         cx="360"
         cy="480"
         r="5"
         id="circle868"
         style="stroke-width:0.343059" />
      <circle
         class="darkBubble"
         cx="230"
         cy="480"
         r="6"
         id="circle870"
         style="stroke-width:0.343059" />
      <circle
         class="darkBubble"
         cx="345"
         cy="480"
         r="3"
         id="circle872"
         style="stroke-width:0.343059" />
      <circle
         class="darkBubble"
         cx="290"
         cy="480"
         r="8"
         id="circle874"
         style="stroke-width:0.343059" />
      <circle
         class="darkBubble"
         cx="320"
         cy="480"
         r="2"
         id="circle876"
         style="stroke-width:0.343059" />
      <circle
         class="darkBubble"
         cx="260"
         cy="480"
         r="9"
         id="circle878"
         style="stroke-width:0.343059" />
    </g>
    <path
       class="pop"
       fill="none"
       stroke="none"
       stroke-width="1.37224"
       stroke-linecap="round"
       stroke-linejoin="round"
       stroke-miterlimit="10"
       d="M 37.4,9 C 39.5,6.9 41.6,4.8 43.7,2.7 M 2,44.4 c 2.2,-2.2 4.5,-4.5 6.7,-6.7 m 28.7,-0.3 c 2.1,2.1 4.2,4.2 6.3,6.3 M 2,2 c 2.2,2.2 4.5,4.5 6.7,6.7"
       id="path882" />
  </g>
  <radialGradient
     id="shine"
     cx="280"
     cy="337"
     r="100"
     gradientUnits="userSpaceOnUse"
     gradientTransform="matrix(2.914954,0,0,2.914954,-574.11062,-768.25548)"
     xlink:href="#frontGrad">
    <stop
       offset="0.02"
       style="stop-color:#fff;stop-opacity:0.2"
       id="stop886" />
    <stop
       offset="1"
       style="stop-color:#1B52D4;stop-opacity:0.1"
       id="stop888" />
  </radialGradient>
  <ellipse
     style="fill:#08285e;stroke-width:1.5;fill-opacity:1"
     id="path1117"
     cx="71.892479"
     cy="-64.703232"
     rx="45.74976"
     ry="43.789055" />
  <ellipse
     style="fill:#0c3c8d;fill-opacity:1;stroke-width:1.5"
     id="path1117-7"
     cx="194.76326"
     cy="-61.43539"
     rx="45.74976"
     ry="43.789055" />
  <ellipse
     style="fill:#1050bc;fill-opacity:1;stroke-width:1.5"
     id="path1117-8"
     cx="322.86258"
     cy="-58.821117"
     rx="45.74976"
     ry="43.789055" />
</svg>
