<?xml version="1.0" encoding="UTF-8" standalone="no"?>
<!-- Created with Inkscape (http://www.inkscape.org/) -->

<svg
   width="300mm"
   height="160mm"
   viewBox="0 0 300 160"
   version="1.1"
   id="svg5"
   inkscape:version="1.1.2 (b8e25be8, 2022-02-05)"
   sodipodi:docname="showcase.svg"
   xmlns:inkscape="http://www.inkscape.org/namespaces/inkscape"
   xmlns:sodipodi="http://sodipodi.sourceforge.net/DTD/sodipodi-0.dtd"
   xmlns:xlink="http://www.w3.org/1999/xlink"
   xmlns="http://www.w3.org/2000/svg"
   xmlns:svg="http://www.w3.org/2000/svg">
  <sodipodi:namedview
     id="namedview7"
     pagecolor="#ffffff"
     bordercolor="#666666"
     borderopacity="1.0"
     inkscape:pageshadow="2"
     inkscape:pageopacity="0.0"
     inkscape:pagecheckerboard="false"
     inkscape:document-units="mm"
     showgrid="false"
     showborder="true"
     inkscape:zoom="0.55710222"
     inkscape:cx="501.70326"
     inkscape:cy="218.99033"
     inkscape:window-width="1440"
     inkscape:window-height="900"
     inkscape:window-x="0"
     inkscape:window-y="0"
     inkscape:window-maximized="0"
     inkscape:current-layer="layer1"
     inkscape:snap-global="false"
     showguides="false" />
  <defs
     id="defs2">
    <linearGradient
       inkscape:collect="always"
       id="linearGradient1174">
      <stop
         style="stop-color:#1050bc;stop-opacity:1"
         offset="0"
         id="stop1170" />
      <stop
         style="stop-color:#08285e;stop-opacity:1"
         offset="1"
         id="stop1172" />
    </linearGradient>
    <inkscape:path-effect
       effect="spiro"
       id="path-effect34272"
       is_visible="true"
       lpeversion="1" />
    <inkscape:path-effect
       effect="spiro"
       id="path-effect34235"
       is_visible="true"
       lpeversion="1" />
    <inkscape:path-effect
       effect="spiro"
       id="path-effect34198"
       is_visible="true"
       lpeversion="1" />
    <inkscape:path-effect
       effect="spiro"
       id="path-effect34161"
       is_visible="true"
       lpeversion="1" />
    <inkscape:path-effect
       effect="spiro"
       id="path-effect33912"
       is_visible="true"
       lpeversion="1" />
    <inkscape:path-effect
       effect="spiro"
       id="path-effect5260"
       is_visible="true"
       lpeversion="1" />
    <inkscape:path-effect
       effect="spiro"
       id="path-effect2604"
       is_visible="true"
       lpeversion="1" />
    <inkscape:path-effect
       effect="spiro"
       id="path-effect2567"
       is_visible="true"
       lpeversion="1" />
    <inkscape:path-effect
       effect="spiro"
       id="path-effect2240"
       is_visible="true"
       lpeversion="1" />
    <inkscape:path-effect
       effect="curvestitching"
       id="path-effect20586"
       is_visible="true"
       lpeversion="1"
       count="58"
       startpoint_edge_variation="0;1"
       startpoint_spacing_variation="0;1"
       endpoint_edge_variation="0;1"
       endpoint_spacing_variation="0;1"
       strokepath="M 0,0 H 1"
       prop_scale="1"
       scale_y_rel="false" />
    <inkscape:path-effect
       effect="rough_hatches"
       id="path-effect20444"
       is_visible="true"
       lpeversion="1"
       direction="1896.0215,249.34374 , 141.4668,0"
       dist_rdm="75.8;1"
       growth="0"
       do_bend="true"
       bender="1896.0215,254.34374 , 5,0"
       bottom_edge_variation="56.99;1"
       top_edge_variation="56.586718;1"
       bottom_tgt_variation="0;1"
       top_tgt_variation="0;1"
       scale_bf="1"
       scale_bb="1"
       scale_tf="1"
       scale_tb="1"
       top_smth_variation="0;1"
       bottom_smth_variation="0;1"
       fat_output="true"
       stroke_width_top="1"
       stroke_width_bottom="1"
       front_thickness="1"
       back_thickness="0.25" />
    <inkscape:path-effect
       effect="rough_hatches"
       id="path-effect20416"
       is_visible="true"
       lpeversion="1"
       direction="1896.0215,249.34374 , 141.4668,0"
       dist_rdm="75.8;1"
       growth="0"
       do_bend="true"
       bender="1896.0215,254.34374 , 5,0"
       bottom_edge_variation="56.99;1"
       top_edge_variation="56.586718;1"
       bottom_tgt_variation="0;1"
       top_tgt_variation="0;1"
       scale_bf="1"
       scale_bb="1.3"
       scale_tf="1"
       scale_tb="1"
       top_smth_variation="0;1"
       bottom_smth_variation="0;1"
       fat_output="true"
       stroke_width_top="1"
       stroke_width_bottom="1"
       front_thickness="1"
       back_thickness="0.25" />
    <inkscape:path-effect
       effect="spiro"
       id="path-effect19639"
       is_visible="true"
       lpeversion="1" />
    <inkscape:path-effect
       effect="spiro"
       id="path-effect19602"
       is_visible="true"
       lpeversion="1" />
    <filter
       inkscape:collect="always"
       style="color-interpolation-filters:sRGB"
       id="filter64210"
       x="-0.033168167"
       y="-0.11539411"
       width="1.0663363"
       height="1.2307882">
      <feGaussianBlur
         inkscape:collect="always"
         stdDeviation="2.2658817"
         id="feGaussianBlur64212" />
    </filter>
    <filter
       inkscape:collect="always"
       style="color-interpolation-filters:sRGB"
       id="filter64234"
       x="-0.018127037"
       y="-0.064484414"
       width="1.0362541"
       height="1.1289688">
      <feGaussianBlur
         inkscape:collect="always"
         stdDeviation="8.5639626"
         id="feGaussianBlur64236" />
    </filter>
    <filter
       inkscape:collect="always"
       style="color-interpolation-filters:sRGB"
       id="filter64258"
       x="-0.027212422"
       y="-0.070001773"
       width="1.0544248"
       height="1.1400035">
      <feGaussianBlur
         inkscape:collect="always"
         stdDeviation="2.2658817"
         id="feGaussianBlur64260" />
    </filter>
    <filter
       inkscape:collect="always"
       style="color-interpolation-filters:sRGB"
       id="filter64282"
       x="-0.068178357"
       y="-0.079577019"
       width="1.1363567"
       height="1.159154">
      <feGaussianBlur
         inkscape:collect="always"
         stdDeviation="2.2658817"
         id="feGaussianBlur64284" />
    </filter>
    <linearGradient
       inkscape:collect="always"
       xlink:href="#linearGradient1174"
       id="linearGradient1176"
       x1="78.498161"
       y1="38.145027"
       x2="93.774315"
       y2="18.315031"
       gradientUnits="userSpaceOnUse"
       gradientTransform="translate(-0.4749278,-1.4247834)" />
    <filter
       inkscape:collect="always"
       style="color-interpolation-filters:sRGB"
       id="filter4276">
      <feGaussianBlur
         inkscape:collect="always"
         stdDeviation="2.2658817"
         id="feGaussianBlur4278" />
    </filter>
    <linearGradient
       inkscape:collect="always"
       xlink:href="#linearGradient1174"
       id="linearGradient10952-73"
       gradientUnits="userSpaceOnUse"
       gradientTransform="matrix(0.36243074,0,0,0.36243074,247.58755,90.353492)"
       x1="78.498161"
       y1="38.145027"
       x2="93.774315"
       y2="18.315031" />
    <filter
       inkscape:collect="always"
       style="color-interpolation-filters:sRGB"
       id="filter64258-7"
       x="-0.027212423"
       y="-0.070001761"
       width="1.0544248"
       height="1.1400035">
      <feGaussianBlur
         inkscape:collect="always"
         stdDeviation="2.2658817"
         id="feGaussianBlur64260-1" />
    </filter>
  </defs>
  <g
     inkscape:label="Layer 1"
     inkscape:groupmode="layer"
     id="layer1">
    <g
       id="g11619"
       transform="matrix(0.98849953,-0.15122394,-0.15122394,-0.98849953,2.196968,53.569223)">
      <path
         id="path64238-7"
         style="mix-blend-mode:normal;fill:#000000;fill-opacity:1;stroke:none;stroke-width:0.396875;filter:url(#filter64258-7)"
         d="m 147.18081,-116.73043 c -0.90451,0.003 -1.80937,0.0203 -2.71405,0.0512 -0.90468,0.0309 -1.80908,0.0755 -2.71353,0.13281 -0.90445,0.0573 -1.8087,0.12727 -2.71249,0.20929 -0.9038,0.082 -1.80717,0.17607 -2.70992,0.28112 -0.90274,0.10505 -1.80502,0.22089 -2.70629,0.34727 -0.90128,0.12637 -1.80174,0.26327 -2.70113,0.40927 -0.89939,0.14601 -1.79783,0.30115 -2.69493,0.46509 -0.89709,0.16394 -1.79278,0.3366 -2.68717,0.51677 -1.78877,0.36033 -3.57201,0.75125 -5.34747,1.16633 -1.77548,0.41509 -3.54315,0.85427 -5.30201,1.31052 -1.84191,0.47778 -3.67868,0.97522 -5.50974,1.4919 -1.83106,0.51668 -3.65661,1.05251 -5.47615,1.60765 -1.81954,0.55513 -3.63313,1.12974 -5.440488,1.72289 -1.80735,0.59316 -3.608278,1.20482 -5.402775,1.83555 -1.794502,0.63073 -3.582514,1.28033 -5.363498,1.9482 -1.780988,0.66787 -3.554834,1.35422 -5.321639,2.05879 -1.766803,0.70457 -3.526274,1.427502 -5.278231,2.168341 -0.537477,0.227277 -1.069549,0.467482 -1.605587,0.698151 -1.211231,0.521208 -2.423959,1.039804 -3.627683,1.578197 -1.736448,0.77666 -3.464944,1.570754 -5.185215,2.3828 -1.720268,0.812046 -3.432177,1.641743 -5.135604,2.488737 -1.70343,0.846995 -3.398004,1.711622 -5.083927,2.593123 -1.230257,0.643255 -2.450462,1.305375 -3.671093,1.966804 -0.452097,0.244978 -0.908855,0.481182 -1.359607,0.728639 -1.667748,0.915572 -3.326495,1.848043 -4.975407,2.797246 -1.64891,0.949204 -3.288123,1.915102 -4.91753,2.897497 -1.62941,0.982396 -3.248859,1.981568 -4.858102,2.996716 -1.609241,1.015151 -3.208195,2.046404 -4.796605,3.093868 -1.588407,1.047465 -3.166134,2.111164 -4.733044,3.190502 -1.56691,1.079341 -3.123184,2.174293 -4.667932,3.285072 -1.544747,1.110779 -3.078317,2.237343 -4.600237,3.379121 -1.521918,1.14178 -3.032046,2.298769 -4.530473,3.471106 -1.498425,1.172339 -2.984892,2.360112 -4.4591589,3.562574 -1.474267,1.20246 -2.936336,2.419835 -4.3857785,3.651973 -1.4178108,1.205256 -2.8228509,2.425469 -4.2162801,3.658692 0.7690236,0.433414 1.5412016,0.861134 2.3228556,1.271239 0.9164119,0.4808 1.8413275,0.94579 2.7739913,1.394229 0.9326647,0.448472 1.8732957,0.88028 2.8210157,1.296046 0.94772,0.415769 1.9028449,0.815112 2.8644249,1.197857 0.96158,0.38274 1.929455,0.74926 2.903699,1.09864 0.974244,0.34939 1.954676,0.68169 2.940389,0.99736 0.985711,0.31568 1.976964,0.61442 2.972945,0.89607 0.995984,0.28164 1.996826,0.54647 3.001883,0.79375 1.005057,0.24728 2.01427,0.47734 3.027206,0.68988 1.012936,0.21257 2.029293,0.40747 3.04891,0.58498 1.019617,0.17751 2.042406,0.33742 3.067513,0.47955 1.025105,0.14211 2.052585,0.2662 3.081981,0.37259 1.029393,0.10639 2.060866,0.1953 3.093352,0.26562 1.032489,0.0703 2.0662,0.12214 3.100586,0.15606 1.034386,0.0339 2.069115,0.0499 3.104202,0.047 0.756569,-0.002 1.512152,-0.0137 2.26653,-0.0346 0.754377,-0.0209 1.507664,-0.0517 2.259809,-0.091 0.752144,-0.0393 1.503224,-0.0875 2.253093,-0.14469 0.749869,-0.0572 1.498823,-0.12331 2.246374,-0.19792 1.495102,-0.1492 2.985471,-0.3325 4.471045,-0.54829 1.485572,-0.21579 2.965889,-0.46416 4.44159,-0.74259 1.475703,-0.27839 2.946643,-0.58689 4.412133,-0.92397 1.465487,-0.33707 2.925678,-0.70274 4.380611,-1.09451 1.454933,-0.39174 2.904538,-0.80963 4.348573,-1.25212 1.444037,-0.44249 2.882701,-0.90912 4.315499,-1.39837 1.432798,-0.489203 2.859654,-1.001212 4.280874,-1.533236 1.421217,-0.532024 2.836439,-1.084355 4.245737,-1.655196 1.409298,-0.570865 2.812528,-1.160074 4.209563,-1.765782 1.397034,-0.605687 2.787925,-1.227899 4.172352,-1.864487 1.38443,-0.636614 2.76264,-1.28778 4.134118,-1.951302 1.37149,-0.663522 2.73665,-1.339228 4.09484,-2.025716 0.82861,-0.418809 1.64968,-0.848175 2.47323,-1.274342 0.52637,-0.272372 1.0565,-0.539337 1.58078,-0.814419 1.34457,-0.705469 2.68208,-1.419423 4.01268,-2.139921 2.66118,-1.440992 5.30922,-2.912224 7.9499,-4.399214 2.64068,-1.486992 5.27396,-2.989939 7.90649,-4.495334 1.83998,-1.052174 3.68102,-2.102032 5.52215,-3.151746 0.79305,-0.452157 1.58483,-0.907089 2.37866,-1.35754 2.63675,-1.496197 5.27901,-2.981147 7.93233,-4.440555 1.32668,-0.729702 2.6563,-1.453012 3.98943,-2.168342 1.33314,-0.71533 2.66946,-1.42226 4.0106,-2.119768 1.34116,-0.697507 2.68678,-1.385652 4.03748,-2.06189 1.3507,-0.676238 2.70669,-1.340609 4.06849,-1.992127 1.3618,-0.651515 2.72969,-1.290233 4.10414,-1.913578 1.37445,-0.623345 2.7553,-1.231418 4.14393,-1.823143 1.38865,-0.591727 2.78503,-1.166757 4.18941,-1.723411 1.40438,-0.556657 2.81684,-1.0952 4.2385,-1.613336 1.75954,-0.641276 3.53114,-1.249424 5.31286,-1.825213 1.78171,-0.575789 3.57339,-1.1192 5.37486,-1.629357 1.80147,-0.510156 3.6124,-0.98706 5.4312,-1.431438 1.81881,-0.444376 3.64552,-0.856099 5.47925,-1.234551 0.34725,-0.07167 0.69767,-0.127066 1.04541,-0.196366 -1.12837,-0.58446 -2.2583,-1.17115 -3.38739,-1.75028 -1.53663,-0.78817 -3.0808,-1.57086 -4.63279,-2.34094 -1.552,-0.77009 -3.11168,-1.52737 -4.68085,-2.26498 -1.56917,-0.73762 -3.14748,-1.45536 -4.73563,-2.14613 -1.58815,-0.69076 -3.18613,-1.35432 -4.79505,-1.98386 -0.80446,-0.31476 -1.61208,-0.621 -2.42208,-0.91777 -0.81,-0.29676 -1.62286,-0.58448 -2.43861,-0.86144 -0.81576,-0.27697 -1.63444,-0.54356 -2.45618,-0.79892 -0.82174,-0.25537 -1.64632,-0.49925 -2.47427,-0.73122 -0.82795,-0.23197 -1.659,-0.45158 -2.49339,-0.65836 -0.83439,-0.20678 -1.67197,-0.40054 -2.51302,-0.58033 -0.84105,-0.17978 -1.68576,-0.34561 -2.5337,-0.49661 -0.84794,-0.15099 -1.69931,-0.28731 -2.55436,-0.40773 -0.89966,-0.12669 -1.80016,-0.23584 -2.70165,-0.32762 -0.90149,-0.0918 -1.8039,-0.16622 -2.70681,-0.2248 -0.90291,-0.0586 -1.80652,-0.1011 -2.71043,-0.12815 -0.90391,-0.0271 -1.80799,-0.0389 -2.71249,-0.0362 z m -83.160299,28.898498 c 0.580954,0.0018 1.161415,0.0083 1.742014,0.0186 0.580596,0.01029 1.161256,0.02484 1.741495,0.04341 0.580237,0.01857 1.160055,0.04114 1.739945,0.0677 0.57989,0.02656 1.159963,0.05707 1.739429,0.09147 0.579467,0.03439 1.158322,0.07267 1.73736,0.114724 0.579038,0.04205 1.157822,0.08749 1.736328,0.13694 0.578509,0.04945 1.156738,0.10291 1.734781,0.159682 0.57804,0.05677 1.156253,0.117006 1.733743,0.180866 0.57749,0.06386 1.154258,0.13135 1.731161,0.202057 0.5769,0.07071 1.153837,0.144836 1.730126,0.222208 0.576289,0.07737 1.151927,0.157982 1.727544,0.241845 0.575617,0.08387 1.151093,0.170727 1.725993,0.260966 -0.5749,-0.09024 -1.150376,-0.177101 -1.725993,-0.260966 -0.575617,-0.08386 -1.151255,-0.164476 -1.727544,-0.241845 -0.576289,-0.07737 -1.153226,-0.151501 -1.730126,-0.222208 -0.576903,-0.07071 -1.153671,-0.138194 -1.731161,-0.202057 -0.57749,-0.06386 -1.155703,-0.124095 -1.733743,-0.180866 -0.578043,-0.05677 -1.156272,-0.110231 -1.734781,-0.159682 -0.578506,-0.04945 -1.15729,-0.09488 -1.736328,-0.13694 -0.579038,-0.04206 -1.157893,-0.08033 -1.73736,-0.114724 -0.579466,-0.03439 -1.159539,-0.06491 -1.739429,-0.09147 -0.57989,-0.02656 -1.159708,-0.04913 -1.739945,-0.0677 -0.580239,-0.01857 -1.160899,-0.03313 -1.741495,-0.04341 -0.580599,-0.01028 -1.16106,-0.01677 -1.742014,-0.0186 z m 0,0 c -0.580954,-0.0018 -1.162399,9.77e-4 -1.743562,0.0078 -0.581162,0.0068 -1.162211,0.01754 -1.743564,0.03307 -0.581353,0.01554 -1.163013,0.03585 -1.744597,0.06046 -0.591732,0.02504 -1.182854,0.05477 -1.774049,0.0894 -0.591199,0.03463 -1.182466,0.07417 -1.773021,0.118337 -0.409165,0.03061 -0.817782,0.06667 -1.22628,0.104905 0.408498,-0.03823 0.817115,-0.0743 1.22628,-0.104905 0.590555,-0.04418 1.181822,-0.08371 1.773021,-0.118337 0.591195,-0.03463 1.182317,-0.06436 1.774049,-0.0894 0.581584,-0.02461 1.163244,-0.04492 1.744597,-0.06046 0.581353,-0.01554 1.162402,-0.0263 1.743564,-0.03307 0.581163,-0.0068 1.162608,-0.0096 1.743562,-0.0078 z m 22.777939,2.062406 c 0.58891,0.734298 1.177915,1.468186 1.756998,2.21175 -0.579083,-0.743564 -1.168088,-1.477452 -1.756998,-2.21175 z m 4.09329,5.264277 c 0.770821,1.024006 1.534268,2.053537 2.291331,3.087151 0.757065,1.033613 1.507746,2.071309 2.253614,3.110404 -0.745868,-1.039095 -1.496549,-2.076791 -2.253614,-3.110404 -0.757063,-1.033614 -1.52051,-2.063145 -2.291331,-3.087151 z" />
      <path
         id="path34450-9"
         style="fill:#1050bc;fill-opacity:1;stroke:none;stroke-width:0.396875"
         d="m 147.18081,-116.73043 c -0.90451,0.003 -1.80937,0.0203 -2.71405,0.0512 -0.90468,0.0309 -1.80908,0.0755 -2.71353,0.13281 -0.90445,0.0573 -1.8087,0.12727 -2.71249,0.20929 -0.9038,0.082 -1.80717,0.17607 -2.70992,0.28112 -0.90274,0.10505 -1.80502,0.22089 -2.70629,0.34727 -0.90128,0.12637 -1.80174,0.26327 -2.70113,0.40927 -0.89939,0.14601 -1.79783,0.30115 -2.69493,0.46509 -0.89709,0.16394 -1.79278,0.3366 -2.68717,0.51677 -1.78877,0.36033 -3.57201,0.75125 -5.34747,1.16633 -1.77548,0.41509 -3.54315,0.85427 -5.30201,1.31052 -1.84191,0.47778 -3.67868,0.97522 -5.50974,1.4919 -1.83106,0.51668 -3.65661,1.05251 -5.47615,1.60765 -1.81954,0.55513 -3.63313,1.12974 -5.440488,1.72289 -1.80735,0.59316 -3.608278,1.20482 -5.402775,1.83555 -1.794502,0.63073 -3.582514,1.28033 -5.363498,1.9482 -1.780988,0.66787 -3.554834,1.35422 -5.321639,2.05879 -1.766803,0.70457 -3.526274,1.427502 -5.278231,2.168341 -0.537477,0.227277 -1.069549,0.467482 -1.605587,0.698151 -1.211231,0.521208 -2.423959,1.039804 -3.627683,1.578197 -1.736448,0.77666 -3.464944,1.570754 -5.185215,2.3828 -1.720268,0.812046 -3.432177,1.641743 -5.135604,2.488737 -1.70343,0.846995 -3.398004,1.711622 -5.083927,2.593123 -1.230257,0.643255 -2.450462,1.305375 -3.671093,1.966804 -0.452097,0.244978 -0.908855,0.481182 -1.359607,0.728639 -1.667748,0.915572 -3.326495,1.848043 -4.975407,2.797246 -1.64891,0.949204 -3.288123,1.915102 -4.91753,2.897497 -1.62941,0.982396 -3.248859,1.981568 -4.858102,2.996716 -1.609241,1.015151 -3.208195,2.046404 -4.796605,3.093868 -1.588407,1.047465 -3.166134,2.111164 -4.733044,3.190502 -1.56691,1.079341 -3.123184,2.174293 -4.667932,3.285072 -1.544747,1.110779 -3.078317,2.237343 -4.600237,3.379121 -1.521918,1.14178 -3.032046,2.298769 -4.530473,3.471106 -1.498425,1.172339 -2.984892,2.360112 -4.4591589,3.562574 -1.474267,1.20246 -2.936336,2.419835 -4.3857785,3.651973 -1.4178108,1.205256 -2.8228509,2.425469 -4.2162801,3.658692 0.7690236,0.433414 1.5412016,0.861134 2.3228556,1.271239 0.9164119,0.4808 1.8413275,0.94579 2.7739913,1.394229 0.9326647,0.448472 1.8732957,0.88028 2.8210157,1.296046 0.94772,0.415769 1.9028449,0.815112 2.8644249,1.197857 0.96158,0.38274 1.929455,0.74926 2.903699,1.09864 0.974244,0.34939 1.954676,0.68169 2.940389,0.99736 0.985711,0.31568 1.976964,0.61442 2.972945,0.89607 0.995984,0.28164 1.996826,0.54647 3.001883,0.79375 1.005057,0.24728 2.01427,0.47734 3.027206,0.68988 1.012936,0.21257 2.029293,0.40747 3.04891,0.58498 1.019617,0.17751 2.042406,0.33742 3.067513,0.47955 1.025105,0.14211 2.052585,0.2662 3.081981,0.37259 1.029393,0.10639 2.060866,0.1953 3.093352,0.26562 1.032489,0.0703 2.0662,0.12214 3.100586,0.15606 1.034386,0.0339 2.069115,0.0499 3.104202,0.047 0.756569,-0.002 1.512152,-0.0137 2.26653,-0.0346 0.754377,-0.0209 1.507664,-0.0517 2.259809,-0.091 0.752144,-0.0393 1.503224,-0.0875 2.253093,-0.14469 0.749869,-0.0572 1.498823,-0.12331 2.246374,-0.19792 1.495102,-0.1492 2.985471,-0.3325 4.471045,-0.54829 1.485572,-0.21579 2.965889,-0.46416 4.44159,-0.74259 1.475703,-0.27839 2.946643,-0.58689 4.412133,-0.92397 1.465487,-0.33707 2.925678,-0.70274 4.380611,-1.09451 1.454933,-0.39174 2.904538,-0.80963 4.348573,-1.25212 1.444037,-0.44249 2.882701,-0.90912 4.315499,-1.39837 1.432798,-0.489203 2.859654,-1.001212 4.280874,-1.533236 1.421217,-0.532024 2.836439,-1.084355 4.245737,-1.655196 1.409298,-0.570865 2.812528,-1.160074 4.209563,-1.765782 1.397034,-0.605687 2.787925,-1.227899 4.172352,-1.864487 1.38443,-0.636614 2.76264,-1.28778 4.134118,-1.951302 1.37149,-0.663522 2.73665,-1.339228 4.09484,-2.025716 0.82861,-0.418809 1.64968,-0.848175 2.47323,-1.274342 0.52637,-0.272372 1.0565,-0.539337 1.58078,-0.814419 1.34457,-0.705469 2.68208,-1.419423 4.01268,-2.139921 2.66118,-1.440992 5.30922,-2.912224 7.9499,-4.399214 2.64068,-1.486992 5.27396,-2.989939 7.90649,-4.495334 1.83998,-1.052174 3.68102,-2.102032 5.52215,-3.151746 0.79305,-0.452157 1.58483,-0.907089 2.37866,-1.35754 2.63675,-1.496197 5.27901,-2.981147 7.93233,-4.440555 1.32668,-0.729702 2.6563,-1.453012 3.98943,-2.168342 1.33314,-0.71533 2.66946,-1.42226 4.0106,-2.119768 1.34116,-0.697507 2.68678,-1.385652 4.03748,-2.06189 1.3507,-0.676238 2.70669,-1.340609 4.06849,-1.992127 1.3618,-0.651515 2.72969,-1.290233 4.10414,-1.913578 1.37445,-0.623345 2.7553,-1.231418 4.14393,-1.823143 1.38865,-0.591727 2.78503,-1.166757 4.18941,-1.723411 1.40438,-0.556657 2.81684,-1.0952 4.2385,-1.613336 1.75954,-0.641276 3.53114,-1.249424 5.31286,-1.825213 1.78171,-0.575789 3.57339,-1.1192 5.37486,-1.629357 1.80147,-0.510156 3.6124,-0.98706 5.4312,-1.431438 1.81881,-0.444376 3.64552,-0.856099 5.47925,-1.234551 0.34725,-0.07167 0.69767,-0.127066 1.04541,-0.196366 -1.12837,-0.58446 -2.2583,-1.17115 -3.38739,-1.75028 -1.53663,-0.78817 -3.0808,-1.57086 -4.63279,-2.34094 -1.552,-0.77009 -3.11168,-1.52737 -4.68085,-2.26498 -1.56917,-0.73762 -3.14748,-1.45536 -4.73563,-2.14613 -1.58815,-0.69076 -3.18613,-1.35432 -4.79505,-1.98386 -0.80446,-0.31476 -1.61208,-0.621 -2.42208,-0.91777 -0.81,-0.29676 -1.62286,-0.58448 -2.43861,-0.86144 -0.81576,-0.27697 -1.63444,-0.54356 -2.45618,-0.79892 -0.82174,-0.25537 -1.64632,-0.49925 -2.47427,-0.73122 -0.82795,-0.23197 -1.659,-0.45158 -2.49339,-0.65836 -0.83439,-0.20678 -1.67197,-0.40054 -2.51302,-0.58033 -0.84105,-0.17978 -1.68576,-0.34561 -2.5337,-0.49661 -0.84794,-0.15099 -1.69931,-0.28731 -2.55436,-0.40773 -0.89966,-0.12669 -1.80016,-0.23584 -2.70165,-0.32762 -0.90149,-0.0918 -1.8039,-0.16622 -2.70681,-0.2248 -0.90291,-0.0586 -1.80652,-0.1011 -2.71043,-0.12815 -0.90391,-0.0271 -1.80799,-0.0389 -2.71249,-0.0362 z m -83.160299,28.898498 c 0.580954,0.0018 1.161415,0.0083 1.742014,0.0186 0.580596,0.01029 1.161256,0.02484 1.741495,0.04341 0.580237,0.01857 1.160055,0.04114 1.739945,0.0677 0.57989,0.02656 1.159963,0.05707 1.739429,0.09147 0.579467,0.03439 1.158322,0.07267 1.73736,0.114724 0.579038,0.04205 1.157822,0.08749 1.736328,0.13694 0.578509,0.04945 1.156738,0.10291 1.734781,0.159682 0.57804,0.05677 1.156253,0.117006 1.733743,0.180866 0.57749,0.06386 1.154258,0.13135 1.731161,0.202057 0.5769,0.07071 1.153837,0.144836 1.730126,0.222208 0.576289,0.07737 1.151927,0.157982 1.727544,0.241845 0.575617,0.08387 1.151093,0.170727 1.725993,0.260966 -0.5749,-0.09024 -1.150376,-0.177101 -1.725993,-0.260966 -0.575617,-0.08386 -1.151255,-0.164476 -1.727544,-0.241845 -0.576289,-0.07737 -1.153226,-0.151501 -1.730126,-0.222208 -0.576903,-0.07071 -1.153671,-0.138194 -1.731161,-0.202057 -0.57749,-0.06386 -1.155703,-0.124095 -1.733743,-0.180866 -0.578043,-0.05677 -1.156272,-0.110231 -1.734781,-0.159682 -0.578506,-0.04945 -1.15729,-0.09488 -1.736328,-0.13694 -0.579038,-0.04206 -1.157893,-0.08033 -1.73736,-0.114724 -0.579466,-0.03439 -1.159539,-0.06491 -1.739429,-0.09147 -0.57989,-0.02656 -1.159708,-0.04913 -1.739945,-0.0677 -0.580239,-0.01857 -1.160899,-0.03313 -1.741495,-0.04341 -0.580599,-0.01028 -1.16106,-0.01677 -1.742014,-0.0186 z m 0,0 c -0.580954,-0.0018 -1.162399,9.77e-4 -1.743562,0.0078 -0.581162,0.0068 -1.162211,0.01754 -1.743564,0.03307 -0.581353,0.01554 -1.163013,0.03585 -1.744597,0.06046 -0.591732,0.02504 -1.182854,0.05477 -1.774049,0.0894 -0.591199,0.03463 -1.182466,0.07417 -1.773021,0.118337 -0.409165,0.03061 -0.817782,0.06667 -1.22628,0.104905 0.408498,-0.03823 0.817115,-0.0743 1.22628,-0.104905 0.590555,-0.04418 1.181822,-0.08371 1.773021,-0.118337 0.591195,-0.03463 1.182317,-0.06436 1.774049,-0.0894 0.581584,-0.02461 1.163244,-0.04492 1.744597,-0.06046 0.581353,-0.01554 1.162402,-0.0263 1.743564,-0.03307 0.581163,-0.0068 1.162608,-0.0096 1.743562,-0.0078 z m 22.777939,2.062406 c 0.58891,0.734298 1.177915,1.468186 1.756998,2.21175 -0.579083,-0.743564 -1.168088,-1.477452 -1.756998,-2.21175 z m 4.09329,5.264277 c 0.770821,1.024006 1.534268,2.053537 2.291331,3.087151 0.757065,1.033613 1.507746,2.071309 2.253614,3.110404 -0.745868,-1.039095 -1.496549,-2.076791 -2.253614,-3.110404 -0.757063,-1.033614 -1.52051,-2.063145 -2.291331,-3.087151 z" />
    </g>
    <circle
       style="fill:url(#linearGradient10952-73);fill-opacity:1;stroke-width:0.396876"
       id="path964-7-5"
       cx="276.8829"
       cy="103.05933"
       r="8.7742214" />
    <circle
       style="fill:url(#linearGradient1176);fill-opacity:1;stroke-width:0.396875"
       id="path964"
       cx="80.355278"
       cy="33.632511"
       r="24.209375" />
    <path
       id="path64262"
       style="opacity:1;mix-blend-mode:normal;fill:#000000;fill-opacity:1;stroke:none;stroke-width:0.396875;filter:url(#filter64282)"
       d="m 31.78824,26.698628 c -0.361413,-0.0012 -0.722797,7.75e-4 -1.08417,0.0057 -0.722749,0.0098 -1.445226,0.03176 -2.167311,0.06615 -0.722082,0.0344 -1.443288,0.08108 -2.163693,0.140042 -0.720404,0.05896 -1.440044,0.130148 -2.158007,0.213423 -0.717965,0.08328 -1.434461,0.178946 -2.149223,0.28629 -0.714761,0.107339 -1.427575,0.226444 -2.138371,0.3576 -0.710794,0.131157 -1.419384,0.274188 -2.125451,0.428913 -0.706066,0.154729 -1.409888,0.321149 -2.110465,0.499195 -0.700577,0.178046 -1.398055,0.36784 -2.092379,0.568958 -0.694324,0.20112 -1.385434,0.413744 -2.072742,0.637688 -0.68731,0.223943 -1.370989,0.459382 -2.0505207,0.7059 -0.6795318,0.246518 -1.3547239,0.504235 -2.0257162,0.773078 -0.6709923,0.268846 -1.3376706,0.54882 -1.9993612,0.839743 -0.6616904,0.290922 -1.3182791,0.592619 -1.9699055,0.905369 -0.6516266,0.312754 -1.2980998,0.636149 -1.9388997,0.970484 -0.56275847,0.293616 -1.11942658,0.598908 -1.67328286,0.908989 v 45.725355 11.540897 c 0.49582337,0.320757 0.98755319,0.647925 1.48983156,0.958598 0.8803186,0.54446 1.7701242,1.073135 2.6690876,1.58595 0.1321922,0.07541 0.2679121,0.144391 0.4004924,0.219109 1.3934292,-1.233223 2.7984693,-2.453436 4.2162801,-3.658692 1.4494425,-1.232138 2.9115115,-2.449513 4.3857785,-3.651973 1.474267,-1.202462 2.960734,-2.390235 4.459159,-3.562574 1.498427,-1.172337 3.008555,-2.329326 4.530473,-3.471106 1.52192,-1.141778 3.05549,-2.268342 4.600237,-3.379121 1.544748,-1.110779 3.101022,-2.205731 4.667932,-3.285072 1.56691,-1.079338 3.144637,-2.143037 4.733044,-3.190502 1.58841,-1.047464 3.187364,-2.078717 4.796605,-3.093868 1.609243,-1.015148 3.228692,-2.01432 4.858102,-2.996716 1.629407,-0.982395 3.26862,-1.948293 4.91753,-2.897497 1.648912,-0.949203 3.307659,-1.881674 4.975407,-2.797246 0.450752,-0.247457 0.90751,-0.483661 1.359607,-0.728639 1.220631,-0.661429 2.440836,-1.323549 3.671093,-1.966804 1.685923,-0.881501 3.380497,-1.746128 5.083927,-2.593123 1.703427,-0.846994 3.415336,-1.676691 5.135604,-2.488737 1.720271,-0.812046 3.448767,-1.60614 5.185215,-2.3828 1.203724,-0.538393 2.416452,-1.056989 3.627683,-1.578197 -0.755899,-0.728978 -1.515758,-1.452907 -2.292882,-2.155426 -0.933574,-0.843952 -1.883037,-1.668063 -2.849438,-2.470134 -0.966404,-0.802074 -1.950138,-1.5822 -2.951758,-2.338358 -1.00162,-0.756158 -2.021043,-1.488498 -3.060279,-2.194698 -1.039233,-0.706199 -2.097826,-1.386432 -3.177066,-2.038636 -0.539621,-0.326104 -1.084459,-0.645199 -1.634527,-0.957045 -0.550072,-0.311846 -1.105742,-0.616556 -1.666566,-0.913641 -0.638804,-0.338396 -1.283335,-0.665959 -1.933215,-0.982368 -0.649883,-0.316408 -1.305081,-0.621462 -1.965253,-0.915708 -0.66017,-0.294243 -1.325028,-0.577656 -1.99471,-0.849558 -0.669679,-0.271907 -1.34421,-0.532471 -2.022615,-0.781865 -0.678405,-0.249394 -1.361072,-0.487463 -2.04742,-0.714169 -0.68635,-0.226705 -1.376132,-0.442113 -2.069642,-0.645956 -0.69351,-0.20384 -1.390423,-0.395907 -2.090312,-0.57671 -0.699889,-0.180805 -1.402913,-0.350385 -2.108398,-0.507978 -0.705485,-0.157592 -1.413603,-0.303493 -2.123903,-0.437698 -0.710298,-0.134207 -1.422493,-0.25626 -2.13682,-0.366903 -0.71433,-0.110643 -1.430613,-0.209719 -2.148189,-0.296624 -0.717579,-0.08691 -1.436929,-0.161798 -2.156974,-0.224793 -0.720042,-0.063 -1.440931,-0.114051 -2.162659,-0.152961 -0.721725,-0.03891 -1.444162,-0.06597 -2.166792,-0.08062 -0.361315,-0.0073 -0.722759,-0.01172 -1.084172,-0.01292 z M 28.261323,64.98673 c -1.108594,0.417063 -2.210903,0.851437 -3.305741,1.303279 1.094838,-0.451842 2.197147,-0.886216 3.305741,-1.303279 z" />
    <path
       id="path34442"
       style="opacity:1;fill:#0c3c8d;fill-opacity:1;stroke:none;stroke-width:0.396875"
       d="m 31.78824,26.698628 c -0.361413,-0.0012 -0.722797,7.75e-4 -1.08417,0.0057 -0.722749,0.0098 -1.445226,0.03176 -2.167311,0.06615 -0.722082,0.0344 -1.443288,0.08108 -2.163693,0.140042 -0.720404,0.05896 -1.440044,0.130148 -2.158007,0.213423 -0.717965,0.08328 -1.434461,0.178946 -2.149223,0.28629 -0.714761,0.107339 -1.427575,0.226444 -2.138371,0.3576 -0.710794,0.131157 -1.419384,0.274188 -2.125451,0.428913 -0.706066,0.154729 -1.409888,0.321149 -2.110465,0.499195 -0.700577,0.178046 -1.398055,0.36784 -2.092379,0.568958 -0.694324,0.20112 -1.385434,0.413744 -2.072742,0.637688 -0.68731,0.223943 -1.370989,0.459382 -2.0505207,0.7059 -0.6795318,0.246518 -1.3547239,0.504235 -2.0257162,0.773078 -0.6709923,0.268846 -1.3376706,0.54882 -1.9993612,0.839743 -0.6616904,0.290922 -1.3182791,0.592619 -1.9699055,0.905369 -0.6516266,0.312754 -1.2980998,0.636149 -1.9388997,0.970484 -0.56275847,0.293616 -1.11942658,0.598908 -1.67328286,0.908989 v 45.725355 11.540897 c 0.49582337,0.320757 0.98755319,0.647925 1.48983156,0.958598 0.8803186,0.54446 1.7701242,1.073135 2.6690876,1.58595 0.1321922,0.07541 0.2679121,0.144391 0.4004924,0.219109 1.3934292,-1.233223 2.7984693,-2.453436 4.2162801,-3.658692 1.4494425,-1.232138 2.9115115,-2.449513 4.3857785,-3.651973 1.474267,-1.202462 2.960734,-2.390235 4.459159,-3.562574 1.498427,-1.172337 3.008555,-2.329326 4.530473,-3.471106 1.52192,-1.141778 3.05549,-2.268342 4.600237,-3.379121 1.544748,-1.110779 3.101022,-2.205731 4.667932,-3.285072 1.56691,-1.079338 3.144637,-2.143037 4.733044,-3.190502 1.58841,-1.047464 3.187364,-2.078717 4.796605,-3.093868 1.609243,-1.015148 3.228692,-2.01432 4.858102,-2.996716 1.629407,-0.982395 3.26862,-1.948293 4.91753,-2.897497 1.648912,-0.949203 3.307659,-1.881674 4.975407,-2.797246 0.450752,-0.247457 0.90751,-0.483661 1.359607,-0.728639 1.220631,-0.661429 2.440836,-1.323549 3.671093,-1.966804 1.685923,-0.881501 3.380497,-1.746128 5.083927,-2.593123 1.703427,-0.846994 3.415336,-1.676691 5.135604,-2.488737 1.720271,-0.812046 3.448767,-1.60614 5.185215,-2.3828 1.203724,-0.538393 2.416452,-1.056989 3.627683,-1.578197 -0.755899,-0.728978 -1.515758,-1.452907 -2.292882,-2.155426 -0.933574,-0.843952 -1.883037,-1.668063 -2.849438,-2.470134 -0.966404,-0.802074 -1.950138,-1.5822 -2.951758,-2.338358 -1.00162,-0.756158 -2.021043,-1.488498 -3.060279,-2.194698 -1.039233,-0.706199 -2.097826,-1.386432 -3.177066,-2.038636 -0.539621,-0.326104 -1.084459,-0.645199 -1.634527,-0.957045 -0.550072,-0.311846 -1.105742,-0.616556 -1.666566,-0.913641 -0.638804,-0.338396 -1.283335,-0.665959 -1.933215,-0.982368 -0.649883,-0.316408 -1.305081,-0.621462 -1.965253,-0.915708 -0.66017,-0.294243 -1.325028,-0.577656 -1.99471,-0.849558 -0.669679,-0.271907 -1.34421,-0.532471 -2.022615,-0.781865 -0.678405,-0.249394 -1.361072,-0.487463 -2.04742,-0.714169 -0.68635,-0.226705 -1.376132,-0.442113 -2.069642,-0.645956 -0.69351,-0.20384 -1.390423,-0.395907 -2.090312,-0.57671 -0.699889,-0.180805 -1.402913,-0.350385 -2.108398,-0.507978 -0.705485,-0.157592 -1.413603,-0.303493 -2.123903,-0.437698 -0.710298,-0.134207 -1.422493,-0.25626 -2.13682,-0.366903 -0.71433,-0.110643 -1.430613,-0.209719 -2.148189,-0.296624 -0.717579,-0.08691 -1.436929,-0.161798 -2.156974,-0.224793 -0.720042,-0.063 -1.440931,-0.114051 -2.162659,-0.152961 -0.721725,-0.03891 -1.444162,-0.06597 -2.166792,-0.08062 -0.361315,-0.0073 -0.722759,-0.01172 -1.084172,-0.01292 z M 28.261323,64.98673 c -1.108594,0.417063 -2.210903,0.851437 -3.305741,1.303279 1.094838,-0.451842 2.197147,-0.886216 3.305741,-1.303279 z" />
    <path
       id="path64238"
       style="opacity:1;mix-blend-mode:normal;fill:#000000;fill-opacity:1;stroke:none;stroke-width:0.396875;filter:url(#filter64258)"
       d="m 151.31893,28.892293 c -0.90451,0.0028 -1.80937,0.02028 -2.71405,0.05116 -0.90468,0.03088 -1.80908,0.07551 -2.71353,0.132808 -0.90445,0.0573 -1.8087,0.127267 -2.71249,0.20929 -0.9038,0.08202 -1.80717,0.17607 -2.70992,0.28112 -0.90274,0.105048 -1.80502,0.22089 -2.70629,0.347266 -0.90128,0.126373 -1.80174,0.263271 -2.70113,0.409276 -0.89939,0.146005 -1.79783,0.301151 -2.69493,0.465087 -0.89709,0.163939 -1.79278,0.336598 -2.68717,0.516766 -1.78877,0.360338 -3.57201,0.751255 -5.34747,1.166336 -1.77548,0.415084 -3.54315,0.854271 -5.30201,1.310516 -1.84191,0.477784 -3.67868,0.975219 -5.50974,1.491898 -1.83106,0.516681 -3.65661,1.052517 -5.47615,1.607653 -1.81954,0.555135 -3.63313,1.129739 -5.44049,1.722892 -1.80735,0.593154 -3.608278,1.204815 -5.402775,1.835547 -1.794502,0.630733 -3.582514,1.28033 -5.363498,1.948201 -1.780988,0.667875 -3.554834,1.354217 -5.321639,2.05879 -1.766803,0.704574 -3.526274,1.427503 -5.278231,2.168342 -0.537477,0.227277 -1.069549,0.467482 -1.605587,0.698151 -1.211231,0.521208 -2.423959,1.039804 -3.627683,1.578197 -1.736448,0.77666 -3.464944,1.570754 -5.185215,2.3828 -1.720268,0.812046 -3.432177,1.641743 -5.135604,2.488737 -1.70343,0.846995 -3.398004,1.711622 -5.083927,2.593123 -1.230257,0.643255 -2.450462,1.305375 -3.671093,1.966804 -0.452097,0.244978 -0.908855,0.481182 -1.359607,0.728639 -1.667748,0.915572 -3.326495,1.848043 -4.975407,2.797246 -1.64891,0.949204 -3.288123,1.915102 -4.91753,2.897497 -1.62941,0.982396 -3.248859,1.981568 -4.858102,2.996716 -1.609241,1.015151 -3.208195,2.046404 -4.796605,3.093868 -1.588407,1.047465 -3.166134,2.111164 -4.733044,3.190502 -1.56691,1.079341 -3.123184,2.174293 -4.667932,3.285072 -1.544747,1.110779 -3.078317,2.237343 -4.600237,3.379121 -1.521918,1.14178 -3.032046,2.298769 -4.530473,3.471106 -1.498425,1.172339 -2.984892,2.360112 -4.459159,3.562574 -1.474267,1.20246 -2.936336,2.419835 -4.3857785,3.651973 -1.4178108,1.205256 -2.8228509,2.425469 -4.2162801,3.658692 0.7690236,0.433414 1.5412016,0.861134 2.3228556,1.271239 0.9164119,0.4808 1.8413275,0.94579 2.7739913,1.394229 0.9326647,0.448472 1.8732957,0.88028 2.8210157,1.296046 0.94772,0.415769 1.902845,0.815112 2.864425,1.197857 0.96158,0.38274 1.929455,0.74926 2.903699,1.09864 0.974244,0.34939 1.954676,0.68169 2.940389,0.99736 0.985711,0.31568 1.976964,0.61442 2.972945,0.89607 0.995984,0.28164 1.996826,0.54647 3.001883,0.79375 1.005057,0.24728 2.01427,0.47734 3.027206,0.68988 1.012936,0.21257 2.029293,0.40747 3.04891,0.58498 1.019617,0.17751 2.042406,0.33742 3.067513,0.47955 1.025105,0.14211 2.052585,0.2662 3.081981,0.37259 1.029393,0.10639 2.060866,0.1953 3.093352,0.26562 1.032489,0.0703 2.0662,0.12214 3.100586,0.15606 1.034386,0.0339 2.069115,0.0499 3.104202,0.047 0.756569,-0.002 1.512152,-0.0137 2.26653,-0.0346 0.754377,-0.0209 1.507664,-0.0517 2.259809,-0.091 0.752144,-0.0393 1.503224,-0.0875 2.253093,-0.14469 0.749869,-0.0572 1.498823,-0.12331 2.246374,-0.19792 1.495102,-0.1492 2.985471,-0.3325 4.471045,-0.54829 1.485572,-0.21579 2.965889,-0.46416 4.44159,-0.74259 1.475703,-0.27839 2.946643,-0.58689 4.412133,-0.92397 1.465487,-0.33707 2.925678,-0.70274 4.380611,-1.09451 1.454933,-0.39174 2.904538,-0.80963 4.348573,-1.25212 1.444037,-0.44249 2.882701,-0.90912 4.315499,-1.39837 1.432798,-0.489203 2.859654,-1.001212 4.280874,-1.533236 1.421217,-0.532024 2.836439,-1.084355 4.245737,-1.655196 1.409298,-0.570865 2.812528,-1.160074 4.209563,-1.765782 1.397034,-0.605687 2.787925,-1.227899 4.172352,-1.864487 1.38443,-0.636614 2.76264,-1.28778 4.13412,-1.951302 1.37149,-0.663522 2.73665,-1.339228 4.09484,-2.025716 0.82861,-0.418809 1.64968,-0.848175 2.47323,-1.274342 0.52637,-0.272372 1.0565,-0.539337 1.58078,-0.814419 1.34457,-0.705469 2.68208,-1.419423 4.01268,-2.139921 2.66118,-1.440992 5.30922,-2.912224 7.9499,-4.399214 2.64068,-1.486992 5.27396,-2.989939 7.90649,-4.495334 1.83998,-1.052174 3.68102,-2.102032 5.52215,-3.151746 0.79305,-0.452157 1.58483,-0.907089 2.37866,-1.35754 2.63675,-1.496197 5.27901,-2.981147 7.93233,-4.440555 1.32668,-0.729702 2.6563,-1.453012 3.98943,-2.168342 1.33314,-0.71533 2.66946,-1.42226 4.0106,-2.119768 1.34116,-0.697507 2.68678,-1.385652 4.03748,-2.06189 1.3507,-0.676238 2.70669,-1.340609 4.06849,-1.992127 1.3618,-0.651515 2.72969,-1.290233 4.10414,-1.913578 1.37445,-0.623345 2.7553,-1.231418 4.14393,-1.823143 1.38865,-0.591727 2.78503,-1.166757 4.18941,-1.723411 1.40438,-0.556657 2.81684,-1.0952 4.2385,-1.613336 1.75954,-0.641276 3.53114,-1.249424 5.31286,-1.825213 1.78171,-0.575789 3.57339,-1.1192 5.37486,-1.629357 1.80147,-0.510156 3.6124,-0.98706 5.4312,-1.431438 1.81881,-0.444376 3.64552,-0.856099 5.47925,-1.234551 0.34725,-0.07167 0.69767,-0.127071 1.04541,-0.196368 -1.12837,-0.584454 -2.2583,-1.171144 -3.38739,-1.750283 -1.53663,-0.78817 -3.0808,-1.570857 -4.63279,-2.34094 -1.552,-0.770086 -3.11168,-1.527363 -4.68085,-2.264979 -1.56917,-0.737614 -3.14748,-1.455357 -4.73563,-2.146123 -1.58815,-0.690764 -3.18613,-1.354323 -4.79505,-1.983859 -0.80446,-0.314769 -1.61208,-0.621006 -2.42208,-0.917771 -0.81,-0.296767 -1.62286,-0.584486 -2.43861,-0.861446 -0.81576,-0.276969 -1.63444,-0.543555 -2.45618,-0.79892 -0.82174,-0.255368 -1.64632,-0.49925 -2.47427,-0.731221 -0.82795,-0.231968 -1.659,-0.45158 -2.49339,-0.658357 -0.83439,-0.206778 -1.67197,-0.40054 -2.51302,-0.580327 -0.84105,-0.179787 -1.68576,-0.345612 -2.5337,-0.49661 -0.84794,-0.150997 -1.69931,-0.287313 -2.55436,-0.407728 -0.89966,-0.126693 -1.80016,-0.235841 -2.70165,-0.327628 -0.90149,-0.09178 -1.8039,-0.166219 -2.70681,-0.224793 -0.90291,-0.05857 -1.80652,-0.1011 -2.71043,-0.128156 -0.90391,-0.02706 -1.80799,-0.03893 -2.71249,-0.03617 z M 68.158629,57.790788 c 0.580954,0.0018 1.161415,0.0083 1.742014,0.0186 0.580596,0.01029 1.161256,0.02484 1.741495,0.04341 0.580237,0.01857 1.160055,0.04114 1.739945,0.0677 0.57989,0.02656 1.159963,0.05707 1.739429,0.09147 0.579467,0.03439 1.158322,0.07267 1.73736,0.114724 0.579038,0.04205 1.157822,0.08749 1.736328,0.13694 0.578509,0.04945 1.156738,0.10291 1.734781,0.159682 0.57804,0.05677 1.156253,0.117006 1.733743,0.180866 0.57749,0.06386 1.154258,0.13135 1.731161,0.202057 0.5769,0.07071 1.153837,0.144836 1.730126,0.222208 0.576289,0.07737 1.151927,0.157982 1.727544,0.241845 0.575617,0.08387 1.151093,0.170727 1.725993,0.260966 -0.5749,-0.09024 -1.150376,-0.177101 -1.725993,-0.260966 -0.575617,-0.08386 -1.151255,-0.164476 -1.727544,-0.241845 -0.576289,-0.07737 -1.153226,-0.151501 -1.730126,-0.222208 -0.576903,-0.07071 -1.153671,-0.138194 -1.731161,-0.202057 -0.57749,-0.06386 -1.155703,-0.124095 -1.733743,-0.180866 -0.578043,-0.05677 -1.156272,-0.110231 -1.734781,-0.159682 -0.578506,-0.04945 -1.15729,-0.09488 -1.736328,-0.13694 -0.579038,-0.04206 -1.157893,-0.08033 -1.73736,-0.114724 -0.579466,-0.03439 -1.159539,-0.06491 -1.739429,-0.09147 -0.57989,-0.02656 -1.159708,-0.04913 -1.739945,-0.0677 -0.580239,-0.01857 -1.160899,-0.03313 -1.741495,-0.04341 -0.580599,-0.01028 -1.16106,-0.01677 -1.742014,-0.0186 z m 0,0 c -0.580954,-0.0018 -1.162399,9.77e-4 -1.743562,0.0078 -0.581162,0.0068 -1.162211,0.01754 -1.743564,0.03307 -0.581353,0.01554 -1.163013,0.03585 -1.744597,0.06046 -0.591732,0.02504 -1.182854,0.05477 -1.774049,0.0894 -0.591199,0.03463 -1.182466,0.07417 -1.773021,0.118337 -0.409165,0.03061 -0.817782,0.06667 -1.22628,0.104905 0.408498,-0.03823 0.817115,-0.0743 1.22628,-0.104905 0.590555,-0.04418 1.181822,-0.08371 1.773021,-0.118337 0.591195,-0.03463 1.182317,-0.06436 1.774049,-0.0894 0.581584,-0.02461 1.163244,-0.04492 1.744597,-0.06046 0.581353,-0.01554 1.162402,-0.0263 1.743564,-0.03307 0.581163,-0.0068 1.162608,-0.0096 1.743562,-0.0078 z m 22.777939,2.062406 c 0.58891,0.734298 1.177915,1.468186 1.756998,2.21175 -0.579083,-0.743564 -1.168088,-1.477452 -1.756998,-2.21175 z m 4.09329,5.264277 c 0.770821,1.024006 1.534268,2.053537 2.291331,3.087151 0.757065,1.033613 1.507746,2.071309 2.253614,3.110404 -0.745868,-1.039095 -1.496549,-2.076791 -2.253614,-3.110404 -0.757063,-1.033614 -1.52051,-2.063145 -2.291331,-3.087151 z" />
    <path
       id="path34450"
       style="opacity:1;fill:#1050bc;fill-opacity:1;stroke:none;stroke-width:0.396875"
       d="m 151.31893,28.892293 c -0.90451,0.0028 -1.80937,0.02028 -2.71405,0.05116 -0.90468,0.03088 -1.80908,0.07551 -2.71353,0.132808 -0.90445,0.0573 -1.8087,0.127267 -2.71249,0.20929 -0.9038,0.08202 -1.80717,0.17607 -2.70992,0.28112 -0.90274,0.105048 -1.80502,0.22089 -2.70629,0.347266 -0.90128,0.126373 -1.80174,0.263271 -2.70113,0.409276 -0.89939,0.146005 -1.79783,0.301151 -2.69493,0.465087 -0.89709,0.163939 -1.79278,0.336598 -2.68717,0.516766 -1.78877,0.360338 -3.57201,0.751255 -5.34747,1.166336 -1.77548,0.415084 -3.54315,0.854271 -5.30201,1.310516 -1.84191,0.477784 -3.67868,0.975219 -5.50974,1.491898 -1.83106,0.516681 -3.65661,1.052517 -5.47615,1.607653 -1.81954,0.555135 -3.63313,1.129739 -5.44049,1.722892 -1.80735,0.593154 -3.608278,1.204815 -5.402775,1.835547 -1.794502,0.630733 -3.582514,1.28033 -5.363498,1.948201 -1.780988,0.667875 -3.554834,1.354217 -5.321639,2.05879 -1.766803,0.704574 -3.526274,1.427503 -5.278231,2.168342 -0.537477,0.227277 -1.069549,0.467482 -1.605587,0.698151 -1.211231,0.521208 -2.423959,1.039804 -3.627683,1.578197 -1.736448,0.77666 -3.464944,1.570754 -5.185215,2.3828 -1.720268,0.812046 -3.432177,1.641743 -5.135604,2.488737 -1.70343,0.846995 -3.398004,1.711622 -5.083927,2.593123 -1.230257,0.643255 -2.450462,1.305375 -3.671093,1.966804 -0.452097,0.244978 -0.908855,0.481182 -1.359607,0.728639 -1.667748,0.915572 -3.326495,1.848043 -4.975407,2.797246 -1.64891,0.949204 -3.288123,1.915102 -4.91753,2.897497 -1.62941,0.982396 -3.248859,1.981568 -4.858102,2.996716 -1.609241,1.015151 -3.208195,2.046404 -4.796605,3.093868 -1.588407,1.047465 -3.166134,2.111164 -4.733044,3.190502 -1.56691,1.079341 -3.123184,2.174293 -4.667932,3.285072 -1.544747,1.110779 -3.078317,2.237343 -4.600237,3.379121 -1.521918,1.14178 -3.032046,2.298769 -4.530473,3.471106 -1.498425,1.172339 -2.984892,2.360112 -4.459159,3.562574 -1.474267,1.20246 -2.936336,2.419835 -4.3857785,3.651973 -1.4178108,1.205256 -2.8228509,2.425469 -4.2162801,3.658692 0.7690236,0.433414 1.5412016,0.861134 2.3228556,1.271239 0.9164119,0.4808 1.8413275,0.94579 2.7739913,1.394229 0.9326647,0.448472 1.8732957,0.88028 2.8210157,1.296046 0.94772,0.415769 1.902845,0.815112 2.864425,1.197857 0.96158,0.38274 1.929455,0.74926 2.903699,1.09864 0.974244,0.34939 1.954676,0.68169 2.940389,0.99736 0.985711,0.31568 1.976964,0.61442 2.972945,0.89607 0.995984,0.28164 1.996826,0.54647 3.001883,0.79375 1.005057,0.24728 2.01427,0.47734 3.027206,0.68988 1.012936,0.21257 2.029293,0.40747 3.04891,0.58498 1.019617,0.17751 2.042406,0.33742 3.067513,0.47955 1.025105,0.14211 2.052585,0.2662 3.081981,0.37259 1.029393,0.10639 2.060866,0.1953 3.093352,0.26562 1.032489,0.0703 2.0662,0.12214 3.100586,0.15606 1.034386,0.0339 2.069115,0.0499 3.104202,0.047 0.756569,-0.002 1.512152,-0.0137 2.26653,-0.0346 0.754377,-0.0209 1.507664,-0.0517 2.259809,-0.091 0.752144,-0.0393 1.503224,-0.0875 2.253093,-0.14469 0.749869,-0.0572 1.498823,-0.12331 2.246374,-0.19792 1.495102,-0.1492 2.985471,-0.3325 4.471045,-0.54829 1.485572,-0.21579 2.965889,-0.46416 4.44159,-0.74259 1.475703,-0.27839 2.946643,-0.58689 4.412133,-0.92397 1.465487,-0.33707 2.925678,-0.70274 4.380611,-1.09451 1.454933,-0.39174 2.904538,-0.80963 4.348573,-1.25212 1.444037,-0.44249 2.882701,-0.90912 4.315499,-1.39837 1.432798,-0.489203 2.859654,-1.001212 4.280874,-1.533236 1.421217,-0.532024 2.836439,-1.084355 4.245737,-1.655196 1.409298,-0.570865 2.812528,-1.160074 4.209563,-1.765782 1.397034,-0.605687 2.787925,-1.227899 4.172352,-1.864487 1.38443,-0.636614 2.76264,-1.28778 4.13412,-1.951302 1.37149,-0.663522 2.73665,-1.339228 4.09484,-2.025716 0.82861,-0.418809 1.64968,-0.848175 2.47323,-1.274342 0.52637,-0.272372 1.0565,-0.539337 1.58078,-0.814419 1.34457,-0.705469 2.68208,-1.419423 4.01268,-2.139921 2.66118,-1.440992 5.30922,-2.912224 7.9499,-4.399214 2.64068,-1.486992 5.27396,-2.989939 7.90649,-4.495334 1.83998,-1.052174 3.68102,-2.102032 5.52215,-3.151746 0.79305,-0.452157 1.58483,-0.907089 2.37866,-1.35754 2.63675,-1.496197 5.27901,-2.981147 7.93233,-4.440555 1.32668,-0.729702 2.6563,-1.453012 3.98943,-2.168342 1.33314,-0.71533 2.66946,-1.42226 4.0106,-2.119768 1.34116,-0.697507 2.68678,-1.385652 4.03748,-2.06189 1.3507,-0.676238 2.70669,-1.340609 4.06849,-1.992127 1.3618,-0.651515 2.72969,-1.290233 4.10414,-1.913578 1.37445,-0.623345 2.7553,-1.231418 4.14393,-1.823143 1.38865,-0.591727 2.78503,-1.166757 4.18941,-1.723411 1.40438,-0.556657 2.81684,-1.0952 4.2385,-1.613336 1.75954,-0.641276 3.53114,-1.249424 5.31286,-1.825213 1.78171,-0.575789 3.57339,-1.1192 5.37486,-1.629357 1.80147,-0.510156 3.6124,-0.98706 5.4312,-1.431438 1.81881,-0.444376 3.64552,-0.856099 5.47925,-1.234551 0.34725,-0.07167 0.69767,-0.127071 1.04541,-0.196368 -1.12837,-0.584454 -2.2583,-1.171144 -3.38739,-1.750283 -1.53663,-0.78817 -3.0808,-1.570857 -4.63279,-2.34094 -1.552,-0.770086 -3.11168,-1.527363 -4.68085,-2.264979 -1.56917,-0.737614 -3.14748,-1.455357 -4.73563,-2.146123 -1.58815,-0.690764 -3.18613,-1.354323 -4.79505,-1.983859 -0.80446,-0.314769 -1.61208,-0.621006 -2.42208,-0.917771 -0.81,-0.296767 -1.62286,-0.584486 -2.43861,-0.861446 -0.81576,-0.276969 -1.63444,-0.543555 -2.45618,-0.79892 -0.82174,-0.255368 -1.64632,-0.49925 -2.47427,-0.731221 -0.82795,-0.231968 -1.659,-0.45158 -2.49339,-0.658357 -0.83439,-0.206778 -1.67197,-0.40054 -2.51302,-0.580327 -0.84105,-0.179787 -1.68576,-0.345612 -2.5337,-0.49661 -0.84794,-0.150997 -1.69931,-0.287313 -2.55436,-0.407728 -0.89966,-0.126693 -1.80016,-0.235841 -2.70165,-0.327628 -0.90149,-0.09178 -1.8039,-0.166219 -2.70681,-0.224793 -0.90291,-0.05857 -1.80652,-0.1011 -2.71043,-0.128156 -0.90391,-0.02706 -1.80799,-0.03893 -2.71249,-0.03617 z M 68.158629,57.790788 c 0.580954,0.0018 1.161415,0.0083 1.742014,0.0186 0.580596,0.01029 1.161256,0.02484 1.741495,0.04341 0.580237,0.01857 1.160055,0.04114 1.739945,0.0677 0.57989,0.02656 1.159963,0.05707 1.739429,0.09147 0.579467,0.03439 1.158322,0.07267 1.73736,0.114724 0.579038,0.04205 1.157822,0.08749 1.736328,0.13694 0.578509,0.04945 1.156738,0.10291 1.734781,0.159682 0.57804,0.05677 1.156253,0.117006 1.733743,0.180866 0.57749,0.06386 1.154258,0.13135 1.731161,0.202057 0.5769,0.07071 1.153837,0.144836 1.730126,0.222208 0.576289,0.07737 1.151927,0.157982 1.727544,0.241845 0.575617,0.08387 1.151093,0.170727 1.725993,0.260966 -0.5749,-0.09024 -1.150376,-0.177101 -1.725993,-0.260966 -0.575617,-0.08386 -1.151255,-0.164476 -1.727544,-0.241845 -0.576289,-0.07737 -1.153226,-0.151501 -1.730126,-0.222208 -0.576903,-0.07071 -1.153671,-0.138194 -1.731161,-0.202057 -0.57749,-0.06386 -1.155703,-0.124095 -1.733743,-0.180866 -0.578043,-0.05677 -1.156272,-0.110231 -1.734781,-0.159682 -0.578506,-0.04945 -1.15729,-0.09488 -1.736328,-0.13694 -0.579038,-0.04206 -1.157893,-0.08033 -1.73736,-0.114724 -0.579466,-0.03439 -1.159539,-0.06491 -1.739429,-0.09147 -0.57989,-0.02656 -1.159708,-0.04913 -1.739945,-0.0677 -0.580239,-0.01857 -1.160899,-0.03313 -1.741495,-0.04341 -0.580599,-0.01028 -1.16106,-0.01677 -1.742014,-0.0186 z m 0,0 c -0.580954,-0.0018 -1.162399,9.77e-4 -1.743562,0.0078 -0.581162,0.0068 -1.162211,0.01754 -1.743564,0.03307 -0.581353,0.01554 -1.163013,0.03585 -1.744597,0.06046 -0.591732,0.02504 -1.182854,0.05477 -1.774049,0.0894 -0.591199,0.03463 -1.182466,0.07417 -1.773021,0.118337 -0.409165,0.03061 -0.817782,0.06667 -1.22628,0.104905 0.408498,-0.03823 0.817115,-0.0743 1.22628,-0.104905 0.590555,-0.04418 1.181822,-0.08371 1.773021,-0.118337 0.591195,-0.03463 1.182317,-0.06436 1.774049,-0.0894 0.581584,-0.02461 1.163244,-0.04492 1.744597,-0.06046 0.581353,-0.01554 1.162402,-0.0263 1.743564,-0.03307 0.581163,-0.0068 1.162608,-0.0096 1.743562,-0.0078 z m 22.777939,2.062406 c 0.58891,0.734298 1.177915,1.468186 1.756998,2.21175 -0.579083,-0.743564 -1.168088,-1.477452 -1.756998,-2.21175 z m 4.09329,5.264277 c 0.770821,1.024006 1.534268,2.053537 2.291331,3.087151 0.757065,1.033613 1.507746,2.071309 2.253614,3.110404 -0.745868,-1.039095 -1.496549,-2.076791 -2.253614,-3.110404 -0.757063,-1.033614 -1.52051,-2.063145 -2.291331,-3.087151 z" />
    <text
       xml:space="preserve"
       style="font-style:normal;font-weight:normal;font-size:10.5833px;line-height:1.25;font-family:sans-serif;mix-blend-mode:normal;fill:#000000;fill-opacity:1;stroke:none;stroke-width:0.264583;filter:url(#filter4276)"
       x="362.20822"
       y="203.90343"
       id="text1313"><tspan
         sodipodi:role="line"
         id="tspan1311"
         style="stroke-width:0.264583"
         x="362.20822"
         y="203.90343" /></text>
    <path
       id="path64214"
       style="opacity:1;mix-blend-mode:normal;fill:#000000;fill-opacity:1;stroke:none;stroke-width:1.5;filter:url(#filter64234)"
       d="m 884.03125,160.6543 c -3.53854,0.0249 -7.07752,0.0819 -10.61523,0.16992 -7.07543,0.1762 -14.14816,0.4781 -21.2129,0.90625 -7.06476,0.42816 -14.12108,0.98257 -21.16601,1.66211 -7.04496,0.67954 -14.07778,1.48369 -21.09375,2.41406 -7.01598,0.93037 -14.0163,1.98732 -20.99414,3.16797 -5.65644,0.95707 -11.28809,2.05263 -16.91406,3.17383 -1.3143,0.26192 -2.63873,0.47131 -3.95118,0.74218 -6.93063,1.43037 -13.83474,2.98649 -20.70898,4.66602 -6.8742,1.67954 -13.71864,3.48201 -20.52734,5.41016 -6.80871,1.92815 -13.58043,3.98199 -20.31446,6.1582 -6.73406,2.17621 -13.42985,4.47472 -20.08008,6.89844 -5.3732,1.95831 -10.71163,3.99375 -16.01953,6.09765 -5.30789,2.10389 -10.58554,4.27723 -15.83398,6.51368 -5.24837,2.23644 -10.46734,4.53467 -15.66211,6.89062 -5.19477,2.35595 -10.36476,4.77 -15.51172,7.23242 -5.14696,2.46243 -10.27194,4.97344 -15.37695,7.5293 -5.10501,2.55586 -10.19082,5.15672 -15.25977,7.79297 -5.06887,2.63625 -10.11956,5.30811 -15.1582,8.01172 -5.0386,2.70361 -10.0639,5.43738 -15.07813,8.19531 -10.02829,5.51587 -20.0148,11.12828 -29.98046,16.7832 -3.00031,1.70249 -5.99288,3.42192 -8.99024,5.13086 -6.9586,3.96742 -13.91684,7.93539 -20.87109,11.91211 -9.94972,5.68968 -19.90229,11.37011 -29.88282,16.99024 -9.98052,5.62012 -19.98887,11.18068 -30.04687,16.62695 -5.02904,2.72314 -10.08418,5.42155 -15.16602,8.08789 -1.98153,1.03968 -3.98518,2.04869 -5.97461,3.07812 -3.11262,1.61071 -6.2159,3.23351 -9.34765,4.81641 -5.13332,2.5946 -10.29298,5.14845 -15.47656,7.65625 -5.18355,2.5078 -10.39251,4.9689 -15.625,7.375 -5.23248,2.406 -10.48941,4.75766 -15.76953,7.04688 -5.28014,2.28929 -10.58368,4.51622 -15.91016,6.67382 -5.32648,2.15751 -10.67535,4.24506 -16.04688,6.25586 -5.37154,2.0108 -10.76438,3.94598 -16.17968,5.79492 -5.4153,1.84914 -10.85277,3.61276 -16.31055,5.28516 -5.45777,1.6724 -10.93659,3.25183 -16.43555,4.73242 -5.49896,1.48071 -11.01779,2.86276 -16.55664,4.13672 -5.53886,1.27401 -11.09832,2.44001 -16.67578,3.49219 -5.57745,1.05233 -11.17235,1.99106 -16.78711,2.80664 -5.61477,0.81558 -11.24766,1.50836 -16.89844,2.07227 -2.82539,0.28195 -5.65608,0.53185 -8.49023,0.74804 -2.83415,0.21619 -5.67288,0.39815 -8.51563,0.54688 -2.84275,0.14853 -5.68982,0.26438 -8.54101,0.34375 -2.85119,0.0794 -5.70693,0.1233 -8.56641,0.13086 -3.91214,0.0113 -7.82293,-0.0496 -11.73242,-0.17774 -3.90949,-0.12812 -7.81643,-0.32391 -11.71875,-0.58984 -3.90231,-0.2657 -7.80079,-0.6018 -11.69141,-1.00391 -3.89063,-0.4021 -7.77402,-0.87109 -11.64843,-1.4082 -3.87442,-0.53718 -7.74008,-1.1416 -11.59375,-1.8125 -3.85367,-0.6709 -7.69502,-1.40752 -11.52344,-2.21094 -3.82842,-0.8033 -7.64277,-1.67282 -11.44141,-2.60742 -3.798638,-0.9346 -7.581351,-1.93553 -11.3457,-3 -3.764338,-1.0645 -7.510806,-2.1936 -11.236328,-3.38672 -3.72553,-1.19308 -7.431099,-2.449 -11.113281,-3.76953 -3.682182,-1.32049 -7.340292,-2.70577 -10.97461,-4.15234 -3.634318,-1.44659 -7.244238,-2.95594 -10.826172,-4.52735 C 43.080176,372.59247 39.525032,370.96064 36,369.26562 c -3.525029,-1.69481 -7.020771,-3.45233 -10.484375,-5.26953 -2.954283,-1.55 -5.872751,-3.16658 -8.779297,-4.80468 -0.50109,-0.28241 -1.014048,-0.54313 -1.513672,-0.82813 -3.397657,-1.9382 -6.7607016,-3.93634 -10.0878904,-5.99414 -1.8983749,-1.1742 -3.7568813,-2.41074 -5.63085935,-3.62305 v 12.6875 c 1.93293385,1.8196 3.87400275,3.63017 5.83984375,5.41407 0.4849629,0.4401 0.9818029,0.86678 1.46875,1.30468 3.183665,-2.8905 6.349515,-5.80094 9.568359,-8.65234 -3.218843,2.8514 -6.384694,5.76184 -9.568359,8.65234 1.8178481,1.6346 3.639139,3.26546 5.484375,4.86914 2.339518,2.03331 4.701168,4.04299 7.083984,6.0254 2.382818,1.98236 4.785635,3.93874 7.210938,5.86914 2.425302,1.9305 4.872869,3.83364 7.339844,5.71093 2.466971,1.87729 4.955057,3.72769 7.46289,5.55078 2.507834,1.82298 5.034154,3.61904 7.582031,5.38672 2.547882,1.76769 5.115446,3.50795 7.701172,5.21875 2.585726,1.71084 5.190279,3.39326 7.8125,5.04688 2.622225,1.65358 5.26254,3.27714 7.919922,4.87304 2.657379,1.59602 5.332248,3.16329 8.023438,4.70118 2.69119,1.538 5.399398,3.04777 8.123047,4.52734 2.723659,1.47953 5.46202,2.9287 8.216797,4.34961 2.754784,1.4208 5.526002,2.81203 8.310542,4.17383 2.78458,1.3618 5.5835,2.69378 8.39649,3.99609 5.62599,2.60459 11.30739,5.09049 17.03906,7.45508 5.73166,2.36459 11.51325,4.60887 17.33985,6.73047 5.82658,2.12171 11.69862,4.12028 17.60937,5.99609 5.91076,1.87582 11.85958,3.62889 17.84375,5.25586 5.98417,1.62701 12.002,3.12861 18.04883,4.50391 6.04683,1.37529 12.12391,2.62351 18.22265,3.74414 6.09874,1.12067 12.21949,2.11343 18.35938,2.97656 6.1399,0.86309 12.29845,1.59661 18.46875,2.19922 3.08515,0.30123 6.17294,0.57091 9.26367,0.80664 3.09074,0.23547 6.18433,0.43784 9.2793,0.60742 3.09498,0.1697 6.19119,0.30502 9.28906,0.40821 3.09788,0.10318 6.19746,0.17465 9.29688,0.21093 3.09941,0.0378 6.19921,0.0392 9.29882,0.008 3.09964,-0.0302 6.19839,-0.0955 9.29688,-0.19336 3.0985,-0.0983 6.19696,-0.23057 9.29297,-0.39649 3.09602,-0.16592 6.19101,-0.36509 9.2832,-0.59961 5.07219,-0.3843 10.12878,-0.85701 15.17383,-1.41211 5.04506,-0.5551 10.0773,-1.1919 15.0957,-1.9082 5.0184,-0.7163 10.02344,-1.5112 15.01563,-2.37891 4.99221,-0.86778 9.97296,-1.80877 14.93945,-2.81836 4.96653,-1.00958 9.92005,-2.08867 14.86133,-3.23046 4.94128,-1.14172 9.86863,-2.34719 14.78515,-3.61133 4.91653,-1.26425 9.82259,-2.5859 14.71485,-3.96289 4.89226,-1.377 9.77214,-2.80893 14.64062,-4.28907 4.86845,-1.48017 9.72515,-3.00842 14.57032,-4.58203 4.84516,-1.5736 9.67766,-3.19221 14.5,-4.84961 4.82229,-1.65728 9.63366,-3.35457 14.43359,-5.08593 4.79996,-1.73152 9.58915,-3.49709 14.36719,-5.29297 1.96762,-0.7395 3.91299,-1.53391 5.87695,-2.28321 7.5744,-2.8899 15.1428,-5.79973 22.66406,-8.81054 9.47142,-3.79155 18.90052,-7.66428 28.29102,-11.57813 18.78104,-7.82736 37.51758,-15.85147 56.29492,-23.77929 9.38869,-3.9639 18.78716,-7.90218 28.20703,-11.78125 9.41987,-3.8791 18.86154,-7.69892 28.33399,-11.41993 9.47247,-3.72099 18.97504,-7.34438 28.52148,-10.83398 4.77324,-1.7448 9.55779,-3.45571 14.35352,-5.12891 4.79572,-1.6733 9.60289,-3.30789 14.42382,-4.90039 2.99868,-0.9906 6.01223,-1.93422 9.02149,-2.89062 1.82868,-0.58131 3.64965,-1.18786 5.48242,-1.75586 4.84876,-1.5026 9.71243,-2.95773 14.5918,-4.36133 4.87929,-1.4036 9.77494,-2.75537 14.6875,-4.05078 4.91255,-1.29539 9.84255,-2.53486 14.79101,-3.71289 5.19553,-1.23686 10.40732,-2.4 15.63282,-3.49219 5.22549,-1.09218 10.46491,-2.11236 15.71679,-3.06055 5.25188,-0.94819 10.51635,-1.82403 15.79102,-2.6289 5.27467,-0.80488 10.5596,-1.53897 15.85351,-2.20117 5.29387,-0.66223 10.5967,-1.25317 15.90625,-1.77344 5.30952,-0.52027 10.62569,-0.97062 15.94727,-1.34961 5.32161,-0.37898 10.64847,-0.6874 15.97851,-0.92578 5.33012,-0.23838 10.66306,-0.40545 15.99805,-0.50391 5.33499,-0.0985 10.6715,-0.12859 16.00781,-0.0879 5.33632,0.0408 10.67174,0.15269 16.00586,0.33203 5.33405,0.17934 10.66588,0.42691 15.99414,0.74414 5.32827,0.31726 10.65377,0.70377 15.97266,1.15821 5.31889,0.45443 10.63153,0.97738 15.93755,1.56836 5.3058,0.59095 10.6052,1.24975 15.8945,1.97656 5.2894,0.72681 10.5687,1.52083 15.8379,2.38281 5.2693,0.86198 10.5278,1.79261 15.7734,2.78906 4.491,0.85314 8.9682,1.77922 13.4395,2.73047 0.7511,0.15984 1.5072,0.29639 2.2578,0.45899 5.2183,1.13027 10.4219,2.32643 15.6093,3.58984 5.1875,1.26341 10.3588,2.59434 15.5118,3.99023 5.1529,1.39581 10.2872,2.85717 15.4023,4.38477 5.115,1.5277 10.2097,3.12059 15.2832,4.7793 2.7652,0.90409 5.5078,1.87545 8.2598,2.81836 V 290.2697 214.50408 c -0.5653,-0.26087 -1.1331,-0.51633 -1.6992,-0.77539 -3.3838,-1.54842 -6.742,-3.15233 -10.1543,-4.63672 -6.4896,-2.82305 -13.0307,-5.52912 -19.6172,-8.11719 -6.5864,-2.58807 -13.2192,-5.05769 -19.8946,-7.40625 -6.6752,-2.34856 -13.3922,-4.57711 -20.1484,-6.68164 -6.7563,-2.10452 -13.5517,-4.08545 -20.3808,-5.94141 -6.8292,-1.85595 -13.6937,-3.58658 -20.5879,-5.18945 -6.8942,-1.60286 -13.8161,-3.07678 -20.7637,-4.42383 -6.94754,-1.34704 -13.92041,-2.56641 -20.91212,-3.6582 -6.99167,-1.09179 -14.00255,-2.0555 -21.0293,-2.89258 -7.02675,-0.83708 -14.06846,-1.54793 -21.12109,-2.13086 -7.05264,-0.58292 -14.11617,-1.03786 -21.18555,-1.36719 -7.06934,-0.32931 -14.14564,-0.53309 -21.22266,-0.60937 -3.53843,-0.0381 -7.07665,-0.0445 -10.61523,-0.0195 z"
       transform="scale(0.26458333)" />
    <path
       id="rect33729"
       style="opacity:1;fill:#08285e;fill-opacity:1;stroke:none;stroke-width:1.5"
       d="m 884.03125,160.6543 c -3.53854,0.0249 -7.07752,0.0819 -10.61523,0.16992 -7.07543,0.1762 -14.14816,0.4781 -21.2129,0.90625 -7.06476,0.42816 -14.12108,0.98257 -21.16601,1.66211 -7.04496,0.67954 -14.07778,1.48369 -21.09375,2.41406 -7.01598,0.93037 -14.0163,1.98732 -20.99414,3.16797 -5.65644,0.95707 -11.28809,2.05263 -16.91406,3.17383 -1.3143,0.26192 -2.63873,0.47131 -3.95118,0.74218 -6.93063,1.43037 -13.83474,2.98649 -20.70898,4.66602 -6.8742,1.67954 -13.71864,3.48201 -20.52734,5.41016 -6.80871,1.92815 -13.58043,3.98199 -20.31446,6.1582 -6.73406,2.17621 -13.42985,4.47472 -20.08008,6.89844 -5.3732,1.95831 -10.71163,3.99375 -16.01953,6.09765 -5.30789,2.10389 -10.58554,4.27723 -15.83398,6.51368 -5.24837,2.23644 -10.46734,4.53467 -15.66211,6.89062 -5.19477,2.35595 -10.36476,4.77 -15.51172,7.23242 -5.14696,2.46243 -10.27194,4.97344 -15.37695,7.5293 -5.10501,2.55586 -10.19082,5.15672 -15.25977,7.79297 -5.06887,2.63625 -10.11956,5.30811 -15.1582,8.01172 -5.0386,2.70361 -10.0639,5.43738 -15.07813,8.19531 -10.02829,5.51587 -20.0148,11.12828 -29.98046,16.7832 -3.00031,1.70249 -5.99288,3.42192 -8.99024,5.13086 -6.9586,3.96742 -13.91684,7.93539 -20.87109,11.91211 -9.94972,5.68968 -19.90229,11.37011 -29.88282,16.99024 -9.98052,5.62012 -19.98887,11.18068 -30.04687,16.62695 -5.02904,2.72314 -10.08418,5.42155 -15.16602,8.08789 -1.98153,1.03968 -3.98518,2.04869 -5.97461,3.07812 -3.11262,1.61071 -6.2159,3.23351 -9.34765,4.81641 -5.13332,2.5946 -10.29298,5.14845 -15.47656,7.65625 -5.18355,2.5078 -10.39251,4.9689 -15.625,7.375 -5.23248,2.406 -10.48941,4.75766 -15.76953,7.04688 -5.28014,2.28929 -10.58368,4.51622 -15.91016,6.67382 -5.32648,2.15751 -10.67535,4.24506 -16.04688,6.25586 -5.37154,2.0108 -10.76438,3.94598 -16.17968,5.79492 -5.4153,1.84914 -10.85277,3.61276 -16.31055,5.28516 -5.45777,1.6724 -10.93659,3.25183 -16.43555,4.73242 -5.49896,1.48071 -11.01779,2.86276 -16.55664,4.13672 -5.53886,1.27401 -11.09832,2.44001 -16.67578,3.49219 -5.57745,1.05233 -11.17235,1.99106 -16.78711,2.80664 -5.61477,0.81558 -11.24766,1.50836 -16.89844,2.07227 -2.82539,0.28195 -5.65608,0.53185 -8.49023,0.74804 -2.83415,0.21619 -5.67288,0.39815 -8.51563,0.54688 -2.84275,0.14853 -5.68982,0.26438 -8.54101,0.34375 -2.85119,0.0794 -5.70693,0.1233 -8.56641,0.13086 -3.91214,0.0113 -7.82293,-0.0496 -11.73242,-0.17774 -3.90949,-0.12812 -7.81643,-0.32391 -11.71875,-0.58984 -3.90231,-0.2657 -7.80079,-0.6018 -11.69141,-1.00391 -3.89063,-0.4021 -7.77402,-0.87109 -11.64843,-1.4082 -3.87442,-0.53718 -7.74008,-1.1416 -11.59375,-1.8125 -3.85367,-0.6709 -7.69502,-1.40752 -11.52344,-2.21094 -3.82842,-0.8033 -7.64277,-1.67282 -11.44141,-2.60742 -3.798638,-0.9346 -7.581351,-1.93553 -11.3457,-3 -3.764338,-1.0645 -7.510806,-2.1936 -11.236328,-3.38672 -3.72553,-1.19308 -7.431099,-2.449 -11.113281,-3.76953 -3.682182,-1.32049 -7.340292,-2.70577 -10.97461,-4.15234 -3.634318,-1.44659 -7.244238,-2.95594 -10.826172,-4.52735 C 43.080176,372.59247 39.525032,370.96064 36,369.26562 c -3.525029,-1.69481 -7.020771,-3.45233 -10.484375,-5.26953 -2.954283,-1.55 -5.872751,-3.16658 -8.779297,-4.80468 -0.50109,-0.28241 -1.014048,-0.54313 -1.513672,-0.82813 -3.397657,-1.9382 -6.7607016,-3.93634 -10.0878904,-5.99414 -1.8983749,-1.1742 -3.7568813,-2.41074 -5.63085935,-3.62305 v 12.6875 c 1.93293385,1.8196 3.87400275,3.63017 5.83984375,5.41407 0.4849629,0.4401 0.9818029,0.86678 1.46875,1.30468 3.183665,-2.8905 6.349515,-5.80094 9.568359,-8.65234 -3.218843,2.8514 -6.384694,5.76184 -9.568359,8.65234 1.8178481,1.6346 3.639139,3.26546 5.484375,4.86914 2.339518,2.03331 4.701168,4.04299 7.083984,6.0254 2.382818,1.98236 4.785635,3.93874 7.210938,5.86914 2.425302,1.9305 4.872869,3.83364 7.339844,5.71093 2.466971,1.87729 4.955057,3.72769 7.46289,5.55078 2.507834,1.82298 5.034154,3.61904 7.582031,5.38672 2.547882,1.76769 5.115446,3.50795 7.701172,5.21875 2.585726,1.71084 5.190279,3.39326 7.8125,5.04688 2.622225,1.65358 5.26254,3.27714 7.919922,4.87304 2.657379,1.59602 5.332248,3.16329 8.023438,4.70118 2.69119,1.538 5.399398,3.04777 8.123047,4.52734 2.723659,1.47953 5.46202,2.9287 8.216797,4.34961 2.754784,1.4208 5.526002,2.81203 8.310542,4.17383 2.78458,1.3618 5.5835,2.69378 8.39649,3.99609 5.62599,2.60459 11.30739,5.09049 17.03906,7.45508 5.73166,2.36459 11.51325,4.60887 17.33985,6.73047 5.82658,2.12171 11.69862,4.12028 17.60937,5.99609 5.91076,1.87582 11.85958,3.62889 17.84375,5.25586 5.98417,1.62701 12.002,3.12861 18.04883,4.50391 6.04683,1.37529 12.12391,2.62351 18.22265,3.74414 6.09874,1.12067 12.21949,2.11343 18.35938,2.97656 6.1399,0.86309 12.29845,1.59661 18.46875,2.19922 3.08515,0.30123 6.17294,0.57091 9.26367,0.80664 3.09074,0.23547 6.18433,0.43784 9.2793,0.60742 3.09498,0.1697 6.19119,0.30502 9.28906,0.40821 3.09788,0.10318 6.19746,0.17465 9.29688,0.21093 3.09941,0.0378 6.19921,0.0392 9.29882,0.008 3.09964,-0.0302 6.19839,-0.0955 9.29688,-0.19336 3.0985,-0.0983 6.19696,-0.23057 9.29297,-0.39649 3.09602,-0.16592 6.19101,-0.36509 9.2832,-0.59961 5.07219,-0.3843 10.12878,-0.85701 15.17383,-1.41211 5.04506,-0.5551 10.0773,-1.1919 15.0957,-1.9082 5.0184,-0.7163 10.02344,-1.5112 15.01563,-2.37891 4.99221,-0.86778 9.97296,-1.80877 14.93945,-2.81836 4.96653,-1.00958 9.92005,-2.08867 14.86133,-3.23046 4.94128,-1.14172 9.86863,-2.34719 14.78515,-3.61133 4.91653,-1.26425 9.82259,-2.5859 14.71485,-3.96289 4.89226,-1.377 9.77214,-2.80893 14.64062,-4.28907 4.86845,-1.48017 9.72515,-3.00842 14.57032,-4.58203 4.84516,-1.5736 9.67766,-3.19221 14.5,-4.84961 4.82229,-1.65728 9.63366,-3.35457 14.43359,-5.08593 4.79996,-1.73152 9.58915,-3.49709 14.36719,-5.29297 1.96762,-0.7395 3.91299,-1.53391 5.87695,-2.28321 7.5744,-2.8899 15.1428,-5.79973 22.66406,-8.81054 9.47142,-3.79155 18.90052,-7.66428 28.29102,-11.57813 18.78104,-7.82736 37.51758,-15.85147 56.29492,-23.77929 9.38869,-3.9639 18.78716,-7.90218 28.20703,-11.78125 9.41987,-3.8791 18.86154,-7.69892 28.33399,-11.41993 9.47247,-3.72099 18.97504,-7.34438 28.52148,-10.83398 4.77324,-1.7448 9.55779,-3.45571 14.35352,-5.12891 4.79572,-1.6733 9.60289,-3.30789 14.42382,-4.90039 2.99868,-0.9906 6.01223,-1.93422 9.02149,-2.89062 1.82868,-0.58131 3.64965,-1.18786 5.48242,-1.75586 4.84876,-1.5026 9.71243,-2.95773 14.5918,-4.36133 4.87929,-1.4036 9.77494,-2.75537 14.6875,-4.05078 4.91255,-1.29539 9.84255,-2.53486 14.79101,-3.71289 5.19553,-1.23686 10.40732,-2.4 15.63282,-3.49219 5.22549,-1.09218 10.46491,-2.11236 15.71679,-3.06055 5.25188,-0.94819 10.51635,-1.82403 15.79102,-2.6289 5.27467,-0.80488 10.5596,-1.53897 15.85351,-2.20117 5.29387,-0.66223 10.5967,-1.25317 15.90625,-1.77344 5.30952,-0.52027 10.62569,-0.97062 15.94727,-1.34961 5.32161,-0.37898 10.64847,-0.6874 15.97851,-0.92578 5.33012,-0.23838 10.66306,-0.40545 15.99805,-0.50391 5.33499,-0.0985 10.6715,-0.12859 16.00781,-0.0879 5.33632,0.0408 10.67174,0.15269 16.00586,0.33203 5.33405,0.17934 10.66588,0.42691 15.99414,0.74414 5.32827,0.31726 10.65377,0.70377 15.97266,1.15821 5.31889,0.45443 10.63153,0.97738 15.93755,1.56836 5.3058,0.59095 10.6052,1.24975 15.8945,1.97656 5.2894,0.72681 10.5687,1.52083 15.8379,2.38281 5.2693,0.86198 10.5278,1.79261 15.7734,2.78906 4.491,0.85314 8.9682,1.77922 13.4395,2.73047 0.7511,0.15984 1.5072,0.29639 2.2578,0.45899 5.2183,1.13027 10.4219,2.32643 15.6093,3.58984 5.1875,1.26341 10.3588,2.59434 15.5118,3.99023 5.1529,1.39581 10.2872,2.85717 15.4023,4.38477 5.115,1.5277 10.2097,3.12059 15.2832,4.7793 2.7652,0.90409 5.5078,1.87545 8.2598,2.81836 V 290.2697 214.50408 c -0.5653,-0.26087 -1.1331,-0.51633 -1.6992,-0.77539 -3.3838,-1.54842 -6.742,-3.15233 -10.1543,-4.63672 -6.4896,-2.82305 -13.0307,-5.52912 -19.6172,-8.11719 -6.5864,-2.58807 -13.2192,-5.05769 -19.8946,-7.40625 -6.6752,-2.34856 -13.3922,-4.57711 -20.1484,-6.68164 -6.7563,-2.10452 -13.5517,-4.08545 -20.3808,-5.94141 -6.8292,-1.85595 -13.6937,-3.58658 -20.5879,-5.18945 -6.8942,-1.60286 -13.8161,-3.07678 -20.7637,-4.42383 -6.94754,-1.34704 -13.92041,-2.56641 -20.91212,-3.6582 -6.99167,-1.09179 -14.00255,-2.0555 -21.0293,-2.89258 -7.02675,-0.83708 -14.06846,-1.54793 -21.12109,-2.13086 -7.05264,-0.58292 -14.11617,-1.03786 -21.18555,-1.36719 -7.06934,-0.32931 -14.14564,-0.53309 -21.22266,-0.60937 -3.53843,-0.0381 -7.07665,-0.0445 -10.61523,-0.0195 z"
       transform="scale(0.26458333)" />
    <path
       id="path34426"
       style="opacity:1;fill:#c3ecef;fill-opacity:1;stroke:none;stroke-width:0.396875"
       d="m 300.39837,56.353532 c -0.1492,0.06662 -0.29998,0.129537 -0.44958,0.195337 0.14981,0.06855 0.30001,0.136136 0.44958,0.205155 z" />
    <path
       id="path64190"
       style="opacity:1;mix-blend-mode:normal;fill:#000000;fill-opacity:1;stroke:none;stroke-width:0.396875;filter:url(#filter64210)"
       d="m 245.58087,82.397554 c -0.70592,0.0039 -1.41192,0.01229 -2.1177,0.02532 -1.41155,0.02605 -2.82256,0.07025 -4.23282,0.133326 -1.41024,0.06307 -2.81963,0.144674 -4.22764,0.244946 -1.408,0.100274 -2.81457,0.219429 -4.21938,0.357084 -1.40482,0.137655 -2.80786,0.294008 -4.20853,0.469223 -1.40068,0.175209 -2.79899,0.369435 -4.19458,0.582393 -1.39559,0.212955 -2.78848,0.444687 -4.17804,0.695563 -1.38956,0.250875 -2.77582,0.520798 -4.1584,0.80977 -1.38258,0.288975 -2.76153,0.596723 -4.13618,0.923975 -1.30928,0.311688 -2.61368,0.639631 -3.91346,0.982369 -1.29978,0.342744 -2.59508,0.7004 -3.88606,1.071769 -1.291,0.371369 -2.57785,0.756372 -3.86075,1.153935 -0.48492,0.150284 -0.96672,0.310769 -1.45056,0.464572 -0.7962,0.253047 -1.59353,0.502713 -2.38693,0.76481 -1.27554,0.421348 -2.54744,0.853834 -3.81631,1.296561 -1.26887,0.442701 -2.53478,0.895379 -3.7977,1.357024 -2.52583,0.92329 -5.04005,1.881979 -7.54631,2.866491 -2.50625,0.984517 -5.00436,1.995183 -7.4967,3.021523 -2.49234,1.026342 -4.97902,2.068342 -7.46311,3.117122 -4.96817,2.09757 -9.92555,4.22061 -14.8947,6.2916 -2.48457,1.03554 -4.97935,2.06021 -7.48533,3.06339 -1.99,0.79661 -3.99247,1.5665 -5.99653,2.33112 0.16575,0.12803 0.32469,0.26501 0.49144,0.3917 0.99934,0.75934 2.01663,1.49478 3.05356,2.20452 1.03693,0.70975 2.09342,1.39387 3.17035,2.05001 0.53847,0.32806 1.08199,0.64883 1.63091,0.96273 0.54892,0.31391 1.10327,0.6206 1.66295,0.91984 1.02408,0.54753 2.06053,1.066 3.10833,1.55649 1.04781,0.49048 2.10665,0.9531 3.17604,1.38803 1.06939,0.43492 2.14922,0.84234 3.23804,1.22318 1.08882,0.38085 2.18672,0.73524 3.29282,1.0635 1.10613,0.32825 2.22066,0.63026 3.34192,0.90744 1.12125,0.27717 2.24952,0.52946 3.38377,0.75706 1.13425,0.22759 2.27432,0.4308 3.41943,0.6103 1.14511,0.17949 2.29507,0.33529 3.44889,0.46819 1.15381,0.13288 2.31124,0.24292 3.47162,0.33073 1.16038,0.0878 2.32387,0.15321 3.48868,0.1974 1.16479,0.0442 2.3309,0.0667 3.49798,0.0687 1.16708,0.002 2.3349,-0.0162 3.5021,-0.0548 1.16721,-0.0386 2.33383,-0.097 3.49902,-0.17467 1.16518,-0.0777 2.32919,-0.17461 3.49022,-0.28991 1.16103,-0.11531 2.31949,-0.24907 3.47421,-0.40049 1.15472,-0.15145 2.30571,-0.32087 3.45198,-0.50694 1.14627,-0.18609 2.28857,-0.38777 3.4277,-0.60462 1.13913,-0.21688 2.27474,-0.44874 3.40703,-0.69453 1.13229,-0.24583 2.26165,-0.50584 3.38739,-0.77876 1.12573,-0.27293 2.24777,-0.55859 3.36724,-0.8568 1.11948,-0.29818 2.23616,-0.60854 3.34966,-0.93017 1.1135,-0.32163 2.22428,-0.65464 3.3321,-0.99788 1.10782,-0.34322 2.21261,-0.6969 3.31504,-1.05988 1.10243,-0.36301 2.20221,-0.73526 3.29954,-1.11621 2.19466,-0.76186 4.37966,-1.55763 6.55567,-2.38022 2.17602,-0.82257 4.34327,-1.67181 6.50297,-2.54041 2.15969,-0.86863 4.31179,-1.75676 6.45748,-2.65669 2.1457,-0.89996 4.28471,-1.81191 6.41873,-2.72851 2.86068,-1.22875 5.7208,-2.46869 8.59018,-3.6866 1.4347,-0.60896 2.8719,-1.21226 4.3124,-1.80609 1.44052,-0.59384 2.88432,-1.17834 4.33308,-1.74873 1.44875,-0.57039 2.90256,-1.12686 4.362,-1.66553 1.45944,-0.53866 2.92457,-1.05939 4.39713,-1.55805 1.47254,-0.498654 2.95244,-0.975375 4.44056,-1.425752 1.48809,-0.450344 2.98463,-0.874384 4.49069,-1.268137 0.75306,-0.196876 1.50932,-0.38577 2.26806,-0.566375 0.75872,-0.180631 1.51993,-0.352946 2.2836,-0.516247 0.76369,-0.163301 1.52968,-0.31759 2.29753,-0.462505 0.76788,-0.144886 1.5376,-0.28022 2.30891,-0.405659 0.77129,-0.125412 1.54422,-0.240834 2.3182,-0.345715 0.14605,-0.01979 0.29261,-0.03417 0.43874,-0.05323 v -3.924308 c -0.72814,-0.249476 -1.45378,-0.506482 -2.18541,-0.745691 -1.34236,-0.438867 -2.69034,-0.860319 -4.04368,-1.264523 -1.35337,-0.404178 -2.71182,-0.790829 -4.07519,-1.160137 -1.3634,-0.36933 -2.73164,-0.721472 -4.10416,-1.055749 -1.3725,-0.334277 -2.74929,-0.650761 -4.12997,-0.949812 -0.19859,-0.04302 -0.39864,-0.07916 -0.59737,-0.121441 -1.18303,-0.251685 -2.36763,-0.49671 -3.55587,-0.722437 -1.3879,-0.263644 -2.77921,-0.509873 -4.17338,-0.737938 -1.39414,-0.228066 -2.79096,-0.43815 -4.19044,-0.630452 -1.39946,-0.192302 -2.80157,-0.366609 -4.20542,-0.522965 -1.40387,-0.156363 -2.80952,-0.294727 -4.21681,-0.414962 -1.40729,-0.120237 -2.81633,-0.222507 -4.2261,-0.306443 -1.40977,-0.08393 -2.82048,-0.149434 -4.23178,-0.196887 -1.41132,-0.04745 -2.82299,-0.07706 -4.23489,-0.08785 -0.70595,-0.0054 -1.41178,-0.006 -2.1177,-0.0021 z" />
    <path
       id="path34456"
       style="opacity:1;fill:#0c3c8d;fill-opacity:1;stroke:none;stroke-width:0.396875"
       d="m 245.58087,82.397554 c -0.70592,0.0039 -1.41192,0.01229 -2.1177,0.02532 -1.41155,0.02605 -2.82256,0.07025 -4.23282,0.133326 -1.41024,0.06307 -2.81963,0.144674 -4.22764,0.244946 -1.408,0.100274 -2.81457,0.219429 -4.21938,0.357084 -1.40482,0.137655 -2.80786,0.294008 -4.20853,0.469223 -1.40068,0.175209 -2.79899,0.369435 -4.19458,0.582393 -1.39559,0.212955 -2.78848,0.444687 -4.17804,0.695563 -1.38956,0.250875 -2.77582,0.520798 -4.1584,0.80977 -1.38258,0.288975 -2.76153,0.596723 -4.13618,0.923975 -1.30928,0.311688 -2.61368,0.639631 -3.91346,0.982369 -1.29978,0.342744 -2.59508,0.7004 -3.88606,1.071769 -1.291,0.371369 -2.57785,0.756372 -3.86075,1.153935 -0.48492,0.150284 -0.96672,0.310769 -1.45056,0.464572 -0.7962,0.253047 -1.59353,0.502713 -2.38693,0.76481 -1.27554,0.421348 -2.54744,0.853834 -3.81631,1.296561 -1.26887,0.442701 -2.53478,0.895379 -3.7977,1.357024 -2.52583,0.92329 -5.04005,1.881979 -7.54631,2.866491 -2.50625,0.984517 -5.00436,1.995183 -7.4967,3.021523 -2.49234,1.026342 -4.97902,2.068342 -7.46311,3.117122 -4.96817,2.09757 -9.92555,4.22061 -14.8947,6.2916 -2.48457,1.03554 -4.97935,2.06021 -7.48533,3.06339 -1.99,0.79661 -3.99247,1.5665 -5.99653,2.33112 0.16575,0.12803 0.32469,0.26501 0.49144,0.3917 0.99934,0.75934 2.01663,1.49478 3.05356,2.20452 1.03693,0.70975 2.09342,1.39387 3.17035,2.05001 0.53847,0.32806 1.08199,0.64883 1.63091,0.96273 0.54892,0.31391 1.10327,0.6206 1.66295,0.91984 1.02408,0.54753 2.06053,1.066 3.10833,1.55649 1.04781,0.49048 2.10665,0.9531 3.17604,1.38803 1.06939,0.43492 2.14922,0.84234 3.23804,1.22318 1.08882,0.38085 2.18672,0.73524 3.29282,1.0635 1.10613,0.32825 2.22066,0.63026 3.34192,0.90744 1.12125,0.27717 2.24952,0.52946 3.38377,0.75706 1.13425,0.22759 2.27432,0.4308 3.41943,0.6103 1.14511,0.17949 2.29507,0.33529 3.44889,0.46819 1.15381,0.13288 2.31124,0.24292 3.47162,0.33073 1.16038,0.0878 2.32387,0.15321 3.48868,0.1974 1.16479,0.0442 2.3309,0.0667 3.49798,0.0687 1.16708,0.002 2.3349,-0.0162 3.5021,-0.0548 1.16721,-0.0386 2.33383,-0.097 3.49902,-0.17467 1.16518,-0.0777 2.32919,-0.17461 3.49022,-0.28991 1.16103,-0.11531 2.31949,-0.24907 3.47421,-0.40049 1.15472,-0.15145 2.30571,-0.32087 3.45198,-0.50694 1.14627,-0.18609 2.28857,-0.38777 3.4277,-0.60462 1.13913,-0.21688 2.27474,-0.44874 3.40703,-0.69453 1.13229,-0.24583 2.26165,-0.50584 3.38739,-0.77876 1.12573,-0.27293 2.24777,-0.55859 3.36724,-0.8568 1.11948,-0.29818 2.23616,-0.60854 3.34966,-0.93017 1.1135,-0.32163 2.22428,-0.65464 3.3321,-0.99788 1.10782,-0.34322 2.21261,-0.6969 3.31504,-1.05988 1.10243,-0.36301 2.20221,-0.73526 3.29954,-1.11621 2.19466,-0.76186 4.37966,-1.55763 6.55567,-2.38022 2.17602,-0.82257 4.34327,-1.67181 6.50297,-2.54041 2.15969,-0.86863 4.31179,-1.75676 6.45748,-2.65669 2.1457,-0.89996 4.28471,-1.81191 6.41873,-2.72851 2.86068,-1.22875 5.7208,-2.46869 8.59018,-3.6866 1.4347,-0.60896 2.8719,-1.21226 4.3124,-1.80609 1.44052,-0.59384 2.88432,-1.17834 4.33308,-1.74873 1.44875,-0.57039 2.90256,-1.12686 4.362,-1.66553 1.45944,-0.53866 2.92457,-1.05939 4.39713,-1.55805 1.47254,-0.498654 2.95244,-0.975375 4.44056,-1.425752 1.48809,-0.450344 2.98463,-0.874384 4.49069,-1.268137 0.75306,-0.196876 1.50932,-0.38577 2.26806,-0.566375 0.75872,-0.180631 1.51993,-0.352946 2.2836,-0.516247 0.76369,-0.163301 1.52968,-0.31759 2.29753,-0.462505 0.76788,-0.144886 1.5376,-0.28022 2.30891,-0.405659 0.77129,-0.125412 1.54422,-0.240834 2.3182,-0.345715 0.14605,-0.01979 0.29261,-0.03417 0.43874,-0.05323 v -3.924308 c -0.72814,-0.249476 -1.45378,-0.506482 -2.18541,-0.745691 -1.34236,-0.438867 -2.69034,-0.860319 -4.04368,-1.264523 -1.35337,-0.404178 -2.71182,-0.790829 -4.07519,-1.160137 -1.3634,-0.36933 -2.73164,-0.721472 -4.10416,-1.055749 -1.3725,-0.334277 -2.74929,-0.650761 -4.12997,-0.949812 -0.19859,-0.04302 -0.39864,-0.07916 -0.59737,-0.121441 -1.18303,-0.251685 -2.36763,-0.49671 -3.55587,-0.722437 -1.3879,-0.263644 -2.77921,-0.509873 -4.17338,-0.737938 -1.39414,-0.228066 -2.79096,-0.43815 -4.19044,-0.630452 -1.39946,-0.192302 -2.80157,-0.366609 -4.20542,-0.522965 -1.40387,-0.156363 -2.80952,-0.294727 -4.21681,-0.414962 -1.40729,-0.120237 -2.81633,-0.222507 -4.2261,-0.306443 -1.40977,-0.08393 -2.82048,-0.149434 -4.23178,-0.196887 -1.41132,-0.04745 -2.82299,-0.07706 -4.23489,-0.08785 -0.70595,-0.0054 -1.41178,-0.006 -2.1177,-0.0021 z" />
  </g>
  <script
     id="mesh_polyfill"
     type="text/javascript">
!function(){const t=&quot;http://www.w3.org/2000/svg&quot;,e=&quot;http://www.w3.org/1999/xlink&quot;,s=&quot;http://www.w3.org/1999/xhtml&quot;,r=2;if(document.createElementNS(t,&quot;meshgradient&quot;).x)return;const n=(t,e,s,r)=&gt;{let n=new x(.5*(e.x+s.x),.5*(e.y+s.y)),o=new x(.5*(t.x+e.x),.5*(t.y+e.y)),i=new x(.5*(s.x+r.x),.5*(s.y+r.y)),a=new x(.5*(n.x+o.x),.5*(n.y+o.y)),h=new x(.5*(n.x+i.x),.5*(n.y+i.y)),l=new x(.5*(a.x+h.x),.5*(a.y+h.y));return[[t,o,a,l],[l,h,i,r]]},o=t=&gt;{let e=t[0].distSquared(t[1]),s=t[2].distSquared(t[3]),r=.25*t[0].distSquared(t[2]),n=.25*t[1].distSquared(t[3]),o=e&gt;s?e:s,i=r&gt;n?r:n;return 18*(o&gt;i?o:i)},i=(t,e)=&gt;Math.sqrt(t.distSquared(e)),a=(t,e)=&gt;t.scale(2/3).add(e.scale(1/3)),h=t=&gt;{let e,s,r,n,o,i,a,h=new g;return t.match(/(\w+\(\s*[^)]+\))+/g).forEach(t=&gt;{let l=t.match(/[\w.-]+/g),d=l.shift();switch(d){case&quot;translate&quot;:2===l.length?e=new g(1,0,0,1,l[0],l[1]):(console.error(&quot;mesh.js: translate does not have 2 arguments!&quot;),e=new g(1,0,0,1,0,0)),h=h.append(e);break;case&quot;scale&quot;:1===l.length?s=new g(l[0],0,0,l[0],0,0):2===l.length?s=new g(l[0],0,0,l[1],0,0):(console.error(&quot;mesh.js: scale does not have 1 or 2 arguments!&quot;),s=new g(1,0,0,1,0,0)),h=h.append(s);break;case&quot;rotate&quot;:if(3===l.length&amp;&amp;(e=new g(1,0,0,1,l[1],l[2]),h=h.append(e)),l[0]){r=l[0]*Math.PI/180;let t=Math.cos(r),e=Math.sin(r);Math.abs(t)&lt;1e-16&amp;&amp;(t=0),Math.abs(e)&lt;1e-16&amp;&amp;(e=0),a=new g(t,e,-e,t,0,0),h=h.append(a)}else console.error(&quot;math.js: No argument to rotate transform!&quot;);3===l.length&amp;&amp;(e=new g(1,0,0,1,-l[1],-l[2]),h=h.append(e));break;case&quot;skewX&quot;:l[0]?(r=l[0]*Math.PI/180,n=Math.tan(r),o=new g(1,0,n,1,0,0),h=h.append(o)):console.error(&quot;math.js: No argument to skewX transform!&quot;);break;case&quot;skewY&quot;:l[0]?(r=l[0]*Math.PI/180,n=Math.tan(r),i=new g(1,n,0,1,0,0),h=h.append(i)):console.error(&quot;math.js: No argument to skewY transform!&quot;);break;case&quot;matrix&quot;:6===l.length?h=h.append(new g(...l)):console.error(&quot;math.js: Incorrect number of arguments for matrix!&quot;);break;default:console.error(&quot;mesh.js: Unhandled transform type: &quot;+d)}}),h},l=t=&gt;{let e=[],s=t.split(/[ ,]+/);for(let t=0,r=s.length-1;t&lt;r;t+=2)e.push(new x(parseFloat(s[t]),parseFloat(s[t+1])));return e},d=(t,e)=&gt;{for(let s in e)t.setAttribute(s,e[s])},c=(t,e,s,r,n)=&gt;{let o,i,a=[0,0,0,0];for(let h=0;h&lt;3;++h)e[h]&lt;t[h]&amp;&amp;e[h]&lt;s[h]||t[h]&lt;e[h]&amp;&amp;s[h]&lt;e[h]?a[h]=0:(a[h]=.5*((e[h]-t[h])/r+(s[h]-e[h])/n),o=Math.abs(3*(e[h]-t[h])/r),i=Math.abs(3*(s[h]-e[h])/n),a[h]&gt;o?a[h]=o:a[h]&gt;i&amp;&amp;(a[h]=i));return a},u=[[1,0,0,0,0,0,0,0,0,0,0,0,0,0,0,0],[0,0,0,0,1,0,0,0,0,0,0,0,0,0,0,0],[-3,3,0,0,-2,-1,0,0,0,0,0,0,0,0,0,0],[2,-2,0,0,1,1,0,0,0,0,0,0,0,0,0,0],[0,0,0,0,0,0,0,0,1,0,0,0,0,0,0,0],[0,0,0,0,0,0,0,0,0,0,0,0,1,0,0,0],[0,0,0,0,0,0,0,0,-3,3,0,0,-2,-1,0,0],[0,0,0,0,0,0,0,0,2,-2,0,0,1,1,0,0],[-3,0,3,0,0,0,0,0,-2,0,-1,0,0,0,0,0],[0,0,0,0,-3,0,3,0,0,0,0,0,-2,0,-1,0],[9,-9,-9,9,6,3,-6,-3,6,-6,3,-3,4,2,2,1],[-6,6,6,-6,-3,-3,3,3,-4,4,-2,2,-2,-2,-1,-1],[2,0,-2,0,0,0,0,0,1,0,1,0,0,0,0,0],[0,0,0,0,2,0,-2,0,0,0,0,0,1,0,1,0],[-6,6,6,-6,-4,-2,4,2,-3,3,-3,3,-2,-1,-2,-1],[4,-4,-4,4,2,2,-2,-2,2,-2,2,-2,1,1,1,1]],f=t=&gt;{let e=[];for(let s=0;s&lt;16;++s){e[s]=0;for(let r=0;r&lt;16;++r)e[s]+=u[s][r]*t[r]}return e},p=(t,e,s)=&gt;{const r=e*e,n=s*s,o=e*e*e,i=s*s*s;return t[0]+t[1]*e+t[2]*r+t[3]*o+t[4]*s+t[5]*s*e+t[6]*s*r+t[7]*s*o+t[8]*n+t[9]*n*e+t[10]*n*r+t[11]*n*o+t[12]*i+t[13]*i*e+t[14]*i*r+t[15]*i*o},y=t=&gt;{let e=[],s=[],r=[];for(let s=0;s&lt;4;++s)e[s]=[],e[s][0]=n(t[0][s],t[1][s],t[2][s],t[3][s]),e[s][1]=[],e[s][1].push(...n(...e[s][0][0])),e[s][1].push(...n(...e[s][0][1])),e[s][2]=[],e[s][2].push(...n(...e[s][1][0])),e[s][2].push(...n(...e[s][1][1])),e[s][2].push(...n(...e[s][1][2])),e[s][2].push(...n(...e[s][1][3]));for(let t=0;t&lt;8;++t){s[t]=[];for(let r=0;r&lt;4;++r)s[t][r]=[],s[t][r][0]=n(e[0][2][t][r],e[1][2][t][r],e[2][2][t][r],e[3][2][t][r]),s[t][r][1]=[],s[t][r][1].push(...n(...s[t][r][0][0])),s[t][r][1].push(...n(...s[t][r][0][1])),s[t][r][2]=[],s[t][r][2].push(...n(...s[t][r][1][0])),s[t][r][2].push(...n(...s[t][r][1][1])),s[t][r][2].push(...n(...s[t][r][1][2])),s[t][r][2].push(...n(...s[t][r][1][3]))}for(let t=0;t&lt;8;++t){r[t]=[];for(let e=0;e&lt;8;++e)r[t][e]=[],r[t][e][0]=s[t][0][2][e],r[t][e][1]=s[t][1][2][e],r[t][e][2]=s[t][2][2][e],r[t][e][3]=s[t][3][2][e]}return r};class x{constructor(t,e){this.x=t||0,this.y=e||0}toString(){return`(x=${this.x}, y=${this.y})`}clone(){return new x(this.x,this.y)}add(t){return new x(this.x+t.x,this.y+t.y)}scale(t){return void 0===t.x?new x(this.x*t,this.y*t):new x(this.x*t.x,this.y*t.y)}distSquared(t){let e=this.x-t.x,s=this.y-t.y;return e*e+s*s}transform(t){let e=this.x*t.a+this.y*t.c+t.e,s=this.x*t.b+this.y*t.d+t.f;return new x(e,s)}}class g{constructor(t,e,s,r,n,o){void 0===t?(this.a=1,this.b=0,this.c=0,this.d=1,this.e=0,this.f=0):(this.a=t,this.b=e,this.c=s,this.d=r,this.e=n,this.f=o)}toString(){return`affine: ${this.a} ${this.c} ${this.e} \n       ${this.b} ${this.d} ${this.f}`}append(t){t instanceof g||console.error(&quot;mesh.js: argument to Affine.append is not affine!&quot;);let e=this.a*t.a+this.c*t.b,s=this.b*t.a+this.d*t.b,r=this.a*t.c+this.c*t.d,n=this.b*t.c+this.d*t.d,o=this.a*t.e+this.c*t.f+this.e,i=this.b*t.e+this.d*t.f+this.f;return new g(e,s,r,n,o,i)}}class w{constructor(t,e){this.nodes=t,this.colors=e}paintCurve(t,e){if(o(this.nodes)&gt;r){const s=n(...this.nodes);let r=[[],[]],o=[[],[]];for(let t=0;t&lt;4;++t)r[0][t]=this.colors[0][t],r[1][t]=(this.colors[0][t]+this.colors[1][t])/2,o[0][t]=r[1][t],o[1][t]=this.colors[1][t];let i=new w(s[0],r),a=new w(s[1],o);i.paintCurve(t,e),a.paintCurve(t,e)}else{let s=Math.round(this.nodes[0].x);if(s&gt;=0&amp;&amp;s&lt;e){let r=4*(~~this.nodes[0].y*e+s);t[r]=Math.round(this.colors[0][0]),t[r+1]=Math.round(this.colors[0][1]),t[r+2]=Math.round(this.colors[0][2]),t[r+3]=Math.round(this.colors[0][3])}}}}class m{constructor(t,e){this.nodes=t,this.colors=e}split(){let t=[[],[],[],[]],e=[[],[],[],[]],s=[[[],[]],[[],[]]],r=[[[],[]],[[],[]]];for(let s=0;s&lt;4;++s){const r=n(this.nodes[0][s],this.nodes[1][s],this.nodes[2][s],this.nodes[3][s]);t[0][s]=r[0][0],t[1][s]=r[0][1],t[2][s]=r[0][2],t[3][s]=r[0][3],e[0][s]=r[1][0],e[1][s]=r[1][1],e[2][s]=r[1][2],e[3][s]=r[1][3]}for(let t=0;t&lt;4;++t)s[0][0][t]=this.colors[0][0][t],s[0][1][t]=this.colors[0][1][t],s[1][0][t]=(this.colors[0][0][t]+this.colors[1][0][t])/2,s[1][1][t]=(this.colors[0][1][t]+this.colors[1][1][t])/2,r[0][0][t]=s[1][0][t],r[0][1][t]=s[1][1][t],r[1][0][t]=this.colors[1][0][t],r[1][1][t]=this.colors[1][1][t];return[new m(t,s),new m(e,r)]}paint(t,e){let s,n=!1;for(let t=0;t&lt;4;++t)if((s=o([this.nodes[0][t],this.nodes[1][t],this.nodes[2][t],this.nodes[3][t]]))&gt;r){n=!0;break}if(n){let s=this.split();s[0].paint(t,e),s[1].paint(t,e)}else{new w([...this.nodes[0]],[...this.colors[0]]).paintCurve(t,e)}}}class b{constructor(t){this.readMesh(t),this.type=t.getAttribute(&quot;type&quot;)||&quot;bilinear&quot;}readMesh(t){let e=[[]],s=[[]],r=Number(t.getAttribute(&quot;x&quot;)),n=Number(t.getAttribute(&quot;y&quot;));e[0][0]=new x(r,n);let o=t.children;for(let t=0,r=o.length;t&lt;r;++t){e[3*t+1]=[],e[3*t+2]=[],e[3*t+3]=[],s[t+1]=[];let r=o[t].children;for(let n=0,o=r.length;n&lt;o;++n){let o=r[n].children;for(let r=0,i=o.length;r&lt;i;++r){let i=r;0!==t&amp;&amp;++i;let h,d=o[r].getAttribute(&quot;path&quot;),c=&quot;l&quot;;null!=d&amp;&amp;(c=(h=d.match(/\s*([lLcC])\s*(.*)/))[1]);let u=l(h[2]);switch(c){case&quot;l&quot;:0===i?(e[3*t][3*n+3]=u[0].add(e[3*t][3*n]),e[3*t][3*n+1]=a(e[3*t][3*n],e[3*t][3*n+3]),e[3*t][3*n+2]=a(e[3*t][3*n+3],e[3*t][3*n])):1===i?(e[3*t+3][3*n+3]=u[0].add(e[3*t][3*n+3]),e[3*t+1][3*n+3]=a(e[3*t][3*n+3],e[3*t+3][3*n+3]),e[3*t+2][3*n+3]=a(e[3*t+3][3*n+3],e[3*t][3*n+3])):2===i?(0===n&amp;&amp;(e[3*t+3][3*n+0]=u[0].add(e[3*t+3][3*n+3])),e[3*t+3][3*n+1]=a(e[3*t+3][3*n],e[3*t+3][3*n+3]),e[3*t+3][3*n+2]=a(e[3*t+3][3*n+3],e[3*t+3][3*n])):(e[3*t+1][3*n]=a(e[3*t][3*n],e[3*t+3][3*n]),e[3*t+2][3*n]=a(e[3*t+3][3*n],e[3*t][3*n]));break;case&quot;L&quot;:0===i?(e[3*t][3*n+3]=u[0],e[3*t][3*n+1]=a(e[3*t][3*n],e[3*t][3*n+3]),e[3*t][3*n+2]=a(e[3*t][3*n+3],e[3*t][3*n])):1===i?(e[3*t+3][3*n+3]=u[0],e[3*t+1][3*n+3]=a(e[3*t][3*n+3],e[3*t+3][3*n+3]),e[3*t+2][3*n+3]=a(e[3*t+3][3*n+3],e[3*t][3*n+3])):2===i?(0===n&amp;&amp;(e[3*t+3][3*n+0]=u[0]),e[3*t+3][3*n+1]=a(e[3*t+3][3*n],e[3*t+3][3*n+3]),e[3*t+3][3*n+2]=a(e[3*t+3][3*n+3],e[3*t+3][3*n])):(e[3*t+1][3*n]=a(e[3*t][3*n],e[3*t+3][3*n]),e[3*t+2][3*n]=a(e[3*t+3][3*n],e[3*t][3*n]));break;case&quot;c&quot;:0===i?(e[3*t][3*n+1]=u[0].add(e[3*t][3*n]),e[3*t][3*n+2]=u[1].add(e[3*t][3*n]),e[3*t][3*n+3]=u[2].add(e[3*t][3*n])):1===i?(e[3*t+1][3*n+3]=u[0].add(e[3*t][3*n+3]),e[3*t+2][3*n+3]=u[1].add(e[3*t][3*n+3]),e[3*t+3][3*n+3]=u[2].add(e[3*t][3*n+3])):2===i?(e[3*t+3][3*n+2]=u[0].add(e[3*t+3][3*n+3]),e[3*t+3][3*n+1]=u[1].add(e[3*t+3][3*n+3]),0===n&amp;&amp;(e[3*t+3][3*n+0]=u[2].add(e[3*t+3][3*n+3]))):(e[3*t+2][3*n]=u[0].add(e[3*t+3][3*n]),e[3*t+1][3*n]=u[1].add(e[3*t+3][3*n]));break;case&quot;C&quot;:0===i?(e[3*t][3*n+1]=u[0],e[3*t][3*n+2]=u[1],e[3*t][3*n+3]=u[2]):1===i?(e[3*t+1][3*n+3]=u[0],e[3*t+2][3*n+3]=u[1],e[3*t+3][3*n+3]=u[2]):2===i?(e[3*t+3][3*n+2]=u[0],e[3*t+3][3*n+1]=u[1],0===n&amp;&amp;(e[3*t+3][3*n+0]=u[2])):(e[3*t+2][3*n]=u[0],e[3*t+1][3*n]=u[1]);break;default:console.error(&quot;mesh.js: &quot;+c+&quot; invalid path type.&quot;)}if(0===t&amp;&amp;0===n||r&gt;0){let e=window.getComputedStyle(o[r]).stopColor.match(/^rgb\s*\(\s*(\d+)\s*,\s*(\d+)\s*,\s*(\d+)\s*\)$/i),a=window.getComputedStyle(o[r]).stopOpacity,h=255;a&amp;&amp;(h=Math.floor(255*a)),e&amp;&amp;(0===i?(s[t][n]=[],s[t][n][0]=Math.floor(e[1]),s[t][n][1]=Math.floor(e[2]),s[t][n][2]=Math.floor(e[3]),s[t][n][3]=h):1===i?(s[t][n+1]=[],s[t][n+1][0]=Math.floor(e[1]),s[t][n+1][1]=Math.floor(e[2]),s[t][n+1][2]=Math.floor(e[3]),s[t][n+1][3]=h):2===i?(s[t+1][n+1]=[],s[t+1][n+1][0]=Math.floor(e[1]),s[t+1][n+1][1]=Math.floor(e[2]),s[t+1][n+1][2]=Math.floor(e[3]),s[t+1][n+1][3]=h):3===i&amp;&amp;(s[t+1][n]=[],s[t+1][n][0]=Math.floor(e[1]),s[t+1][n][1]=Math.floor(e[2]),s[t+1][n][2]=Math.floor(e[3]),s[t+1][n][3]=h))}}e[3*t+1][3*n+1]=new x,e[3*t+1][3*n+2]=new x,e[3*t+2][3*n+1]=new x,e[3*t+2][3*n+2]=new x,e[3*t+1][3*n+1].x=(-4*e[3*t][3*n].x+6*(e[3*t][3*n+1].x+e[3*t+1][3*n].x)+-2*(e[3*t][3*n+3].x+e[3*t+3][3*n].x)+3*(e[3*t+3][3*n+1].x+e[3*t+1][3*n+3].x)+-1*e[3*t+3][3*n+3].x)/9,e[3*t+1][3*n+2].x=(-4*e[3*t][3*n+3].x+6*(e[3*t][3*n+2].x+e[3*t+1][3*n+3].x)+-2*(e[3*t][3*n].x+e[3*t+3][3*n+3].x)+3*(e[3*t+3][3*n+2].x+e[3*t+1][3*n].x)+-1*e[3*t+3][3*n].x)/9,e[3*t+2][3*n+1].x=(-4*e[3*t+3][3*n].x+6*(e[3*t+3][3*n+1].x+e[3*t+2][3*n].x)+-2*(e[3*t+3][3*n+3].x+e[3*t][3*n].x)+3*(e[3*t][3*n+1].x+e[3*t+2][3*n+3].x)+-1*e[3*t][3*n+3].x)/9,e[3*t+2][3*n+2].x=(-4*e[3*t+3][3*n+3].x+6*(e[3*t+3][3*n+2].x+e[3*t+2][3*n+3].x)+-2*(e[3*t+3][3*n].x+e[3*t][3*n+3].x)+3*(e[3*t][3*n+2].x+e[3*t+2][3*n].x)+-1*e[3*t][3*n].x)/9,e[3*t+1][3*n+1].y=(-4*e[3*t][3*n].y+6*(e[3*t][3*n+1].y+e[3*t+1][3*n].y)+-2*(e[3*t][3*n+3].y+e[3*t+3][3*n].y)+3*(e[3*t+3][3*n+1].y+e[3*t+1][3*n+3].y)+-1*e[3*t+3][3*n+3].y)/9,e[3*t+1][3*n+2].y=(-4*e[3*t][3*n+3].y+6*(e[3*t][3*n+2].y+e[3*t+1][3*n+3].y)+-2*(e[3*t][3*n].y+e[3*t+3][3*n+3].y)+3*(e[3*t+3][3*n+2].y+e[3*t+1][3*n].y)+-1*e[3*t+3][3*n].y)/9,e[3*t+2][3*n+1].y=(-4*e[3*t+3][3*n].y+6*(e[3*t+3][3*n+1].y+e[3*t+2][3*n].y)+-2*(e[3*t+3][3*n+3].y+e[3*t][3*n].y)+3*(e[3*t][3*n+1].y+e[3*t+2][3*n+3].y)+-1*e[3*t][3*n+3].y)/9,e[3*t+2][3*n+2].y=(-4*e[3*t+3][3*n+3].y+6*(e[3*t+3][3*n+2].y+e[3*t+2][3*n+3].y)+-2*(e[3*t+3][3*n].y+e[3*t][3*n+3].y)+3*(e[3*t][3*n+2].y+e[3*t+2][3*n].y)+-1*e[3*t][3*n].y)/9}}this.nodes=e,this.colors=s}paintMesh(t,e){let s=(this.nodes.length-1)/3,r=(this.nodes[0].length-1)/3;if(&quot;bilinear&quot;===this.type||s&lt;2||r&lt;2){let n;for(let o=0;o&lt;s;++o)for(let s=0;s&lt;r;++s){let r=[];for(let t=3*o,e=3*o+4;t&lt;e;++t)r.push(this.nodes[t].slice(3*s,3*s+4));let i=[];i.push(this.colors[o].slice(s,s+2)),i.push(this.colors[o+1].slice(s,s+2)),(n=new m(r,i)).paint(t,e)}}else{let n,o,a,h,l,d,u;const x=s,g=r;s++,r++;let w=new Array(s);for(let t=0;t&lt;s;++t){w[t]=new Array(r);for(let e=0;e&lt;r;++e)w[t][e]=[],w[t][e][0]=this.nodes[3*t][3*e],w[t][e][1]=this.colors[t][e]}for(let t=0;t&lt;s;++t)for(let e=0;e&lt;r;++e)0!==t&amp;&amp;t!==x&amp;&amp;(n=i(w[t-1][e][0],w[t][e][0]),o=i(w[t+1][e][0],w[t][e][0]),w[t][e][2]=c(w[t-1][e][1],w[t][e][1],w[t+1][e][1],n,o)),0!==e&amp;&amp;e!==g&amp;&amp;(n=i(w[t][e-1][0],w[t][e][0]),o=i(w[t][e+1][0],w[t][e][0]),w[t][e][3]=c(w[t][e-1][1],w[t][e][1],w[t][e+1][1],n,o));for(let t=0;t&lt;r;++t){w[0][t][2]=[],w[x][t][2]=[];for(let e=0;e&lt;4;++e)n=i(w[1][t][0],w[0][t][0]),o=i(w[x][t][0],w[x-1][t][0]),w[0][t][2][e]=n&gt;0?2*(w[1][t][1][e]-w[0][t][1][e])/n-w[1][t][2][e]:0,w[x][t][2][e]=o&gt;0?2*(w[x][t][1][e]-w[x-1][t][1][e])/o-w[x-1][t][2][e]:0}for(let t=0;t&lt;s;++t){w[t][0][3]=[],w[t][g][3]=[];for(let e=0;e&lt;4;++e)n=i(w[t][1][0],w[t][0][0]),o=i(w[t][g][0],w[t][g-1][0]),w[t][0][3][e]=n&gt;0?2*(w[t][1][1][e]-w[t][0][1][e])/n-w[t][1][3][e]:0,w[t][g][3][e]=o&gt;0?2*(w[t][g][1][e]-w[t][g-1][1][e])/o-w[t][g-1][3][e]:0}for(let s=0;s&lt;x;++s)for(let r=0;r&lt;g;++r){let n=i(w[s][r][0],w[s+1][r][0]),o=i(w[s][r+1][0],w[s+1][r+1][0]),c=i(w[s][r][0],w[s][r+1][0]),x=i(w[s+1][r][0],w[s+1][r+1][0]),g=[[],[],[],[]];for(let t=0;t&lt;4;++t){(d=[])[0]=w[s][r][1][t],d[1]=w[s+1][r][1][t],d[2]=w[s][r+1][1][t],d[3]=w[s+1][r+1][1][t],d[4]=w[s][r][2][t]*n,d[5]=w[s+1][r][2][t]*n,d[6]=w[s][r+1][2][t]*o,d[7]=w[s+1][r+1][2][t]*o,d[8]=w[s][r][3][t]*c,d[9]=w[s+1][r][3][t]*x,d[10]=w[s][r+1][3][t]*c,d[11]=w[s+1][r+1][3][t]*x,d[12]=0,d[13]=0,d[14]=0,d[15]=0,u=f(d);for(let e=0;e&lt;9;++e){g[t][e]=[];for(let s=0;s&lt;9;++s)g[t][e][s]=p(u,e/8,s/8),g[t][e][s]&gt;255?g[t][e][s]=255:g[t][e][s]&lt;0&amp;&amp;(g[t][e][s]=0)}}h=[];for(let t=3*s,e=3*s+4;t&lt;e;++t)h.push(this.nodes[t].slice(3*r,3*r+4));l=y(h);for(let s=0;s&lt;8;++s)for(let r=0;r&lt;8;++r)(a=new m(l[s][r],[[[g[0][s][r],g[1][s][r],g[2][s][r],g[3][s][r]],[g[0][s][r+1],g[1][s][r+1],g[2][s][r+1],g[3][s][r+1]]],[[g[0][s+1][r],g[1][s+1][r],g[2][s+1][r],g[3][s+1][r]],[g[0][s+1][r+1],g[1][s+1][r+1],g[2][s+1][r+1],g[3][s+1][r+1]]]])).paint(t,e)}}}transform(t){if(t instanceof x)for(let e=0,s=this.nodes.length;e&lt;s;++e)for(let s=0,r=this.nodes[0].length;s&lt;r;++s)this.nodes[e][s]=this.nodes[e][s].add(t);else if(t instanceof g)for(let e=0,s=this.nodes.length;e&lt;s;++e)for(let s=0,r=this.nodes[0].length;s&lt;r;++s)this.nodes[e][s]=this.nodes[e][s].transform(t)}scale(t){for(let e=0,s=this.nodes.length;e&lt;s;++e)for(let s=0,r=this.nodes[0].length;s&lt;r;++s)this.nodes[e][s]=this.nodes[e][s].scale(t)}}document.querySelectorAll(&quot;rect,circle,ellipse,path,text&quot;).forEach((r,n)=&gt;{let o=r.getAttribute(&quot;id&quot;);o||(o=&quot;patchjs_shape&quot;+n,r.setAttribute(&quot;id&quot;,o));const i=r.style.fill.match(/^url\(\s*&quot;?\s*#([^\s&quot;]+)&quot;?\s*\)/),a=r.style.stroke.match(/^url\(\s*&quot;?\s*#([^\s&quot;]+)&quot;?\s*\)/);if(i&amp;&amp;i[1]){const a=document.getElementById(i[1]);if(a&amp;&amp;&quot;meshgradient&quot;===a.nodeName){const i=r.getBBox();let l=document.createElementNS(s,&quot;canvas&quot;);d(l,{width:i.width,height:i.height});const c=l.getContext(&quot;2d&quot;);let u=c.createImageData(i.width,i.height);const f=new b(a);&quot;objectBoundingBox&quot;===a.getAttribute(&quot;gradientUnits&quot;)&amp;&amp;f.scale(new x(i.width,i.height));const p=a.getAttribute(&quot;gradientTransform&quot;);null!=p&amp;&amp;f.transform(h(p)),&quot;userSpaceOnUse&quot;===a.getAttribute(&quot;gradientUnits&quot;)&amp;&amp;f.transform(new x(-i.x,-i.y)),f.paintMesh(u.data,l.width),c.putImageData(u,0,0);const y=document.createElementNS(t,&quot;image&quot;);d(y,{width:i.width,height:i.height,x:i.x,y:i.y});let g=l.toDataURL();y.setAttributeNS(e,&quot;xlink:href&quot;,g),r.parentNode.insertBefore(y,r),r.style.fill=&quot;none&quot;;const w=document.createElementNS(t,&quot;use&quot;);w.setAttributeNS(e,&quot;xlink:href&quot;,&quot;#&quot;+o);const m=&quot;patchjs_clip&quot;+n,M=document.createElementNS(t,&quot;clipPath&quot;);M.setAttribute(&quot;id&quot;,m),M.appendChild(w),r.parentElement.insertBefore(M,r),y.setAttribute(&quot;clip-path&quot;,&quot;url(#&quot;+m+&quot;)&quot;),u=null,l=null,g=null}}if(a&amp;&amp;a[1]){const o=document.getElementById(a[1]);if(o&amp;&amp;&quot;meshgradient&quot;===o.nodeName){const i=parseFloat(r.style.strokeWidth.slice(0,-2))*(parseFloat(r.style.strokeMiterlimit)||parseFloat(r.getAttribute(&quot;stroke-miterlimit&quot;))||1),a=r.getBBox(),l=Math.trunc(a.width+i),c=Math.trunc(a.height+i),u=Math.trunc(a.x-i/2),f=Math.trunc(a.y-i/2);let p=document.createElementNS(s,&quot;canvas&quot;);d(p,{width:l,height:c});const y=p.getContext(&quot;2d&quot;);let g=y.createImageData(l,c);const w=new b(o);&quot;objectBoundingBox&quot;===o.getAttribute(&quot;gradientUnits&quot;)&amp;&amp;w.scale(new x(l,c));const m=o.getAttribute(&quot;gradientTransform&quot;);null!=m&amp;&amp;w.transform(h(m)),&quot;userSpaceOnUse&quot;===o.getAttribute(&quot;gradientUnits&quot;)&amp;&amp;w.transform(new x(-u,-f)),w.paintMesh(g.data,p.width),y.putImageData(g,0,0);const M=document.createElementNS(t,&quot;image&quot;);d(M,{width:l,height:c,x:0,y:0});let S=p.toDataURL();M.setAttributeNS(e,&quot;xlink:href&quot;,S);const k=&quot;pattern_clip&quot;+n,A=document.createElementNS(t,&quot;pattern&quot;);d(A,{id:k,patternUnits:&quot;userSpaceOnUse&quot;,width:l,height:c,x:u,y:f}),A.appendChild(M),o.parentNode.appendChild(A),r.style.stroke=&quot;url(#&quot;+k+&quot;)&quot;,g=null,p=null,S=null}}})}();
</script>
</svg>
