<?xml version="1.0" encoding="UTF-8" standalone="no"?>
<svg
   width="400"
   height="400"
   viewBox="0 0 800 800"
   version="1.1"
   id="svg18"
   sodipodi:docname="showcase.svg"
   inkscape:version="1.4.2 (ebf0e940, 2025-05-08)"
   xmlns:inkscape="http://www.inkscape.org/namespaces/inkscape"
   xmlns:sodipodi="http://sodipodi.sourceforge.net/DTD/sodipodi-0.dtd"
   xmlns="http://www.w3.org/2000/svg"
   xmlns:svg="http://www.w3.org/2000/svg">
  <defs
     id="defs18" />
  <sodipodi:namedview
     id="namedview18"
     pagecolor="#ffffff"
     bordercolor="#000000"
     borderopacity="0.25"
     inkscape:showpageshadow="2"
     inkscape:pageopacity="0.0"
     inkscape:pagecheckerboard="0"
     inkscape:deskcolor="#d1d1d1"
     showgrid="false"
     inkscape:zoom="0.76178256"
     inkscape:cx="86.638896"
     inkscape:cy="3.9381317"
     inkscape:window-width="1728"
     inkscape:window-height="1051"
     inkscape:window-x="0"
     inkscape:window-y="38"
     inkscape:window-maximized="0"
     inkscape:current-layer="svg18" />
  <rect
     fill="#330033"
     width="800"
     height="800"
     id="rect1"
     style="fill:#072352;fill-opacity:1" />
  <g
     fill="none"
     stroke="#404"
     stroke-width="1"
     id="g5"
     style="stroke:#c3ecef;stroke-opacity:1">
    <path
       d="M769 229L1037 260.9M927 880L731 737 520 660 309 538 40 599 295 764 126.5 879.5 40 599-197 493 102 382-31 229 126.5 79.5-69-63"
       id="path1"
       style="stroke:#c3ecef;stroke-opacity:1" />
    <path
       d="M-31 229L237 261 390 382 603 493 308.5 537.5 101.5 381.5M370 905L295 764"
       id="path2"
       style="stroke:#c3ecef;stroke-opacity:1" />
    <path
       d="M520 660L578 842 731 737 840 599 603 493 520 660 295 764 309 538 390 382 539 269 769 229 577.5 41.5 370 105 295 -36 126.5 79.5 237 261 102 382 40 599 -69 737 127 880"
       id="path3"
       style="stroke:#c3ecef;stroke-opacity:1" />
    <path
       d="M520-140L578.5 42.5 731-63M603 493L539 269 237 261 370 105M902 382L539 269M390 382L102 382"
       id="path4"
       style="stroke:#c3ecef;stroke-opacity:1" />
    <path
       d="M-222 42L126.5 79.5 370 105 539 269 577.5 41.5 927 80 769 229 902 382 603 493 731 737M295-36L577.5 41.5M578 842L295 764M40-201L127 80M102 382L-261 269"
       id="path5"
       style="stroke:#c3ecef;stroke-opacity:1" />
  </g>
  <g
     fill="#505"
     id="g18"
     style="fill:#c3ecef;fill-opacity:1">
    <circle
       cx="769"
       cy="229"
       r="5"
       id="circle5"
       style="fill:#c3ecef;fill-opacity:1" />
    <circle
       cx="539"
       cy="269"
       r="5"
       id="circle6"
       style="fill:#c3ecef;fill-opacity:1" />
    <circle
       cx="603"
       cy="493"
       r="5"
       id="circle7"
       style="fill:#c3ecef;fill-opacity:1" />
    <circle
       cx="731"
       cy="737"
       r="5"
       id="circle8"
       style="fill:#c3ecef;fill-opacity:1" />
    <circle
       cx="520"
       cy="660"
       r="5"
       id="circle9"
       style="fill:#c3ecef;fill-opacity:1" />
    <circle
       cx="309"
       cy="538"
       r="5"
       id="circle10"
       style="fill:#c3ecef;fill-opacity:1" />
    <circle
       cx="295"
       cy="764"
       r="5"
       id="circle11"
       style="fill:#c3ecef;fill-opacity:1" />
    <circle
       cx="40"
       cy="599"
       r="5"
       id="circle12"
       style="fill:#c3ecef;fill-opacity:1" />
    <circle
       cx="102"
       cy="382"
       r="5"
       id="circle13"
       style="fill:#c3ecef;fill-opacity:1" />
    <circle
       cx="127"
       cy="80"
       r="5"
       id="circle14"
       style="fill:#c3ecef;fill-opacity:1" />
    <circle
       cx="370"
       cy="105"
       r="5"
       id="circle15"
       style="fill:#c3ecef;fill-opacity:1" />
    <circle
       cx="578"
       cy="42"
       r="5"
       id="circle16"
       style="fill:#c3ecef;fill-opacity:1" />
    <circle
       cx="237"
       cy="261"
       r="5"
       id="circle17"
       style="fill:#c3ecef;fill-opacity:1" />
    <circle
       cx="390"
       cy="382"
       r="5"
       id="circle18"
       style="fill:#c3ecef;fill-opacity:1" />
  </g>
</svg>
