<?xml version="1.0" encoding="UTF-8" standalone="no"?>
<!-- Created with Inkscape (http://www.inkscape.org/) -->

<svg
   width="300mm"
   height="140mm"
   viewBox="0 0 300 140"
   version="1.1"
   id="svg5"
   inkscape:version="1.1.2 (b8e25be8, 2022-02-05)"
   sodipodi:docname="showcase.svg"
   xmlns:inkscape="http://www.inkscape.org/namespaces/inkscape"
   xmlns:sodipodi="http://sodipodi.sourceforge.net/DTD/sodipodi-0.dtd"
   xmlns="http://www.w3.org/2000/svg"
   xmlns:svg="http://www.w3.org/2000/svg">
  <sodipodi:namedview
     id="namedview7"
     pagecolor="#ffffff"
     bordercolor="#666666"
     borderopacity="1.0"
     inkscape:pageshadow="2"
     inkscape:pageopacity="0.0"
     inkscape:pagecheckerboard="false"
     inkscape:document-units="mm"
     showgrid="false"
     showborder="true"
     inkscape:zoom="0.18110548"
     inkscape:cx="317.49454"
     inkscape:cy="110.43288"
     inkscape:window-width="1440"
     inkscape:window-height="900"
     inkscape:window-x="0"
     inkscape:window-y="0"
     inkscape:window-maximized="0"
     inkscape:current-layer="layer1"
     inkscape:snap-global="false"
     showguides="false" />
  <defs
     id="defs2">
    <inkscape:path-effect
       effect="spiro"
       id="path-effect34272"
       is_visible="true"
       lpeversion="1" />
    <inkscape:path-effect
       effect="spiro"
       id="path-effect34235"
       is_visible="true"
       lpeversion="1" />
    <inkscape:path-effect
       effect="spiro"
       id="path-effect34198"
       is_visible="true"
       lpeversion="1" />
    <inkscape:path-effect
       effect="spiro"
       id="path-effect34161"
       is_visible="true"
       lpeversion="1" />
    <inkscape:path-effect
       effect="spiro"
       id="path-effect33912"
       is_visible="true"
       lpeversion="1" />
    <inkscape:path-effect
       effect="spiro"
       id="path-effect5260"
       is_visible="true"
       lpeversion="1" />
    <inkscape:path-effect
       effect="spiro"
       id="path-effect2604"
       is_visible="true"
       lpeversion="1" />
    <inkscape:path-effect
       effect="spiro"
       id="path-effect2567"
       is_visible="true"
       lpeversion="1" />
    <inkscape:path-effect
       effect="spiro"
       id="path-effect2240"
       is_visible="true"
       lpeversion="1" />
    <inkscape:path-effect
       effect="curvestitching"
       id="path-effect20586"
       is_visible="true"
       lpeversion="1"
       count="58"
       startpoint_edge_variation="0;1"
       startpoint_spacing_variation="0;1"
       endpoint_edge_variation="0;1"
       endpoint_spacing_variation="0;1"
       strokepath="M 0,0 H 1"
       prop_scale="1"
       scale_y_rel="false" />
    <inkscape:path-effect
       effect="rough_hatches"
       id="path-effect20444"
       is_visible="true"
       lpeversion="1"
       direction="1896.0215,249.34374 , 141.4668,0"
       dist_rdm="75.8;1"
       growth="0"
       do_bend="true"
       bender="1896.0215,254.34374 , 5,0"
       bottom_edge_variation="56.99;1"
       top_edge_variation="56.586718;1"
       bottom_tgt_variation="0;1"
       top_tgt_variation="0;1"
       scale_bf="1"
       scale_bb="1"
       scale_tf="1"
       scale_tb="1"
       top_smth_variation="0;1"
       bottom_smth_variation="0;1"
       fat_output="true"
       stroke_width_top="1"
       stroke_width_bottom="1"
       front_thickness="1"
       back_thickness="0.25" />
    <inkscape:path-effect
       effect="rough_hatches"
       id="path-effect20416"
       is_visible="true"
       lpeversion="1"
       direction="1896.0215,249.34374 , 141.4668,0"
       dist_rdm="75.8;1"
       growth="0"
       do_bend="true"
       bender="1896.0215,254.34374 , 5,0"
       bottom_edge_variation="56.99;1"
       top_edge_variation="56.586718;1"
       bottom_tgt_variation="0;1"
       top_tgt_variation="0;1"
       scale_bf="1"
       scale_bb="1.3"
       scale_tf="1"
       scale_tb="1"
       top_smth_variation="0;1"
       bottom_smth_variation="0;1"
       fat_output="true"
       stroke_width_top="1"
       stroke_width_bottom="1"
       front_thickness="1"
       back_thickness="0.25" />
    <inkscape:path-effect
       effect="spiro"
       id="path-effect19639"
       is_visible="true"
       lpeversion="1" />
    <inkscape:path-effect
       effect="spiro"
       id="path-effect19602"
       is_visible="true"
       lpeversion="1" />
    <filter
       inkscape:collect="always"
       style="color-interpolation-filters:sRGB"
       id="filter64210"
       x="-0.030898409"
       y="-0.10749748"
       width="1.0617968"
       height="1.214995">
      <feGaussianBlur
         inkscape:collect="always"
         stdDeviation="2.1108235"
         id="feGaussianBlur64212" />
    </filter>
    <filter
       inkscape:collect="always"
       style="color-interpolation-filters:sRGB"
       id="filter64234"
       x="-0.030746579"
       y="-0.10937662"
       width="1.0614932"
       height="1.2187532">
      <feGaussianBlur
         inkscape:collect="always"
         stdDeviation="14.525957"
         id="feGaussianBlur64236" />
    </filter>
    <filter
       inkscape:collect="always"
       style="color-interpolation-filters:sRGB"
       id="filter64258"
       x="-0.033329736"
       y="-0.085738072"
       width="1.0666595"
       height="1.1714761">
      <feGaussianBlur
         inkscape:collect="always"
         stdDeviation="2.7752488"
         id="feGaussianBlur64260" />
    </filter>
    <filter
       inkscape:collect="always"
       style="color-interpolation-filters:sRGB"
       id="filter64282"
       x="-0.044562226"
       y="-0.052012534"
       width="1.0891245"
       height="1.1040251">
      <feGaussianBlur
         inkscape:collect="always"
         stdDeviation="1.4810086"
         id="feGaussianBlur64284" />
    </filter>
  </defs>
  <g
     inkscape:label="Layer 1"
     inkscape:groupmode="layer"
     id="layer1">
    <path
       id="path64190"
       style="opacity:1;fill:#000000;fill-opacity:1;stroke:none;stroke-width:0.396875;filter:url(#filter64210)"
       d="m 245.58087,82.397554 c -0.70592,0.0039 -1.41192,0.01229 -2.1177,0.02532 -1.41155,0.02605 -2.82256,0.07025 -4.23282,0.133326 -1.41024,0.06307 -2.81963,0.144674 -4.22764,0.244946 -1.408,0.100274 -2.81457,0.219429 -4.21938,0.357084 -1.40482,0.137655 -2.80786,0.294008 -4.20853,0.469223 -1.40068,0.175209 -2.79899,0.369435 -4.19458,0.582393 -1.39559,0.212955 -2.78848,0.444687 -4.17804,0.695563 -1.38956,0.250875 -2.77582,0.520798 -4.1584,0.80977 -1.38258,0.288975 -2.76153,0.596723 -4.13618,0.923975 -1.30928,0.311688 -2.61368,0.639631 -3.91346,0.982369 -1.29978,0.342744 -2.59508,0.7004 -3.88606,1.071769 -1.291,0.371369 -2.57785,0.756372 -3.86075,1.153935 -0.48492,0.150284 -0.96672,0.310769 -1.45056,0.464572 -0.7962,0.253047 -1.59353,0.502713 -2.38693,0.76481 -1.27554,0.421348 -2.54744,0.853834 -3.81631,1.296561 -1.26887,0.442701 -2.53478,0.895379 -3.7977,1.357024 -2.52583,0.92329 -5.04005,1.881979 -7.54631,2.866491 -2.50625,0.984517 -5.00436,1.995183 -7.4967,3.021523 -2.49234,1.026342 -4.97902,2.068342 -7.46311,3.117122 -4.96817,2.09757 -9.92555,4.22061 -14.8947,6.2916 -2.48457,1.03554 -4.97935,2.06021 -7.48533,3.06339 -1.99,0.79661 -3.99247,1.5665 -5.99653,2.33112 0.16575,0.12803 0.32469,0.26501 0.49144,0.3917 0.99934,0.75934 2.01663,1.49478 3.05356,2.20452 1.03693,0.70975 2.09342,1.39387 3.17035,2.05001 0.53847,0.32806 1.08199,0.64883 1.63091,0.96273 0.54892,0.31391 1.10327,0.6206 1.66295,0.91984 1.02408,0.54753 2.06053,1.066 3.10833,1.55649 1.04781,0.49048 2.10665,0.9531 3.17604,1.38803 1.06939,0.43492 2.14922,0.84234 3.23804,1.22318 1.08882,0.38085 2.18672,0.73524 3.29282,1.0635 1.10613,0.32825 2.22066,0.63026 3.34192,0.90744 1.12125,0.27717 2.24952,0.52946 3.38377,0.75706 1.13425,0.22759 2.27432,0.4308 3.41943,0.6103 1.14511,0.17949 2.29507,0.33529 3.44889,0.46819 1.15381,0.13288 2.31124,0.24292 3.47162,0.33073 1.16038,0.0878 2.32387,0.15321 3.48868,0.1974 1.16479,0.0442 2.3309,0.0667 3.49798,0.0687 1.16708,0.002 2.3349,-0.0162 3.5021,-0.0548 1.16721,-0.0386 2.33383,-0.097 3.49902,-0.17467 1.16518,-0.0777 2.32919,-0.17461 3.49022,-0.28991 1.16103,-0.11531 2.31949,-0.24907 3.47421,-0.40049 1.15472,-0.15145 2.30571,-0.32087 3.45198,-0.50694 1.14627,-0.18609 2.28857,-0.38777 3.4277,-0.60462 1.13913,-0.21688 2.27474,-0.44874 3.40703,-0.69453 1.13229,-0.24583 2.26165,-0.50584 3.38739,-0.77876 1.12573,-0.27293 2.24777,-0.55859 3.36724,-0.8568 1.11948,-0.29818 2.23616,-0.60854 3.34966,-0.93017 1.1135,-0.32163 2.22428,-0.65464 3.3321,-0.99788 1.10782,-0.34322 2.21261,-0.6969 3.31504,-1.05988 1.10243,-0.36301 2.20221,-0.73526 3.29954,-1.11621 2.19466,-0.76186 4.37966,-1.55763 6.55567,-2.38022 2.17602,-0.82257 4.34327,-1.67181 6.50297,-2.54041 2.15969,-0.86863 4.31179,-1.75676 6.45748,-2.65669 2.1457,-0.89996 4.28471,-1.81191 6.41873,-2.72851 2.86068,-1.22875 5.7208,-2.46869 8.59018,-3.6866 1.4347,-0.60896 2.8719,-1.21226 4.3124,-1.80609 1.44052,-0.59384 2.88432,-1.17834 4.33308,-1.74873 1.44875,-0.57039 2.90256,-1.12686 4.362,-1.66553 1.45944,-0.53866 2.92457,-1.05939 4.39713,-1.55805 1.47254,-0.498654 2.95244,-0.975375 4.44056,-1.425752 1.48809,-0.450344 2.98463,-0.874384 4.49069,-1.268137 0.75306,-0.196876 1.50932,-0.38577 2.26806,-0.566375 0.75872,-0.180631 1.51993,-0.352946 2.2836,-0.516247 0.76369,-0.163301 1.52968,-0.31759 2.29753,-0.462505 0.76788,-0.144886 1.5376,-0.28022 2.30891,-0.405659 0.77129,-0.125412 1.54422,-0.240834 2.3182,-0.345715 0.14605,-0.01979 0.29261,-0.03417 0.43874,-0.05323 v -3.924308 c -0.72814,-0.249476 -1.45378,-0.506482 -2.18541,-0.745691 -1.34236,-0.438867 -2.69034,-0.860319 -4.04368,-1.264523 -1.35337,-0.404178 -2.71182,-0.790829 -4.07519,-1.160137 -1.3634,-0.36933 -2.73164,-0.721472 -4.10416,-1.055749 -1.3725,-0.334277 -2.74929,-0.650761 -4.12997,-0.949812 -0.19859,-0.04302 -0.39864,-0.07916 -0.59737,-0.121441 -1.18303,-0.251685 -2.36763,-0.49671 -3.55587,-0.722437 -1.3879,-0.263644 -2.77921,-0.509873 -4.17338,-0.737938 -1.39414,-0.228066 -2.79096,-0.43815 -4.19044,-0.630452 -1.39946,-0.192302 -2.80157,-0.366609 -4.20542,-0.522965 -1.40387,-0.156363 -2.80952,-0.294727 -4.21681,-0.414962 -1.40729,-0.120237 -2.81633,-0.222507 -4.2261,-0.306443 -1.40977,-0.08393 -2.82048,-0.149434 -4.23178,-0.196887 -1.41132,-0.04745 -2.82299,-0.07706 -4.23489,-0.08785 -0.70595,-0.0054 -1.41178,-0.006 -2.1177,-0.0021 z" />
    <path
       id="path64262"
       style="opacity:1;fill:#000000;fill-opacity:1;stroke:none;stroke-width:0.396875;filter:url(#filter64282)"
       d="m 31.78824,26.698628 c -0.361413,-0.0012 -0.722797,7.75e-4 -1.08417,0.0057 -0.722749,0.0098 -1.445226,0.03176 -2.167311,0.06615 -0.722082,0.0344 -1.443288,0.08108 -2.163693,0.140042 -0.720404,0.05896 -1.440044,0.130148 -2.158007,0.213423 -0.717965,0.08328 -1.434461,0.178946 -2.149223,0.28629 -0.714761,0.107339 -1.427575,0.226444 -2.138371,0.3576 -0.710794,0.131157 -1.419384,0.274188 -2.125451,0.428913 -0.706066,0.154729 -1.409888,0.321149 -2.110465,0.499195 -0.700577,0.178046 -1.398055,0.36784 -2.092379,0.568958 -0.694324,0.20112 -1.385434,0.413744 -2.072742,0.637688 -0.68731,0.223943 -1.370989,0.459382 -2.0505207,0.7059 -0.6795318,0.246518 -1.3547239,0.504235 -2.0257162,0.773078 -0.6709923,0.268846 -1.3376706,0.54882 -1.9993612,0.839743 -0.6616904,0.290922 -1.3182791,0.592619 -1.9699055,0.905369 -0.6516266,0.312754 -1.2980998,0.636149 -1.9388997,0.970484 -0.56275847,0.293616 -1.11942658,0.598908 -1.67328286,0.908989 v 45.725355 11.540897 c 0.49582337,0.320757 0.98755319,0.647925 1.48983156,0.958598 0.8803186,0.54446 1.7701242,1.073135 2.6690876,1.58595 0.1321922,0.07541 0.2679121,0.144391 0.4004924,0.219109 1.3934292,-1.233223 2.7984693,-2.453436 4.2162801,-3.658692 1.4494425,-1.232138 2.9115115,-2.449513 4.3857785,-3.651973 1.474267,-1.202462 2.960734,-2.390235 4.459159,-3.562574 1.498427,-1.172337 3.008555,-2.329326 4.530473,-3.471106 1.52192,-1.141778 3.05549,-2.268342 4.600237,-3.379121 1.544748,-1.110779 3.101022,-2.205731 4.667932,-3.285072 1.56691,-1.079338 3.144637,-2.143037 4.733044,-3.190502 1.58841,-1.047464 3.187364,-2.078717 4.796605,-3.093868 1.609243,-1.015148 3.228692,-2.01432 4.858102,-2.996716 1.629407,-0.982395 3.26862,-1.948293 4.91753,-2.897497 1.648912,-0.949203 3.307659,-1.881674 4.975407,-2.797246 0.450752,-0.247457 0.90751,-0.483661 1.359607,-0.728639 1.220631,-0.661429 2.440836,-1.323549 3.671093,-1.966804 1.685923,-0.881501 3.380497,-1.746128 5.083927,-2.593123 1.703427,-0.846994 3.415336,-1.676691 5.135604,-2.488737 1.720271,-0.812046 3.448767,-1.60614 5.185215,-2.3828 1.203724,-0.538393 2.416452,-1.056989 3.627683,-1.578197 -0.755899,-0.728978 -1.515758,-1.452907 -2.292882,-2.155426 -0.933574,-0.843952 -1.883037,-1.668063 -2.849438,-2.470134 -0.966404,-0.802074 -1.950138,-1.5822 -2.951758,-2.338358 -1.00162,-0.756158 -2.021043,-1.488498 -3.060279,-2.194698 -1.039233,-0.706199 -2.097826,-1.386432 -3.177066,-2.038636 -0.539621,-0.326104 -1.084459,-0.645199 -1.634527,-0.957045 -0.550072,-0.311846 -1.105742,-0.616556 -1.666566,-0.913641 -0.638804,-0.338396 -1.283335,-0.665959 -1.933215,-0.982368 -0.649883,-0.316408 -1.305081,-0.621462 -1.965253,-0.915708 -0.66017,-0.294243 -1.325028,-0.577656 -1.99471,-0.849558 -0.669679,-0.271907 -1.34421,-0.532471 -2.022615,-0.781865 -0.678405,-0.249394 -1.361072,-0.487463 -2.04742,-0.714169 -0.68635,-0.226705 -1.376132,-0.442113 -2.069642,-0.645956 -0.69351,-0.20384 -1.390423,-0.395907 -2.090312,-0.57671 -0.699889,-0.180805 -1.402913,-0.350385 -2.108398,-0.507978 -0.705485,-0.157592 -1.413603,-0.303493 -2.123903,-0.437698 -0.710298,-0.134207 -1.422493,-0.25626 -2.13682,-0.366903 -0.71433,-0.110643 -1.430613,-0.209719 -2.148189,-0.296624 -0.717579,-0.08691 -1.436929,-0.161798 -2.156974,-0.224793 -0.720042,-0.063 -1.440931,-0.114051 -2.162659,-0.152961 -0.721725,-0.03891 -1.444162,-0.06597 -2.166792,-0.08062 -0.361315,-0.0073 -0.722759,-0.01172 -1.084172,-0.01292 z M 28.261323,64.98673 c -1.108594,0.417063 -2.210903,0.851437 -3.305741,1.303279 1.094838,-0.451842 2.197147,-0.886216 3.305741,-1.303279 z" />
    <path
       id="path34442"
       style="opacity:1;fill:#1050bc;fill-opacity:1;stroke:none;stroke-width:0.396875"
       d="m 31.78824,26.698628 c -0.361413,-0.0012 -0.722797,7.75e-4 -1.08417,0.0057 -0.722749,0.0098 -1.445226,0.03176 -2.167311,0.06615 -0.722082,0.0344 -1.443288,0.08108 -2.163693,0.140042 -0.720404,0.05896 -1.440044,0.130148 -2.158007,0.213423 -0.717965,0.08328 -1.434461,0.178946 -2.149223,0.28629 -0.714761,0.107339 -1.427575,0.226444 -2.138371,0.3576 -0.710794,0.131157 -1.419384,0.274188 -2.125451,0.428913 -0.706066,0.154729 -1.409888,0.321149 -2.110465,0.499195 -0.700577,0.178046 -1.398055,0.36784 -2.092379,0.568958 -0.694324,0.20112 -1.385434,0.413744 -2.072742,0.637688 -0.68731,0.223943 -1.370989,0.459382 -2.0505207,0.7059 -0.6795318,0.246518 -1.3547239,0.504235 -2.0257162,0.773078 -0.6709923,0.268846 -1.3376706,0.54882 -1.9993612,0.839743 -0.6616904,0.290922 -1.3182791,0.592619 -1.9699055,0.905369 -0.6516266,0.312754 -1.2980998,0.636149 -1.9388997,0.970484 -0.56275847,0.293616 -1.11942658,0.598908 -1.67328286,0.908989 v 45.725355 11.540897 c 0.49582337,0.320757 0.98755319,0.647925 1.48983156,0.958598 0.8803186,0.54446 1.7701242,1.073135 2.6690876,1.58595 0.1321922,0.07541 0.2679121,0.144391 0.4004924,0.219109 1.3934292,-1.233223 2.7984693,-2.453436 4.2162801,-3.658692 1.4494425,-1.232138 2.9115115,-2.449513 4.3857785,-3.651973 1.474267,-1.202462 2.960734,-2.390235 4.459159,-3.562574 1.498427,-1.172337 3.008555,-2.329326 4.530473,-3.471106 1.52192,-1.141778 3.05549,-2.268342 4.600237,-3.379121 1.544748,-1.110779 3.101022,-2.205731 4.667932,-3.285072 1.56691,-1.079338 3.144637,-2.143037 4.733044,-3.190502 1.58841,-1.047464 3.187364,-2.078717 4.796605,-3.093868 1.609243,-1.015148 3.228692,-2.01432 4.858102,-2.996716 1.629407,-0.982395 3.26862,-1.948293 4.91753,-2.897497 1.648912,-0.949203 3.307659,-1.881674 4.975407,-2.797246 0.450752,-0.247457 0.90751,-0.483661 1.359607,-0.728639 1.220631,-0.661429 2.440836,-1.323549 3.671093,-1.966804 1.685923,-0.881501 3.380497,-1.746128 5.083927,-2.593123 1.703427,-0.846994 3.415336,-1.676691 5.135604,-2.488737 1.720271,-0.812046 3.448767,-1.60614 5.185215,-2.3828 1.203724,-0.538393 2.416452,-1.056989 3.627683,-1.578197 -0.755899,-0.728978 -1.515758,-1.452907 -2.292882,-2.155426 -0.933574,-0.843952 -1.883037,-1.668063 -2.849438,-2.470134 -0.966404,-0.802074 -1.950138,-1.5822 -2.951758,-2.338358 -1.00162,-0.756158 -2.021043,-1.488498 -3.060279,-2.194698 -1.039233,-0.706199 -2.097826,-1.386432 -3.177066,-2.038636 -0.539621,-0.326104 -1.084459,-0.645199 -1.634527,-0.957045 -0.550072,-0.311846 -1.105742,-0.616556 -1.666566,-0.913641 -0.638804,-0.338396 -1.283335,-0.665959 -1.933215,-0.982368 -0.649883,-0.316408 -1.305081,-0.621462 -1.965253,-0.915708 -0.66017,-0.294243 -1.325028,-0.577656 -1.99471,-0.849558 -0.669679,-0.271907 -1.34421,-0.532471 -2.022615,-0.781865 -0.678405,-0.249394 -1.361072,-0.487463 -2.04742,-0.714169 -0.68635,-0.226705 -1.376132,-0.442113 -2.069642,-0.645956 -0.69351,-0.20384 -1.390423,-0.395907 -2.090312,-0.57671 -0.699889,-0.180805 -1.402913,-0.350385 -2.108398,-0.507978 -0.705485,-0.157592 -1.413603,-0.303493 -2.123903,-0.437698 -0.710298,-0.134207 -1.422493,-0.25626 -2.13682,-0.366903 -0.71433,-0.110643 -1.430613,-0.209719 -2.148189,-0.296624 -0.717579,-0.08691 -1.436929,-0.161798 -2.156974,-0.224793 -0.720042,-0.063 -1.440931,-0.114051 -2.162659,-0.152961 -0.721725,-0.03891 -1.444162,-0.06597 -2.166792,-0.08062 -0.361315,-0.0073 -0.722759,-0.01172 -1.084172,-0.01292 z M 28.261323,64.98673 c -1.108594,0.417063 -2.210903,0.851437 -3.305741,1.303279 1.094838,-0.451842 2.197147,-0.886216 3.305741,-1.303279 z" />
    <path
       id="path64238"
       style="opacity:1;fill:#000000;fill-opacity:1;stroke:none;stroke-width:0.396875;filter:url(#filter64258)"
       d="m 151.31893,28.892293 c -0.90451,0.0028 -1.80937,0.02028 -2.71405,0.05116 -0.90468,0.03088 -1.80908,0.07551 -2.71353,0.132808 -0.90445,0.0573 -1.8087,0.127267 -2.71249,0.20929 -0.9038,0.08202 -1.80717,0.17607 -2.70992,0.28112 -0.90274,0.105048 -1.80502,0.22089 -2.70629,0.347266 -0.90128,0.126373 -1.80174,0.263271 -2.70113,0.409276 -0.89939,0.146005 -1.79783,0.301151 -2.69493,0.465087 -0.89709,0.163939 -1.79278,0.336598 -2.68717,0.516766 -1.78877,0.360338 -3.57201,0.751255 -5.34747,1.166336 -1.77548,0.415084 -3.54315,0.854271 -5.30201,1.310516 -1.84191,0.477784 -3.67868,0.975219 -5.50974,1.491898 -1.83106,0.516681 -3.65661,1.052517 -5.47615,1.607653 -1.81954,0.555135 -3.63313,1.129739 -5.44049,1.722892 -1.80735,0.593154 -3.608278,1.204815 -5.402775,1.835547 -1.794502,0.630733 -3.582514,1.28033 -5.363498,1.948201 -1.780988,0.667875 -3.554834,1.354217 -5.321639,2.05879 -1.766803,0.704574 -3.526274,1.427503 -5.278231,2.168342 -0.537477,0.227277 -1.069549,0.467482 -1.605587,0.698151 -1.211231,0.521208 -2.423959,1.039804 -3.627683,1.578197 -1.736448,0.77666 -3.464944,1.570754 -5.185215,2.3828 -1.720268,0.812046 -3.432177,1.641743 -5.135604,2.488737 -1.70343,0.846995 -3.398004,1.711622 -5.083927,2.593123 -1.230257,0.643255 -2.450462,1.305375 -3.671093,1.966804 -0.452097,0.244978 -0.908855,0.481182 -1.359607,0.728639 -1.667748,0.915572 -3.326495,1.848043 -4.975407,2.797246 -1.64891,0.949204 -3.288123,1.915102 -4.91753,2.897497 -1.62941,0.982396 -3.248859,1.981568 -4.858102,2.996716 -1.609241,1.015151 -3.208195,2.046404 -4.796605,3.093868 -1.588407,1.047465 -3.166134,2.111164 -4.733044,3.190502 -1.56691,1.079341 -3.123184,2.174293 -4.667932,3.285072 -1.544747,1.110779 -3.078317,2.237343 -4.600237,3.379121 -1.521918,1.14178 -3.032046,2.298769 -4.530473,3.471106 -1.498425,1.172339 -2.984892,2.360112 -4.459159,3.562574 -1.474267,1.20246 -2.936336,2.419835 -4.3857785,3.651973 -1.4178108,1.205256 -2.8228509,2.425469 -4.2162801,3.658692 0.7690236,0.433414 1.5412016,0.861134 2.3228556,1.271239 0.9164119,0.4808 1.8413275,0.94579 2.7739913,1.394229 0.9326647,0.448472 1.8732957,0.88028 2.8210157,1.296046 0.94772,0.415769 1.902845,0.815112 2.864425,1.197857 0.96158,0.38274 1.929455,0.74926 2.903699,1.09864 0.974244,0.34939 1.954676,0.68169 2.940389,0.99736 0.985711,0.31568 1.976964,0.61442 2.972945,0.89607 0.995984,0.28164 1.996826,0.54647 3.001883,0.79375 1.005057,0.24728 2.01427,0.47734 3.027206,0.68988 1.012936,0.21257 2.029293,0.40747 3.04891,0.58498 1.019617,0.17751 2.042406,0.33742 3.067513,0.47955 1.025105,0.14211 2.052585,0.2662 3.081981,0.37259 1.029393,0.10639 2.060866,0.1953 3.093352,0.26562 1.032489,0.0703 2.0662,0.12214 3.100586,0.15606 1.034386,0.0339 2.069115,0.0499 3.104202,0.047 0.756569,-0.002 1.512152,-0.0137 2.26653,-0.0346 0.754377,-0.0209 1.507664,-0.0517 2.259809,-0.091 0.752144,-0.0393 1.503224,-0.0875 2.253093,-0.14469 0.749869,-0.0572 1.498823,-0.12331 2.246374,-0.19792 1.495102,-0.1492 2.985471,-0.3325 4.471045,-0.54829 1.485572,-0.21579 2.965889,-0.46416 4.44159,-0.74259 1.475703,-0.27839 2.946643,-0.58689 4.412133,-0.92397 1.465487,-0.33707 2.925678,-0.70274 4.380611,-1.09451 1.454933,-0.39174 2.904538,-0.80963 4.348573,-1.25212 1.444037,-0.44249 2.882701,-0.90912 4.315499,-1.39837 1.432798,-0.489203 2.859654,-1.001212 4.280874,-1.533236 1.421217,-0.532024 2.836439,-1.084355 4.245737,-1.655196 1.409298,-0.570865 2.812528,-1.160074 4.209563,-1.765782 1.397034,-0.605687 2.787925,-1.227899 4.172352,-1.864487 1.38443,-0.636614 2.76264,-1.28778 4.13412,-1.951302 1.37149,-0.663522 2.73665,-1.339228 4.09484,-2.025716 0.82861,-0.418809 1.64968,-0.848175 2.47323,-1.274342 0.52637,-0.272372 1.0565,-0.539337 1.58078,-0.814419 1.34457,-0.705469 2.68208,-1.419423 4.01268,-2.139921 2.66118,-1.440992 5.30922,-2.912224 7.9499,-4.399214 2.64068,-1.486992 5.27396,-2.989939 7.90649,-4.495334 1.83998,-1.052174 3.68102,-2.102032 5.52215,-3.151746 0.79305,-0.452157 1.58483,-0.907089 2.37866,-1.35754 2.63675,-1.496197 5.27901,-2.981147 7.93233,-4.440555 1.32668,-0.729702 2.6563,-1.453012 3.98943,-2.168342 1.33314,-0.71533 2.66946,-1.42226 4.0106,-2.119768 1.34116,-0.697507 2.68678,-1.385652 4.03748,-2.06189 1.3507,-0.676238 2.70669,-1.340609 4.06849,-1.992127 1.3618,-0.651515 2.72969,-1.290233 4.10414,-1.913578 1.37445,-0.623345 2.7553,-1.231418 4.14393,-1.823143 1.38865,-0.591727 2.78503,-1.166757 4.18941,-1.723411 1.40438,-0.556657 2.81684,-1.0952 4.2385,-1.613336 1.75954,-0.641276 3.53114,-1.249424 5.31286,-1.825213 1.78171,-0.575789 3.57339,-1.1192 5.37486,-1.629357 1.80147,-0.510156 3.6124,-0.98706 5.4312,-1.431438 1.81881,-0.444376 3.64552,-0.856099 5.47925,-1.234551 0.34725,-0.07167 0.69767,-0.127071 1.04541,-0.196368 -1.12837,-0.584454 -2.2583,-1.171144 -3.38739,-1.750283 -1.53663,-0.78817 -3.0808,-1.570857 -4.63279,-2.34094 -1.552,-0.770086 -3.11168,-1.527363 -4.68085,-2.264979 -1.56917,-0.737614 -3.14748,-1.455357 -4.73563,-2.146123 -1.58815,-0.690764 -3.18613,-1.354323 -4.79505,-1.983859 -0.80446,-0.314769 -1.61208,-0.621006 -2.42208,-0.917771 -0.81,-0.296767 -1.62286,-0.584486 -2.43861,-0.861446 -0.81576,-0.276969 -1.63444,-0.543555 -2.45618,-0.79892 -0.82174,-0.255368 -1.64632,-0.49925 -2.47427,-0.731221 -0.82795,-0.231968 -1.659,-0.45158 -2.49339,-0.658357 -0.83439,-0.206778 -1.67197,-0.40054 -2.51302,-0.580327 -0.84105,-0.179787 -1.68576,-0.345612 -2.5337,-0.49661 -0.84794,-0.150997 -1.69931,-0.287313 -2.55436,-0.407728 -0.89966,-0.126693 -1.80016,-0.235841 -2.70165,-0.327628 -0.90149,-0.09178 -1.8039,-0.166219 -2.70681,-0.224793 -0.90291,-0.05857 -1.80652,-0.1011 -2.71043,-0.128156 -0.90391,-0.02706 -1.80799,-0.03893 -2.71249,-0.03617 z M 68.158629,57.790788 c 0.580954,0.0018 1.161415,0.0083 1.742014,0.0186 0.580596,0.01029 1.161256,0.02484 1.741495,0.04341 0.580237,0.01857 1.160055,0.04114 1.739945,0.0677 0.57989,0.02656 1.159963,0.05707 1.739429,0.09147 0.579467,0.03439 1.158322,0.07267 1.73736,0.114724 0.579038,0.04205 1.157822,0.08749 1.736328,0.13694 0.578509,0.04945 1.156738,0.10291 1.734781,0.159682 0.57804,0.05677 1.156253,0.117006 1.733743,0.180866 0.57749,0.06386 1.154258,0.13135 1.731161,0.202057 0.5769,0.07071 1.153837,0.144836 1.730126,0.222208 0.576289,0.07737 1.151927,0.157982 1.727544,0.241845 0.575617,0.08387 1.151093,0.170727 1.725993,0.260966 -0.5749,-0.09024 -1.150376,-0.177101 -1.725993,-0.260966 -0.575617,-0.08386 -1.151255,-0.164476 -1.727544,-0.241845 -0.576289,-0.07737 -1.153226,-0.151501 -1.730126,-0.222208 -0.576903,-0.07071 -1.153671,-0.138194 -1.731161,-0.202057 -0.57749,-0.06386 -1.155703,-0.124095 -1.733743,-0.180866 -0.578043,-0.05677 -1.156272,-0.110231 -1.734781,-0.159682 -0.578506,-0.04945 -1.15729,-0.09488 -1.736328,-0.13694 -0.579038,-0.04206 -1.157893,-0.08033 -1.73736,-0.114724 -0.579466,-0.03439 -1.159539,-0.06491 -1.739429,-0.09147 -0.57989,-0.02656 -1.159708,-0.04913 -1.739945,-0.0677 -0.580239,-0.01857 -1.160899,-0.03313 -1.741495,-0.04341 -0.580599,-0.01028 -1.16106,-0.01677 -1.742014,-0.0186 z m 0,0 c -0.580954,-0.0018 -1.162399,9.77e-4 -1.743562,0.0078 -0.581162,0.0068 -1.162211,0.01754 -1.743564,0.03307 -0.581353,0.01554 -1.163013,0.03585 -1.744597,0.06046 -0.591732,0.02504 -1.182854,0.05477 -1.774049,0.0894 -0.591199,0.03463 -1.182466,0.07417 -1.773021,0.118337 -0.409165,0.03061 -0.817782,0.06667 -1.22628,0.104905 0.408498,-0.03823 0.817115,-0.0743 1.22628,-0.104905 0.590555,-0.04418 1.181822,-0.08371 1.773021,-0.118337 0.591195,-0.03463 1.182317,-0.06436 1.774049,-0.0894 0.581584,-0.02461 1.163244,-0.04492 1.744597,-0.06046 0.581353,-0.01554 1.162402,-0.0263 1.743564,-0.03307 0.581163,-0.0068 1.162608,-0.0096 1.743562,-0.0078 z m 22.777939,2.062406 c 0.58891,0.734298 1.177915,1.468186 1.756998,2.21175 -0.579083,-0.743564 -1.168088,-1.477452 -1.756998,-2.21175 z m 4.09329,5.264277 c 0.770821,1.024006 1.534268,2.053537 2.291331,3.087151 0.757065,1.033613 1.507746,2.071309 2.253614,3.110404 -0.745868,-1.039095 -1.496549,-2.076791 -2.253614,-3.110404 -0.757063,-1.033614 -1.52051,-2.063145 -2.291331,-3.087151 z" />
    <path
       id="path34450"
       style="opacity:1;fill:#0c3c8d;fill-opacity:1;stroke:none;stroke-width:0.396875"
       d="m 151.31893,28.892293 c -0.90451,0.0028 -1.80937,0.02028 -2.71405,0.05116 -0.90468,0.03088 -1.80908,0.07551 -2.71353,0.132808 -0.90445,0.0573 -1.8087,0.127267 -2.71249,0.20929 -0.9038,0.08202 -1.80717,0.17607 -2.70992,0.28112 -0.90274,0.105048 -1.80502,0.22089 -2.70629,0.347266 -0.90128,0.126373 -1.80174,0.263271 -2.70113,0.409276 -0.89939,0.146005 -1.79783,0.301151 -2.69493,0.465087 -0.89709,0.163939 -1.79278,0.336598 -2.68717,0.516766 -1.78877,0.360338 -3.57201,0.751255 -5.34747,1.166336 -1.77548,0.415084 -3.54315,0.854271 -5.30201,1.310516 -1.84191,0.477784 -3.67868,0.975219 -5.50974,1.491898 -1.83106,0.516681 -3.65661,1.052517 -5.47615,1.607653 -1.81954,0.555135 -3.63313,1.129739 -5.44049,1.722892 -1.80735,0.593154 -3.608278,1.204815 -5.402775,1.835547 -1.794502,0.630733 -3.582514,1.28033 -5.363498,1.948201 -1.780988,0.667875 -3.554834,1.354217 -5.321639,2.05879 -1.766803,0.704574 -3.526274,1.427503 -5.278231,2.168342 -0.537477,0.227277 -1.069549,0.467482 -1.605587,0.698151 -1.211231,0.521208 -2.423959,1.039804 -3.627683,1.578197 -1.736448,0.77666 -3.464944,1.570754 -5.185215,2.3828 -1.720268,0.812046 -3.432177,1.641743 -5.135604,2.488737 -1.70343,0.846995 -3.398004,1.711622 -5.083927,2.593123 -1.230257,0.643255 -2.450462,1.305375 -3.671093,1.966804 -0.452097,0.244978 -0.908855,0.481182 -1.359607,0.728639 -1.667748,0.915572 -3.326495,1.848043 -4.975407,2.797246 -1.64891,0.949204 -3.288123,1.915102 -4.91753,2.897497 -1.62941,0.982396 -3.248859,1.981568 -4.858102,2.996716 -1.609241,1.015151 -3.208195,2.046404 -4.796605,3.093868 -1.588407,1.047465 -3.166134,2.111164 -4.733044,3.190502 -1.56691,1.079341 -3.123184,2.174293 -4.667932,3.285072 -1.544747,1.110779 -3.078317,2.237343 -4.600237,3.379121 -1.521918,1.14178 -3.032046,2.298769 -4.530473,3.471106 -1.498425,1.172339 -2.984892,2.360112 -4.459159,3.562574 -1.474267,1.20246 -2.936336,2.419835 -4.3857785,3.651973 -1.4178108,1.205256 -2.8228509,2.425469 -4.2162801,3.658692 0.7690236,0.433414 1.5412016,0.861134 2.3228556,1.271239 0.9164119,0.4808 1.8413275,0.94579 2.7739913,1.394229 0.9326647,0.448472 1.8732957,0.88028 2.8210157,1.296046 0.94772,0.415769 1.902845,0.815112 2.864425,1.197857 0.96158,0.38274 1.929455,0.74926 2.903699,1.09864 0.974244,0.34939 1.954676,0.68169 2.940389,0.99736 0.985711,0.31568 1.976964,0.61442 2.972945,0.89607 0.995984,0.28164 1.996826,0.54647 3.001883,0.79375 1.005057,0.24728 2.01427,0.47734 3.027206,0.68988 1.012936,0.21257 2.029293,0.40747 3.04891,0.58498 1.019617,0.17751 2.042406,0.33742 3.067513,0.47955 1.025105,0.14211 2.052585,0.2662 3.081981,0.37259 1.029393,0.10639 2.060866,0.1953 3.093352,0.26562 1.032489,0.0703 2.0662,0.12214 3.100586,0.15606 1.034386,0.0339 2.069115,0.0499 3.104202,0.047 0.756569,-0.002 1.512152,-0.0137 2.26653,-0.0346 0.754377,-0.0209 1.507664,-0.0517 2.259809,-0.091 0.752144,-0.0393 1.503224,-0.0875 2.253093,-0.14469 0.749869,-0.0572 1.498823,-0.12331 2.246374,-0.19792 1.495102,-0.1492 2.985471,-0.3325 4.471045,-0.54829 1.485572,-0.21579 2.965889,-0.46416 4.44159,-0.74259 1.475703,-0.27839 2.946643,-0.58689 4.412133,-0.92397 1.465487,-0.33707 2.925678,-0.70274 4.380611,-1.09451 1.454933,-0.39174 2.904538,-0.80963 4.348573,-1.25212 1.444037,-0.44249 2.882701,-0.90912 4.315499,-1.39837 1.432798,-0.489203 2.859654,-1.001212 4.280874,-1.533236 1.421217,-0.532024 2.836439,-1.084355 4.245737,-1.655196 1.409298,-0.570865 2.812528,-1.160074 4.209563,-1.765782 1.397034,-0.605687 2.787925,-1.227899 4.172352,-1.864487 1.38443,-0.636614 2.76264,-1.28778 4.13412,-1.951302 1.37149,-0.663522 2.73665,-1.339228 4.09484,-2.025716 0.82861,-0.418809 1.64968,-0.848175 2.47323,-1.274342 0.52637,-0.272372 1.0565,-0.539337 1.58078,-0.814419 1.34457,-0.705469 2.68208,-1.419423 4.01268,-2.139921 2.66118,-1.440992 5.30922,-2.912224 7.9499,-4.399214 2.64068,-1.486992 5.27396,-2.989939 7.90649,-4.495334 1.83998,-1.052174 3.68102,-2.102032 5.52215,-3.151746 0.79305,-0.452157 1.58483,-0.907089 2.37866,-1.35754 2.63675,-1.496197 5.27901,-2.981147 7.93233,-4.440555 1.32668,-0.729702 2.6563,-1.453012 3.98943,-2.168342 1.33314,-0.71533 2.66946,-1.42226 4.0106,-2.119768 1.34116,-0.697507 2.68678,-1.385652 4.03748,-2.06189 1.3507,-0.676238 2.70669,-1.340609 4.06849,-1.992127 1.3618,-0.651515 2.72969,-1.290233 4.10414,-1.913578 1.37445,-0.623345 2.7553,-1.231418 4.14393,-1.823143 1.38865,-0.591727 2.78503,-1.166757 4.18941,-1.723411 1.40438,-0.556657 2.81684,-1.0952 4.2385,-1.613336 1.75954,-0.641276 3.53114,-1.249424 5.31286,-1.825213 1.78171,-0.575789 3.57339,-1.1192 5.37486,-1.629357 1.80147,-0.510156 3.6124,-0.98706 5.4312,-1.431438 1.81881,-0.444376 3.64552,-0.856099 5.47925,-1.234551 0.34725,-0.07167 0.69767,-0.127071 1.04541,-0.196368 -1.12837,-0.584454 -2.2583,-1.171144 -3.38739,-1.750283 -1.53663,-0.78817 -3.0808,-1.570857 -4.63279,-2.34094 -1.552,-0.770086 -3.11168,-1.527363 -4.68085,-2.264979 -1.56917,-0.737614 -3.14748,-1.455357 -4.73563,-2.146123 -1.58815,-0.690764 -3.18613,-1.354323 -4.79505,-1.983859 -0.80446,-0.314769 -1.61208,-0.621006 -2.42208,-0.917771 -0.81,-0.296767 -1.62286,-0.584486 -2.43861,-0.861446 -0.81576,-0.276969 -1.63444,-0.543555 -2.45618,-0.79892 -0.82174,-0.255368 -1.64632,-0.49925 -2.47427,-0.731221 -0.82795,-0.231968 -1.659,-0.45158 -2.49339,-0.658357 -0.83439,-0.206778 -1.67197,-0.40054 -2.51302,-0.580327 -0.84105,-0.179787 -1.68576,-0.345612 -2.5337,-0.49661 -0.84794,-0.150997 -1.69931,-0.287313 -2.55436,-0.407728 -0.89966,-0.126693 -1.80016,-0.235841 -2.70165,-0.327628 -0.90149,-0.09178 -1.8039,-0.166219 -2.70681,-0.224793 -0.90291,-0.05857 -1.80652,-0.1011 -2.71043,-0.128156 -0.90391,-0.02706 -1.80799,-0.03893 -2.71249,-0.03617 z M 68.158629,57.790788 c 0.580954,0.0018 1.161415,0.0083 1.742014,0.0186 0.580596,0.01029 1.161256,0.02484 1.741495,0.04341 0.580237,0.01857 1.160055,0.04114 1.739945,0.0677 0.57989,0.02656 1.159963,0.05707 1.739429,0.09147 0.579467,0.03439 1.158322,0.07267 1.73736,0.114724 0.579038,0.04205 1.157822,0.08749 1.736328,0.13694 0.578509,0.04945 1.156738,0.10291 1.734781,0.159682 0.57804,0.05677 1.156253,0.117006 1.733743,0.180866 0.57749,0.06386 1.154258,0.13135 1.731161,0.202057 0.5769,0.07071 1.153837,0.144836 1.730126,0.222208 0.576289,0.07737 1.151927,0.157982 1.727544,0.241845 0.575617,0.08387 1.151093,0.170727 1.725993,0.260966 -0.5749,-0.09024 -1.150376,-0.177101 -1.725993,-0.260966 -0.575617,-0.08386 -1.151255,-0.164476 -1.727544,-0.241845 -0.576289,-0.07737 -1.153226,-0.151501 -1.730126,-0.222208 -0.576903,-0.07071 -1.153671,-0.138194 -1.731161,-0.202057 -0.57749,-0.06386 -1.155703,-0.124095 -1.733743,-0.180866 -0.578043,-0.05677 -1.156272,-0.110231 -1.734781,-0.159682 -0.578506,-0.04945 -1.15729,-0.09488 -1.736328,-0.13694 -0.579038,-0.04206 -1.157893,-0.08033 -1.73736,-0.114724 -0.579466,-0.03439 -1.159539,-0.06491 -1.739429,-0.09147 -0.57989,-0.02656 -1.159708,-0.04913 -1.739945,-0.0677 -0.580239,-0.01857 -1.160899,-0.03313 -1.741495,-0.04341 -0.580599,-0.01028 -1.16106,-0.01677 -1.742014,-0.0186 z m 0,0 c -0.580954,-0.0018 -1.162399,9.77e-4 -1.743562,0.0078 -0.581162,0.0068 -1.162211,0.01754 -1.743564,0.03307 -0.581353,0.01554 -1.163013,0.03585 -1.744597,0.06046 -0.591732,0.02504 -1.182854,0.05477 -1.774049,0.0894 -0.591199,0.03463 -1.182466,0.07417 -1.773021,0.118337 -0.409165,0.03061 -0.817782,0.06667 -1.22628,0.104905 0.408498,-0.03823 0.817115,-0.0743 1.22628,-0.104905 0.590555,-0.04418 1.181822,-0.08371 1.773021,-0.118337 0.591195,-0.03463 1.182317,-0.06436 1.774049,-0.0894 0.581584,-0.02461 1.163244,-0.04492 1.744597,-0.06046 0.581353,-0.01554 1.162402,-0.0263 1.743564,-0.03307 0.581163,-0.0068 1.162608,-0.0096 1.743562,-0.0078 z m 22.777939,2.062406 c 0.58891,0.734298 1.177915,1.468186 1.756998,2.21175 -0.579083,-0.743564 -1.168088,-1.477452 -1.756998,-2.21175 z m 4.09329,5.264277 c 0.770821,1.024006 1.534268,2.053537 2.291331,3.087151 0.757065,1.033613 1.507746,2.071309 2.253614,3.110404 -0.745868,-1.039095 -1.496549,-2.076791 -2.253614,-3.110404 -0.757063,-1.033614 -1.52051,-2.063145 -2.291331,-3.087151 z" />
    <text
       xml:space="preserve"
       style="font-style:normal;font-weight:normal;font-size:10.5833px;line-height:1.25;font-family:sans-serif;fill:#000000;fill-opacity:1;stroke:none;stroke-width:0.264583"
       x="362.20822"
       y="203.90343"
       id="text1313"><tspan
         sodipodi:role="line"
         id="tspan1311"
         style="stroke-width:0.264583"
         x="362.20822"
         y="203.90343" /></text>
    <path
       id="path64214"
       style="opacity:1;fill:#000000;fill-opacity:1;stroke:none;stroke-width:1.5;filter:url(#filter64234)"
       d="M 884.03125 160.6543 C 880.49271 160.67924 876.95373 160.73616 873.41602 160.82422 C 866.34059 161.00042 859.26786 161.30232 852.20312 161.73047 C 845.13836 162.15863 838.08204 162.71304 831.03711 163.39258 C 823.99215 164.07212 816.95933 164.87627 809.94336 165.80664 C 802.92738 166.73701 795.92706 167.79396 788.94922 168.97461 C 783.29278 169.93168 777.66113 171.02724 772.03516 172.14844 C 770.72086 172.41036 769.39643 172.61975 768.08398 172.89062 C 761.15335 174.32099 754.24924 175.87711 747.375 177.55664 C 740.5008 179.23618 733.65636 181.03865 726.84766 182.9668 C 720.03895 184.89495 713.26723 186.94879 706.5332 189.125 C 699.79914 191.30121 693.10335 193.59972 686.45312 196.02344 C 681.07992 197.98175 675.74149 200.01719 670.43359 202.12109 C 665.1257 204.22498 659.84805 206.39832 654.59961 208.63477 C 649.35124 210.87121 644.13227 213.16944 638.9375 215.52539 C 633.74273 217.88134 628.57274 220.29539 623.42578 222.75781 C 618.27882 225.22024 613.15384 227.73125 608.04883 230.28711 C 602.94382 232.84297 597.85801 235.44383 592.78906 238.08008 C 587.72019 240.71633 582.6695 243.38819 577.63086 246.0918 C 572.59226 248.79541 567.56696 251.52918 562.55273 254.28711 C 552.52444 259.80298 542.53793 265.41539 532.57227 271.07031 C 529.57196 272.7728 526.57939 274.49223 523.58203 276.20117 C 516.62343 280.16859 509.66519 284.13656 502.71094 288.11328 C 492.76122 293.80296 482.80865 299.48339 472.82812 305.10352 C 462.8476 310.72364 452.83925 316.2842 442.78125 321.73047 C 437.75221 324.45361 432.69707 327.15202 427.61523 329.81836 C 425.6337 330.85804 423.63005 331.86705 421.64062 332.89648 C 418.528 334.50719 415.42472 336.12999 412.29297 337.71289 C 407.15965 340.30749 401.99999 342.86134 396.81641 345.36914 C 391.63286 347.87694 386.4239 350.33804 381.19141 352.74414 C 375.95893 355.15014 370.702 357.5018 365.42188 359.79102 C 360.14174 362.08031 354.8382 364.30724 349.51172 366.46484 C 344.18524 368.62235 338.83637 370.7099 333.46484 372.7207 C 328.0933 374.7315 322.70046 376.66668 317.28516 378.51562 C 311.86986 380.36476 306.43239 382.12838 300.97461 383.80078 C 295.51684 385.47318 290.03802 387.05261 284.53906 388.5332 C 279.0401 390.01391 273.52127 391.39596 267.98242 392.66992 C 262.44356 393.94393 256.8841 395.10993 251.30664 396.16211 C 245.72919 397.21444 240.13429 398.15317 234.51953 398.96875 C 228.90476 399.78433 223.27187 400.47711 217.62109 401.04102 C 214.7957 401.32297 211.96501 401.57287 209.13086 401.78906 C 206.29671 402.00525 203.45798 402.18721 200.61523 402.33594 C 197.77248 402.48447 194.92541 402.60032 192.07422 402.67969 C 189.22303 402.75906 186.36729 402.80299 183.50781 402.81055 C 179.59567 402.82189 175.68488 402.76094 171.77539 402.63281 C 167.8659 402.50469 163.95896 402.3089 160.05664 402.04297 C 156.15433 401.77727 152.25585 401.44117 148.36523 401.03906 C 144.4746 400.63696 140.59121 400.16797 136.7168 399.63086 C 132.84238 399.09368 128.97672 398.48926 125.12305 397.81836 C 121.26938 397.14746 117.42803 396.41084 113.59961 395.60742 C 109.77119 394.80412 105.95684 393.9346 102.1582 393 C 98.359562 392.0654 94.576849 391.06447 90.8125 390 C 87.048162 388.9355 83.301694 387.8064 79.576172 386.61328 C 75.850642 385.4202 72.145073 384.16428 68.462891 382.84375 C 64.780709 381.52326 61.122599 380.13798 57.488281 378.69141 C 53.853963 377.24482 50.244043 375.73547 46.662109 374.16406 C 43.080176 372.59247 39.525032 370.96064 36 369.26562 C 32.474971 367.57081 28.979229 365.81329 25.515625 363.99609 C 22.561342 362.44609 19.642874 360.82951 16.736328 359.19141 C 16.235238 358.909 15.72228 358.64828 15.222656 358.36328 C 11.824999 356.42508 8.4619544 354.42694 5.1347656 352.36914 C 3.2363907 351.19494 1.3778843 349.9584 -0.49609375 348.74609 L -0.49609375 361.43359 C 1.4368401 363.25319 3.377909 365.06376 5.34375 366.84766 C 5.8287129 367.28776 6.3255529 367.71444 6.8125 368.15234 C 9.996165 365.26184 13.162015 362.3514 16.380859 359.5 C 13.162016 362.3514 9.996165 365.26184 6.8125 368.15234 C 8.6303481 369.78694 10.451639 371.4178 12.296875 373.02148 C 14.636393 375.05479 16.998043 377.06447 19.380859 379.04688 C 21.763677 381.02924 24.166494 382.98562 26.591797 384.91602 C 29.017099 386.84652 31.464666 388.74966 33.931641 390.62695 C 36.398612 392.50424 38.886698 394.35464 41.394531 396.17773 C 43.902365 398.00071 46.428685 399.79677 48.976562 401.56445 C 51.524444 403.33214 54.092008 405.0724 56.677734 406.7832 C 59.26346 408.49404 61.868013 410.17646 64.490234 411.83008 C 67.112459 413.48366 69.752774 415.10722 72.410156 416.70312 C 75.067535 418.29914 77.742404 419.86641 80.433594 421.4043 C 83.124784 422.9423 85.832992 424.45207 88.556641 425.93164 C 91.2803 427.41117 94.018661 428.86034 96.773438 430.28125 C 99.528222 431.70205 102.29944 433.09328 105.08398 434.45508 C 107.86856 435.81688 110.66748 437.14886 113.48047 438.45117 C 119.10646 441.05576 124.78786 443.54166 130.51953 445.90625 C 136.25119 448.27084 142.03278 450.51512 147.85938 452.63672 C 153.68596 454.75843 159.558 456.757 165.46875 458.63281 C 171.37951 460.50863 177.32833 462.2617 183.3125 463.88867 C 189.29667 465.51568 195.3145 467.01728 201.36133 468.39258 C 207.40816 469.76787 213.48524 471.01609 219.58398 472.13672 C 225.68272 473.25739 231.80347 474.25015 237.94336 475.11328 C 244.08326 475.97637 250.24181 476.70989 256.41211 477.3125 C 259.49726 477.61373 262.58505 477.88341 265.67578 478.11914 C 268.76652 478.35461 271.86011 478.55698 274.95508 478.72656 C 278.05006 478.89626 281.14627 479.03158 284.24414 479.13477 C 287.34202 479.23795 290.4416 479.30942 293.54102 479.3457 C 296.64043 479.3835 299.74023 479.38489 302.83984 479.35352 C 305.93948 479.32328 309.03823 479.25805 312.13672 479.16016 C 315.23522 479.06189 318.33368 478.92959 321.42969 478.76367 C 324.52571 478.59775 327.6207 478.39858 330.71289 478.16406 C 335.78508 477.77976 340.84167 477.30705 345.88672 476.75195 C 350.93178 476.19685 355.96402 475.56005 360.98242 474.84375 C 366.00082 474.12745 371.00586 473.33255 375.99805 472.46484 C 380.99026 471.59706 385.97101 470.65607 390.9375 469.64648 C 395.90403 468.6369 400.85755 467.55781 405.79883 466.41602 C 410.74011 465.2743 415.66746 464.06883 420.58398 462.80469 C 425.50051 461.54044 430.40657 460.21879 435.29883 458.8418 C 440.19109 457.4648 445.07097 456.03287 449.93945 454.55273 C 454.8079 453.07256 459.6646 451.54431 464.50977 449.9707 C 469.35493 448.3971 474.18743 446.77849 479.00977 445.12109 C 483.83206 443.46381 488.64343 441.76652 493.44336 440.03516 C 498.24332 438.30364 503.03251 436.53807 507.81055 434.74219 C 509.77817 434.00269 511.72354 433.20828 513.6875 432.45898 C 521.2619 429.56908 528.8303 426.65925 536.35156 423.64844 C 545.82298 419.85689 555.25208 415.98416 564.64258 412.07031 C 583.42362 404.24295 602.16016 396.21884 620.9375 388.29102 C 630.32619 384.32712 639.72466 380.38884 649.14453 376.50977 C 658.5644 372.63067 668.00607 368.81085 677.47852 365.08984 C 686.95099 361.36885 696.45356 357.74546 706 354.25586 C 710.77324 352.51106 715.55779 350.80015 720.35352 349.12695 C 725.14924 347.45365 729.95641 345.81906 734.77734 344.22656 C 737.77602 343.23596 740.78957 342.29234 743.79883 341.33594 C 745.62751 340.75463 747.44848 340.14808 749.28125 339.58008 C 754.13001 338.07748 758.99368 336.62235 763.87305 335.21875 C 768.75234 333.81515 773.64799 332.46338 778.56055 331.16797 C 783.4731 329.87258 788.4031 328.63311 793.35156 327.45508 C 798.54709 326.21822 803.75888 325.05508 808.98438 323.96289 C 814.20987 322.87071 819.44929 321.85053 824.70117 320.90234 C 829.95305 319.95415 835.21752 319.07831 840.49219 318.27344 C 845.76686 317.46856 851.05179 316.73447 856.3457 316.07227 C 861.63957 315.41004 866.9424 314.8191 872.25195 314.29883 C 877.56147 313.77856 882.87764 313.32821 888.19922 312.94922 C 893.52083 312.57024 898.84769 312.26182 904.17773 312.02344 C 909.50785 311.78506 914.84079 311.61799 920.17578 311.51953 C 925.51077 311.42107 930.84728 311.39094 936.18359 311.43164 C 941.51991 311.47242 946.85533 311.58433 952.18945 311.76367 C 957.5235 311.94301 962.85533 312.19058 968.18359 312.50781 C 973.51186 312.82507 978.83736 313.21158 984.15625 313.66602 C 989.47514 314.12045 994.78778 314.6434 1000.0938 315.23438 C 1005.3996 315.82533 1010.699 316.48413 1015.9883 317.21094 C 1021.2777 317.93775 1026.557 318.73177 1031.8262 319.59375 C 1037.0955 320.45573 1042.354 321.38636 1047.5996 322.38281 C 1052.0906 323.23595 1056.5678 324.16203 1061.0391 325.11328 C 1061.7902 325.27312 1062.5463 325.40967 1063.2969 325.57227 C 1068.5152 326.70254 1073.7188 327.8987 1078.9062 329.16211 C 1084.0937 330.42552 1089.265 331.75645 1094.418 333.15234 C 1099.5709 334.54815 1104.7052 336.00951 1109.8203 337.53711 C 1114.9353 339.06481 1120.03 340.6577 1125.1035 342.31641 C 1127.8687 343.2205 1130.6113 344.19186 1133.3633 345.13477 L 1133.3633 290.26953 L 1133.3633 214.50391 C 1132.798 214.24304 1132.2302 213.98758 1131.6641 213.72852 C 1128.2803 212.1801 1124.9221 210.57619 1121.5098 209.0918 C 1115.0202 206.26875 1108.4791 203.56268 1101.8926 200.97461 C 1095.3062 198.38654 1088.6734 195.91692 1081.998 193.56836 C 1075.3228 191.2198 1068.6058 188.99125 1061.8496 186.88672 C 1055.0933 184.7822 1048.2979 182.80127 1041.4688 180.94531 C 1034.6396 179.08936 1027.7751 177.35873 1020.8809 175.75586 C 1013.9867 174.153 1007.0648 172.67908 1000.1172 171.33203 C 993.16966 169.98499 986.19679 168.76562 979.20508 167.67383 C 972.21341 166.58204 965.20253 165.61833 958.17578 164.78125 C 951.14903 163.94417 944.10732 163.23332 937.05469 162.65039 C 930.00205 162.06747 922.93852 161.61253 915.86914 161.2832 C 908.7998 160.95389 901.7235 160.75011 894.64648 160.67383 C 891.10805 160.63569 887.56983 160.62931 884.03125 160.6543 z "
       transform="scale(0.26458333)" />
    <path
       id="rect33729"
       style="opacity:1;fill:#08285e;fill-opacity:1;stroke:none;stroke-width:1.5"
       d="M 884.03125 160.6543 C 880.49271 160.67924 876.95373 160.73616 873.41602 160.82422 C 866.34059 161.00042 859.26786 161.30232 852.20312 161.73047 C 845.13836 162.15863 838.08204 162.71304 831.03711 163.39258 C 823.99215 164.07212 816.95933 164.87627 809.94336 165.80664 C 802.92738 166.73701 795.92706 167.79396 788.94922 168.97461 C 783.29278 169.93168 777.66113 171.02724 772.03516 172.14844 C 770.72086 172.41036 769.39643 172.61975 768.08398 172.89062 C 761.15335 174.32099 754.24924 175.87711 747.375 177.55664 C 740.5008 179.23618 733.65636 181.03865 726.84766 182.9668 C 720.03895 184.89495 713.26723 186.94879 706.5332 189.125 C 699.79914 191.30121 693.10335 193.59972 686.45312 196.02344 C 681.07992 197.98175 675.74149 200.01719 670.43359 202.12109 C 665.1257 204.22498 659.84805 206.39832 654.59961 208.63477 C 649.35124 210.87121 644.13227 213.16944 638.9375 215.52539 C 633.74273 217.88134 628.57274 220.29539 623.42578 222.75781 C 618.27882 225.22024 613.15384 227.73125 608.04883 230.28711 C 602.94382 232.84297 597.85801 235.44383 592.78906 238.08008 C 587.72019 240.71633 582.6695 243.38819 577.63086 246.0918 C 572.59226 248.79541 567.56696 251.52918 562.55273 254.28711 C 552.52444 259.80298 542.53793 265.41539 532.57227 271.07031 C 529.57196 272.7728 526.57939 274.49223 523.58203 276.20117 C 516.62343 280.16859 509.66519 284.13656 502.71094 288.11328 C 492.76122 293.80296 482.80865 299.48339 472.82812 305.10352 C 462.8476 310.72364 452.83925 316.2842 442.78125 321.73047 C 437.75221 324.45361 432.69707 327.15202 427.61523 329.81836 C 425.6337 330.85804 423.63005 331.86705 421.64062 332.89648 C 418.528 334.50719 415.42472 336.12999 412.29297 337.71289 C 407.15965 340.30749 401.99999 342.86134 396.81641 345.36914 C 391.63286 347.87694 386.4239 350.33804 381.19141 352.74414 C 375.95893 355.15014 370.702 357.5018 365.42188 359.79102 C 360.14174 362.08031 354.8382 364.30724 349.51172 366.46484 C 344.18524 368.62235 338.83637 370.7099 333.46484 372.7207 C 328.0933 374.7315 322.70046 376.66668 317.28516 378.51562 C 311.86986 380.36476 306.43239 382.12838 300.97461 383.80078 C 295.51684 385.47318 290.03802 387.05261 284.53906 388.5332 C 279.0401 390.01391 273.52127 391.39596 267.98242 392.66992 C 262.44356 393.94393 256.8841 395.10993 251.30664 396.16211 C 245.72919 397.21444 240.13429 398.15317 234.51953 398.96875 C 228.90476 399.78433 223.27187 400.47711 217.62109 401.04102 C 214.7957 401.32297 211.96501 401.57287 209.13086 401.78906 C 206.29671 402.00525 203.45798 402.18721 200.61523 402.33594 C 197.77248 402.48447 194.92541 402.60032 192.07422 402.67969 C 189.22303 402.75906 186.36729 402.80299 183.50781 402.81055 C 179.59567 402.82189 175.68488 402.76094 171.77539 402.63281 C 167.8659 402.50469 163.95896 402.3089 160.05664 402.04297 C 156.15433 401.77727 152.25585 401.44117 148.36523 401.03906 C 144.4746 400.63696 140.59121 400.16797 136.7168 399.63086 C 132.84238 399.09368 128.97672 398.48926 125.12305 397.81836 C 121.26938 397.14746 117.42803 396.41084 113.59961 395.60742 C 109.77119 394.80412 105.95684 393.9346 102.1582 393 C 98.359562 392.0654 94.576849 391.06447 90.8125 390 C 87.048162 388.9355 83.301694 387.8064 79.576172 386.61328 C 75.850642 385.4202 72.145073 384.16428 68.462891 382.84375 C 64.780709 381.52326 61.122599 380.13798 57.488281 378.69141 C 53.853963 377.24482 50.244043 375.73547 46.662109 374.16406 C 43.080176 372.59247 39.525032 370.96064 36 369.26562 C 32.474971 367.57081 28.979229 365.81329 25.515625 363.99609 C 22.561342 362.44609 19.642874 360.82951 16.736328 359.19141 C 16.235238 358.909 15.72228 358.64828 15.222656 358.36328 C 11.824999 356.42508 8.4619544 354.42694 5.1347656 352.36914 C 3.2363907 351.19494 1.3778843 349.9584 -0.49609375 348.74609 L -0.49609375 361.43359 C 1.4368401 363.25319 3.377909 365.06376 5.34375 366.84766 C 5.8287129 367.28776 6.3255529 367.71444 6.8125 368.15234 C 9.996165 365.26184 13.162015 362.3514 16.380859 359.5 C 13.162016 362.3514 9.996165 365.26184 6.8125 368.15234 C 8.6303481 369.78694 10.451639 371.4178 12.296875 373.02148 C 14.636393 375.05479 16.998043 377.06447 19.380859 379.04688 C 21.763677 381.02924 24.166494 382.98562 26.591797 384.91602 C 29.017099 386.84652 31.464666 388.74966 33.931641 390.62695 C 36.398612 392.50424 38.886698 394.35464 41.394531 396.17773 C 43.902365 398.00071 46.428685 399.79677 48.976562 401.56445 C 51.524444 403.33214 54.092008 405.0724 56.677734 406.7832 C 59.26346 408.49404 61.868013 410.17646 64.490234 411.83008 C 67.112459 413.48366 69.752774 415.10722 72.410156 416.70312 C 75.067535 418.29914 77.742404 419.86641 80.433594 421.4043 C 83.124784 422.9423 85.832992 424.45207 88.556641 425.93164 C 91.2803 427.41117 94.018661 428.86034 96.773438 430.28125 C 99.528222 431.70205 102.29944 433.09328 105.08398 434.45508 C 107.86856 435.81688 110.66748 437.14886 113.48047 438.45117 C 119.10646 441.05576 124.78786 443.54166 130.51953 445.90625 C 136.25119 448.27084 142.03278 450.51512 147.85938 452.63672 C 153.68596 454.75843 159.558 456.757 165.46875 458.63281 C 171.37951 460.50863 177.32833 462.2617 183.3125 463.88867 C 189.29667 465.51568 195.3145 467.01728 201.36133 468.39258 C 207.40816 469.76787 213.48524 471.01609 219.58398 472.13672 C 225.68272 473.25739 231.80347 474.25015 237.94336 475.11328 C 244.08326 475.97637 250.24181 476.70989 256.41211 477.3125 C 259.49726 477.61373 262.58505 477.88341 265.67578 478.11914 C 268.76652 478.35461 271.86011 478.55698 274.95508 478.72656 C 278.05006 478.89626 281.14627 479.03158 284.24414 479.13477 C 287.34202 479.23795 290.4416 479.30942 293.54102 479.3457 C 296.64043 479.3835 299.74023 479.38489 302.83984 479.35352 C 305.93948 479.32328 309.03823 479.25805 312.13672 479.16016 C 315.23522 479.06189 318.33368 478.92959 321.42969 478.76367 C 324.52571 478.59775 327.6207 478.39858 330.71289 478.16406 C 335.78508 477.77976 340.84167 477.30705 345.88672 476.75195 C 350.93178 476.19685 355.96402 475.56005 360.98242 474.84375 C 366.00082 474.12745 371.00586 473.33255 375.99805 472.46484 C 380.99026 471.59706 385.97101 470.65607 390.9375 469.64648 C 395.90403 468.6369 400.85755 467.55781 405.79883 466.41602 C 410.74011 465.2743 415.66746 464.06883 420.58398 462.80469 C 425.50051 461.54044 430.40657 460.21879 435.29883 458.8418 C 440.19109 457.4648 445.07097 456.03287 449.93945 454.55273 C 454.8079 453.07256 459.6646 451.54431 464.50977 449.9707 C 469.35493 448.3971 474.18743 446.77849 479.00977 445.12109 C 483.83206 443.46381 488.64343 441.76652 493.44336 440.03516 C 498.24332 438.30364 503.03251 436.53807 507.81055 434.74219 C 509.77817 434.00269 511.72354 433.20828 513.6875 432.45898 C 521.2619 429.56908 528.8303 426.65925 536.35156 423.64844 C 545.82298 419.85689 555.25208 415.98416 564.64258 412.07031 C 583.42362 404.24295 602.16016 396.21884 620.9375 388.29102 C 630.32619 384.32712 639.72466 380.38884 649.14453 376.50977 C 658.5644 372.63067 668.00607 368.81085 677.47852 365.08984 C 686.95099 361.36885 696.45356 357.74546 706 354.25586 C 710.77324 352.51106 715.55779 350.80015 720.35352 349.12695 C 725.14924 347.45365 729.95641 345.81906 734.77734 344.22656 C 737.77602 343.23596 740.78957 342.29234 743.79883 341.33594 C 745.62751 340.75463 747.44848 340.14808 749.28125 339.58008 C 754.13001 338.07748 758.99368 336.62235 763.87305 335.21875 C 768.75234 333.81515 773.64799 332.46338 778.56055 331.16797 C 783.4731 329.87258 788.4031 328.63311 793.35156 327.45508 C 798.54709 326.21822 803.75888 325.05508 808.98438 323.96289 C 814.20987 322.87071 819.44929 321.85053 824.70117 320.90234 C 829.95305 319.95415 835.21752 319.07831 840.49219 318.27344 C 845.76686 317.46856 851.05179 316.73447 856.3457 316.07227 C 861.63957 315.41004 866.9424 314.8191 872.25195 314.29883 C 877.56147 313.77856 882.87764 313.32821 888.19922 312.94922 C 893.52083 312.57024 898.84769 312.26182 904.17773 312.02344 C 909.50785 311.78506 914.84079 311.61799 920.17578 311.51953 C 925.51077 311.42107 930.84728 311.39094 936.18359 311.43164 C 941.51991 311.47242 946.85533 311.58433 952.18945 311.76367 C 957.5235 311.94301 962.85533 312.19058 968.18359 312.50781 C 973.51186 312.82507 978.83736 313.21158 984.15625 313.66602 C 989.47514 314.12045 994.78778 314.6434 1000.0938 315.23438 C 1005.3996 315.82533 1010.699 316.48413 1015.9883 317.21094 C 1021.2777 317.93775 1026.557 318.73177 1031.8262 319.59375 C 1037.0955 320.45573 1042.354 321.38636 1047.5996 322.38281 C 1052.0906 323.23595 1056.5678 324.16203 1061.0391 325.11328 C 1061.7902 325.27312 1062.5463 325.40967 1063.2969 325.57227 C 1068.5152 326.70254 1073.7188 327.8987 1078.9062 329.16211 C 1084.0937 330.42552 1089.265 331.75645 1094.418 333.15234 C 1099.5709 334.54815 1104.7052 336.00951 1109.8203 337.53711 C 1114.9353 339.06481 1120.03 340.6577 1125.1035 342.31641 C 1127.8687 343.2205 1130.6113 344.19186 1133.3633 345.13477 L 1133.3633 290.26953 L 1133.3633 214.50391 C 1132.798 214.24304 1132.2302 213.98758 1131.6641 213.72852 C 1128.2803 212.1801 1124.9221 210.57619 1121.5098 209.0918 C 1115.0202 206.26875 1108.4791 203.56268 1101.8926 200.97461 C 1095.3062 198.38654 1088.6734 195.91692 1081.998 193.56836 C 1075.3228 191.2198 1068.6058 188.99125 1061.8496 186.88672 C 1055.0933 184.7822 1048.2979 182.80127 1041.4688 180.94531 C 1034.6396 179.08936 1027.7751 177.35873 1020.8809 175.75586 C 1013.9867 174.153 1007.0648 172.67908 1000.1172 171.33203 C 993.16966 169.98499 986.19679 168.76562 979.20508 167.67383 C 972.21341 166.58204 965.20253 165.61833 958.17578 164.78125 C 951.14903 163.94417 944.10732 163.23332 937.05469 162.65039 C 930.00205 162.06747 922.93852 161.61253 915.86914 161.2832 C 908.7998 160.95389 901.7235 160.75011 894.64648 160.67383 C 891.10805 160.63569 887.56983 160.62931 884.03125 160.6543 z "
       transform="scale(0.26458333)" />
    <path
       id="path34426"
       style="opacity:1;fill:#c3ecef;fill-opacity:1;stroke:none;stroke-width:0.396875"
       d="m 300.39837,56.353532 c -0.1492,0.06662 -0.29998,0.129537 -0.44958,0.195337 0.14981,0.06855 0.30001,0.136136 0.44958,0.205155 z" />
    <path
       id="path34456"
       style="opacity:1;fill:#1050bc;fill-opacity:1;stroke:none;stroke-width:0.396875"
       d="m 245.58087,82.397554 c -0.70592,0.0039 -1.41192,0.01229 -2.1177,0.02532 -1.41155,0.02605 -2.82256,0.07025 -4.23282,0.133326 -1.41024,0.06307 -2.81963,0.144674 -4.22764,0.244946 -1.408,0.100274 -2.81457,0.219429 -4.21938,0.357084 -1.40482,0.137655 -2.80786,0.294008 -4.20853,0.469223 -1.40068,0.175209 -2.79899,0.369435 -4.19458,0.582393 -1.39559,0.212955 -2.78848,0.444687 -4.17804,0.695563 -1.38956,0.250875 -2.77582,0.520798 -4.1584,0.80977 -1.38258,0.288975 -2.76153,0.596723 -4.13618,0.923975 -1.30928,0.311688 -2.61368,0.639631 -3.91346,0.982369 -1.29978,0.342744 -2.59508,0.7004 -3.88606,1.071769 -1.291,0.371369 -2.57785,0.756372 -3.86075,1.153935 -0.48492,0.150284 -0.96672,0.310769 -1.45056,0.464572 -0.7962,0.253047 -1.59353,0.502713 -2.38693,0.76481 -1.27554,0.421348 -2.54744,0.853834 -3.81631,1.296561 -1.26887,0.442701 -2.53478,0.895379 -3.7977,1.357024 -2.52583,0.92329 -5.04005,1.881979 -7.54631,2.866491 -2.50625,0.984517 -5.00436,1.995183 -7.4967,3.021523 -2.49234,1.026342 -4.97902,2.068342 -7.46311,3.117122 -4.96817,2.09757 -9.92555,4.22061 -14.8947,6.2916 -2.48457,1.03554 -4.97935,2.06021 -7.48533,3.06339 -1.99,0.79661 -3.99247,1.5665 -5.99653,2.33112 0.16575,0.12803 0.32469,0.26501 0.49144,0.3917 0.99934,0.75934 2.01663,1.49478 3.05356,2.20452 1.03693,0.70975 2.09342,1.39387 3.17035,2.05001 0.53847,0.32806 1.08199,0.64883 1.63091,0.96273 0.54892,0.31391 1.10327,0.6206 1.66295,0.91984 1.02408,0.54753 2.06053,1.066 3.10833,1.55649 1.04781,0.49048 2.10665,0.9531 3.17604,1.38803 1.06939,0.43492 2.14922,0.84234 3.23804,1.22318 1.08882,0.38085 2.18672,0.73524 3.29282,1.0635 1.10613,0.32825 2.22066,0.63026 3.34192,0.90744 1.12125,0.27717 2.24952,0.52946 3.38377,0.75706 1.13425,0.22759 2.27432,0.4308 3.41943,0.6103 1.14511,0.17949 2.29507,0.33529 3.44889,0.46819 1.15381,0.13288 2.31124,0.24292 3.47162,0.33073 1.16038,0.0878 2.32387,0.15321 3.48868,0.1974 1.16479,0.0442 2.3309,0.0667 3.49798,0.0687 1.16708,0.002 2.3349,-0.0162 3.5021,-0.0548 1.16721,-0.0386 2.33383,-0.097 3.49902,-0.17467 1.16518,-0.0777 2.32919,-0.17461 3.49022,-0.28991 1.16103,-0.11531 2.31949,-0.24907 3.47421,-0.40049 1.15472,-0.15145 2.30571,-0.32087 3.45198,-0.50694 1.14627,-0.18609 2.28857,-0.38777 3.4277,-0.60462 1.13913,-0.21688 2.27474,-0.44874 3.40703,-0.69453 1.13229,-0.24583 2.26165,-0.50584 3.38739,-0.77876 1.12573,-0.27293 2.24777,-0.55859 3.36724,-0.8568 1.11948,-0.29818 2.23616,-0.60854 3.34966,-0.93017 1.1135,-0.32163 2.22428,-0.65464 3.3321,-0.99788 1.10782,-0.34322 2.21261,-0.6969 3.31504,-1.05988 1.10243,-0.36301 2.20221,-0.73526 3.29954,-1.11621 2.19466,-0.76186 4.37966,-1.55763 6.55567,-2.38022 2.17602,-0.82257 4.34327,-1.67181 6.50297,-2.54041 2.15969,-0.86863 4.31179,-1.75676 6.45748,-2.65669 2.1457,-0.89996 4.28471,-1.81191 6.41873,-2.72851 2.86068,-1.22875 5.7208,-2.46869 8.59018,-3.6866 1.4347,-0.60896 2.8719,-1.21226 4.3124,-1.80609 1.44052,-0.59384 2.88432,-1.17834 4.33308,-1.74873 1.44875,-0.57039 2.90256,-1.12686 4.362,-1.66553 1.45944,-0.53866 2.92457,-1.05939 4.39713,-1.55805 1.47254,-0.498654 2.95244,-0.975375 4.44056,-1.425752 1.48809,-0.450344 2.98463,-0.874384 4.49069,-1.268137 0.75306,-0.196876 1.50932,-0.38577 2.26806,-0.566375 0.75872,-0.180631 1.51993,-0.352946 2.2836,-0.516247 0.76369,-0.163301 1.52968,-0.31759 2.29753,-0.462505 0.76788,-0.144886 1.5376,-0.28022 2.30891,-0.405659 0.77129,-0.125412 1.54422,-0.240834 2.3182,-0.345715 0.14605,-0.01979 0.29261,-0.03417 0.43874,-0.05323 v -3.924308 c -0.72814,-0.249476 -1.45378,-0.506482 -2.18541,-0.745691 -1.34236,-0.438867 -2.69034,-0.860319 -4.04368,-1.264523 -1.35337,-0.404178 -2.71182,-0.790829 -4.07519,-1.160137 -1.3634,-0.36933 -2.73164,-0.721472 -4.10416,-1.055749 -1.3725,-0.334277 -2.74929,-0.650761 -4.12997,-0.949812 -0.19859,-0.04302 -0.39864,-0.07916 -0.59737,-0.121441 -1.18303,-0.251685 -2.36763,-0.49671 -3.55587,-0.722437 -1.3879,-0.263644 -2.77921,-0.509873 -4.17338,-0.737938 -1.39414,-0.228066 -2.79096,-0.43815 -4.19044,-0.630452 -1.39946,-0.192302 -2.80157,-0.366609 -4.20542,-0.522965 -1.40387,-0.156363 -2.80952,-0.294727 -4.21681,-0.414962 -1.40729,-0.120237 -2.81633,-0.222507 -4.2261,-0.306443 -1.40977,-0.08393 -2.82048,-0.149434 -4.23178,-0.196887 -1.41132,-0.04745 -2.82299,-0.07706 -4.23489,-0.08785 -0.70595,-0.0054 -1.41178,-0.006 -2.1177,-0.0021 z" />
  </g>
  <script
     id="mesh_polyfill"
     type="text/javascript">
!function(){const t=&quot;http://www.w3.org/2000/svg&quot;,e=&quot;http://www.w3.org/1999/xlink&quot;,s=&quot;http://www.w3.org/1999/xhtml&quot;,r=2;if(document.createElementNS(t,&quot;meshgradient&quot;).x)return;const n=(t,e,s,r)=&gt;{let n=new x(.5*(e.x+s.x),.5*(e.y+s.y)),o=new x(.5*(t.x+e.x),.5*(t.y+e.y)),i=new x(.5*(s.x+r.x),.5*(s.y+r.y)),a=new x(.5*(n.x+o.x),.5*(n.y+o.y)),h=new x(.5*(n.x+i.x),.5*(n.y+i.y)),l=new x(.5*(a.x+h.x),.5*(a.y+h.y));return[[t,o,a,l],[l,h,i,r]]},o=t=&gt;{let e=t[0].distSquared(t[1]),s=t[2].distSquared(t[3]),r=.25*t[0].distSquared(t[2]),n=.25*t[1].distSquared(t[3]),o=e&gt;s?e:s,i=r&gt;n?r:n;return 18*(o&gt;i?o:i)},i=(t,e)=&gt;Math.sqrt(t.distSquared(e)),a=(t,e)=&gt;t.scale(2/3).add(e.scale(1/3)),h=t=&gt;{let e,s,r,n,o,i,a,h=new g;return t.match(/(\w+\(\s*[^)]+\))+/g).forEach(t=&gt;{let l=t.match(/[\w.-]+/g),d=l.shift();switch(d){case&quot;translate&quot;:2===l.length?e=new g(1,0,0,1,l[0],l[1]):(console.error(&quot;mesh.js: translate does not have 2 arguments!&quot;),e=new g(1,0,0,1,0,0)),h=h.append(e);break;case&quot;scale&quot;:1===l.length?s=new g(l[0],0,0,l[0],0,0):2===l.length?s=new g(l[0],0,0,l[1],0,0):(console.error(&quot;mesh.js: scale does not have 1 or 2 arguments!&quot;),s=new g(1,0,0,1,0,0)),h=h.append(s);break;case&quot;rotate&quot;:if(3===l.length&amp;&amp;(e=new g(1,0,0,1,l[1],l[2]),h=h.append(e)),l[0]){r=l[0]*Math.PI/180;let t=Math.cos(r),e=Math.sin(r);Math.abs(t)&lt;1e-16&amp;&amp;(t=0),Math.abs(e)&lt;1e-16&amp;&amp;(e=0),a=new g(t,e,-e,t,0,0),h=h.append(a)}else console.error(&quot;math.js: No argument to rotate transform!&quot;);3===l.length&amp;&amp;(e=new g(1,0,0,1,-l[1],-l[2]),h=h.append(e));break;case&quot;skewX&quot;:l[0]?(r=l[0]*Math.PI/180,n=Math.tan(r),o=new g(1,0,n,1,0,0),h=h.append(o)):console.error(&quot;math.js: No argument to skewX transform!&quot;);break;case&quot;skewY&quot;:l[0]?(r=l[0]*Math.PI/180,n=Math.tan(r),i=new g(1,n,0,1,0,0),h=h.append(i)):console.error(&quot;math.js: No argument to skewY transform!&quot;);break;case&quot;matrix&quot;:6===l.length?h=h.append(new g(...l)):console.error(&quot;math.js: Incorrect number of arguments for matrix!&quot;);break;default:console.error(&quot;mesh.js: Unhandled transform type: &quot;+d)}}),h},l=t=&gt;{let e=[],s=t.split(/[ ,]+/);for(let t=0,r=s.length-1;t&lt;r;t+=2)e.push(new x(parseFloat(s[t]),parseFloat(s[t+1])));return e},d=(t,e)=&gt;{for(let s in e)t.setAttribute(s,e[s])},c=(t,e,s,r,n)=&gt;{let o,i,a=[0,0,0,0];for(let h=0;h&lt;3;++h)e[h]&lt;t[h]&amp;&amp;e[h]&lt;s[h]||t[h]&lt;e[h]&amp;&amp;s[h]&lt;e[h]?a[h]=0:(a[h]=.5*((e[h]-t[h])/r+(s[h]-e[h])/n),o=Math.abs(3*(e[h]-t[h])/r),i=Math.abs(3*(s[h]-e[h])/n),a[h]&gt;o?a[h]=o:a[h]&gt;i&amp;&amp;(a[h]=i));return a},u=[[1,0,0,0,0,0,0,0,0,0,0,0,0,0,0,0],[0,0,0,0,1,0,0,0,0,0,0,0,0,0,0,0],[-3,3,0,0,-2,-1,0,0,0,0,0,0,0,0,0,0],[2,-2,0,0,1,1,0,0,0,0,0,0,0,0,0,0],[0,0,0,0,0,0,0,0,1,0,0,0,0,0,0,0],[0,0,0,0,0,0,0,0,0,0,0,0,1,0,0,0],[0,0,0,0,0,0,0,0,-3,3,0,0,-2,-1,0,0],[0,0,0,0,0,0,0,0,2,-2,0,0,1,1,0,0],[-3,0,3,0,0,0,0,0,-2,0,-1,0,0,0,0,0],[0,0,0,0,-3,0,3,0,0,0,0,0,-2,0,-1,0],[9,-9,-9,9,6,3,-6,-3,6,-6,3,-3,4,2,2,1],[-6,6,6,-6,-3,-3,3,3,-4,4,-2,2,-2,-2,-1,-1],[2,0,-2,0,0,0,0,0,1,0,1,0,0,0,0,0],[0,0,0,0,2,0,-2,0,0,0,0,0,1,0,1,0],[-6,6,6,-6,-4,-2,4,2,-3,3,-3,3,-2,-1,-2,-1],[4,-4,-4,4,2,2,-2,-2,2,-2,2,-2,1,1,1,1]],f=t=&gt;{let e=[];for(let s=0;s&lt;16;++s){e[s]=0;for(let r=0;r&lt;16;++r)e[s]+=u[s][r]*t[r]}return e},p=(t,e,s)=&gt;{const r=e*e,n=s*s,o=e*e*e,i=s*s*s;return t[0]+t[1]*e+t[2]*r+t[3]*o+t[4]*s+t[5]*s*e+t[6]*s*r+t[7]*s*o+t[8]*n+t[9]*n*e+t[10]*n*r+t[11]*n*o+t[12]*i+t[13]*i*e+t[14]*i*r+t[15]*i*o},y=t=&gt;{let e=[],s=[],r=[];for(let s=0;s&lt;4;++s)e[s]=[],e[s][0]=n(t[0][s],t[1][s],t[2][s],t[3][s]),e[s][1]=[],e[s][1].push(...n(...e[s][0][0])),e[s][1].push(...n(...e[s][0][1])),e[s][2]=[],e[s][2].push(...n(...e[s][1][0])),e[s][2].push(...n(...e[s][1][1])),e[s][2].push(...n(...e[s][1][2])),e[s][2].push(...n(...e[s][1][3]));for(let t=0;t&lt;8;++t){s[t]=[];for(let r=0;r&lt;4;++r)s[t][r]=[],s[t][r][0]=n(e[0][2][t][r],e[1][2][t][r],e[2][2][t][r],e[3][2][t][r]),s[t][r][1]=[],s[t][r][1].push(...n(...s[t][r][0][0])),s[t][r][1].push(...n(...s[t][r][0][1])),s[t][r][2]=[],s[t][r][2].push(...n(...s[t][r][1][0])),s[t][r][2].push(...n(...s[t][r][1][1])),s[t][r][2].push(...n(...s[t][r][1][2])),s[t][r][2].push(...n(...s[t][r][1][3]))}for(let t=0;t&lt;8;++t){r[t]=[];for(let e=0;e&lt;8;++e)r[t][e]=[],r[t][e][0]=s[t][0][2][e],r[t][e][1]=s[t][1][2][e],r[t][e][2]=s[t][2][2][e],r[t][e][3]=s[t][3][2][e]}return r};class x{constructor(t,e){this.x=t||0,this.y=e||0}toString(){return`(x=${this.x}, y=${this.y})`}clone(){return new x(this.x,this.y)}add(t){return new x(this.x+t.x,this.y+t.y)}scale(t){return void 0===t.x?new x(this.x*t,this.y*t):new x(this.x*t.x,this.y*t.y)}distSquared(t){let e=this.x-t.x,s=this.y-t.y;return e*e+s*s}transform(t){let e=this.x*t.a+this.y*t.c+t.e,s=this.x*t.b+this.y*t.d+t.f;return new x(e,s)}}class g{constructor(t,e,s,r,n,o){void 0===t?(this.a=1,this.b=0,this.c=0,this.d=1,this.e=0,this.f=0):(this.a=t,this.b=e,this.c=s,this.d=r,this.e=n,this.f=o)}toString(){return`affine: ${this.a} ${this.c} ${this.e} \n       ${this.b} ${this.d} ${this.f}`}append(t){t instanceof g||console.error(&quot;mesh.js: argument to Affine.append is not affine!&quot;);let e=this.a*t.a+this.c*t.b,s=this.b*t.a+this.d*t.b,r=this.a*t.c+this.c*t.d,n=this.b*t.c+this.d*t.d,o=this.a*t.e+this.c*t.f+this.e,i=this.b*t.e+this.d*t.f+this.f;return new g(e,s,r,n,o,i)}}class w{constructor(t,e){this.nodes=t,this.colors=e}paintCurve(t,e){if(o(this.nodes)&gt;r){const s=n(...this.nodes);let r=[[],[]],o=[[],[]];for(let t=0;t&lt;4;++t)r[0][t]=this.colors[0][t],r[1][t]=(this.colors[0][t]+this.colors[1][t])/2,o[0][t]=r[1][t],o[1][t]=this.colors[1][t];let i=new w(s[0],r),a=new w(s[1],o);i.paintCurve(t,e),a.paintCurve(t,e)}else{let s=Math.round(this.nodes[0].x);if(s&gt;=0&amp;&amp;s&lt;e){let r=4*(~~this.nodes[0].y*e+s);t[r]=Math.round(this.colors[0][0]),t[r+1]=Math.round(this.colors[0][1]),t[r+2]=Math.round(this.colors[0][2]),t[r+3]=Math.round(this.colors[0][3])}}}}class m{constructor(t,e){this.nodes=t,this.colors=e}split(){let t=[[],[],[],[]],e=[[],[],[],[]],s=[[[],[]],[[],[]]],r=[[[],[]],[[],[]]];for(let s=0;s&lt;4;++s){const r=n(this.nodes[0][s],this.nodes[1][s],this.nodes[2][s],this.nodes[3][s]);t[0][s]=r[0][0],t[1][s]=r[0][1],t[2][s]=r[0][2],t[3][s]=r[0][3],e[0][s]=r[1][0],e[1][s]=r[1][1],e[2][s]=r[1][2],e[3][s]=r[1][3]}for(let t=0;t&lt;4;++t)s[0][0][t]=this.colors[0][0][t],s[0][1][t]=this.colors[0][1][t],s[1][0][t]=(this.colors[0][0][t]+this.colors[1][0][t])/2,s[1][1][t]=(this.colors[0][1][t]+this.colors[1][1][t])/2,r[0][0][t]=s[1][0][t],r[0][1][t]=s[1][1][t],r[1][0][t]=this.colors[1][0][t],r[1][1][t]=this.colors[1][1][t];return[new m(t,s),new m(e,r)]}paint(t,e){let s,n=!1;for(let t=0;t&lt;4;++t)if((s=o([this.nodes[0][t],this.nodes[1][t],this.nodes[2][t],this.nodes[3][t]]))&gt;r){n=!0;break}if(n){let s=this.split();s[0].paint(t,e),s[1].paint(t,e)}else{new w([...this.nodes[0]],[...this.colors[0]]).paintCurve(t,e)}}}class b{constructor(t){this.readMesh(t),this.type=t.getAttribute(&quot;type&quot;)||&quot;bilinear&quot;}readMesh(t){let e=[[]],s=[[]],r=Number(t.getAttribute(&quot;x&quot;)),n=Number(t.getAttribute(&quot;y&quot;));e[0][0]=new x(r,n);let o=t.children;for(let t=0,r=o.length;t&lt;r;++t){e[3*t+1]=[],e[3*t+2]=[],e[3*t+3]=[],s[t+1]=[];let r=o[t].children;for(let n=0,o=r.length;n&lt;o;++n){let o=r[n].children;for(let r=0,i=o.length;r&lt;i;++r){let i=r;0!==t&amp;&amp;++i;let h,d=o[r].getAttribute(&quot;path&quot;),c=&quot;l&quot;;null!=d&amp;&amp;(c=(h=d.match(/\s*([lLcC])\s*(.*)/))[1]);let u=l(h[2]);switch(c){case&quot;l&quot;:0===i?(e[3*t][3*n+3]=u[0].add(e[3*t][3*n]),e[3*t][3*n+1]=a(e[3*t][3*n],e[3*t][3*n+3]),e[3*t][3*n+2]=a(e[3*t][3*n+3],e[3*t][3*n])):1===i?(e[3*t+3][3*n+3]=u[0].add(e[3*t][3*n+3]),e[3*t+1][3*n+3]=a(e[3*t][3*n+3],e[3*t+3][3*n+3]),e[3*t+2][3*n+3]=a(e[3*t+3][3*n+3],e[3*t][3*n+3])):2===i?(0===n&amp;&amp;(e[3*t+3][3*n+0]=u[0].add(e[3*t+3][3*n+3])),e[3*t+3][3*n+1]=a(e[3*t+3][3*n],e[3*t+3][3*n+3]),e[3*t+3][3*n+2]=a(e[3*t+3][3*n+3],e[3*t+3][3*n])):(e[3*t+1][3*n]=a(e[3*t][3*n],e[3*t+3][3*n]),e[3*t+2][3*n]=a(e[3*t+3][3*n],e[3*t][3*n]));break;case&quot;L&quot;:0===i?(e[3*t][3*n+3]=u[0],e[3*t][3*n+1]=a(e[3*t][3*n],e[3*t][3*n+3]),e[3*t][3*n+2]=a(e[3*t][3*n+3],e[3*t][3*n])):1===i?(e[3*t+3][3*n+3]=u[0],e[3*t+1][3*n+3]=a(e[3*t][3*n+3],e[3*t+3][3*n+3]),e[3*t+2][3*n+3]=a(e[3*t+3][3*n+3],e[3*t][3*n+3])):2===i?(0===n&amp;&amp;(e[3*t+3][3*n+0]=u[0]),e[3*t+3][3*n+1]=a(e[3*t+3][3*n],e[3*t+3][3*n+3]),e[3*t+3][3*n+2]=a(e[3*t+3][3*n+3],e[3*t+3][3*n])):(e[3*t+1][3*n]=a(e[3*t][3*n],e[3*t+3][3*n]),e[3*t+2][3*n]=a(e[3*t+3][3*n],e[3*t][3*n]));break;case&quot;c&quot;:0===i?(e[3*t][3*n+1]=u[0].add(e[3*t][3*n]),e[3*t][3*n+2]=u[1].add(e[3*t][3*n]),e[3*t][3*n+3]=u[2].add(e[3*t][3*n])):1===i?(e[3*t+1][3*n+3]=u[0].add(e[3*t][3*n+3]),e[3*t+2][3*n+3]=u[1].add(e[3*t][3*n+3]),e[3*t+3][3*n+3]=u[2].add(e[3*t][3*n+3])):2===i?(e[3*t+3][3*n+2]=u[0].add(e[3*t+3][3*n+3]),e[3*t+3][3*n+1]=u[1].add(e[3*t+3][3*n+3]),0===n&amp;&amp;(e[3*t+3][3*n+0]=u[2].add(e[3*t+3][3*n+3]))):(e[3*t+2][3*n]=u[0].add(e[3*t+3][3*n]),e[3*t+1][3*n]=u[1].add(e[3*t+3][3*n]));break;case&quot;C&quot;:0===i?(e[3*t][3*n+1]=u[0],e[3*t][3*n+2]=u[1],e[3*t][3*n+3]=u[2]):1===i?(e[3*t+1][3*n+3]=u[0],e[3*t+2][3*n+3]=u[1],e[3*t+3][3*n+3]=u[2]):2===i?(e[3*t+3][3*n+2]=u[0],e[3*t+3][3*n+1]=u[1],0===n&amp;&amp;(e[3*t+3][3*n+0]=u[2])):(e[3*t+2][3*n]=u[0],e[3*t+1][3*n]=u[1]);break;default:console.error(&quot;mesh.js: &quot;+c+&quot; invalid path type.&quot;)}if(0===t&amp;&amp;0===n||r&gt;0){let e=window.getComputedStyle(o[r]).stopColor.match(/^rgb\s*\(\s*(\d+)\s*,\s*(\d+)\s*,\s*(\d+)\s*\)$/i),a=window.getComputedStyle(o[r]).stopOpacity,h=255;a&amp;&amp;(h=Math.floor(255*a)),e&amp;&amp;(0===i?(s[t][n]=[],s[t][n][0]=Math.floor(e[1]),s[t][n][1]=Math.floor(e[2]),s[t][n][2]=Math.floor(e[3]),s[t][n][3]=h):1===i?(s[t][n+1]=[],s[t][n+1][0]=Math.floor(e[1]),s[t][n+1][1]=Math.floor(e[2]),s[t][n+1][2]=Math.floor(e[3]),s[t][n+1][3]=h):2===i?(s[t+1][n+1]=[],s[t+1][n+1][0]=Math.floor(e[1]),s[t+1][n+1][1]=Math.floor(e[2]),s[t+1][n+1][2]=Math.floor(e[3]),s[t+1][n+1][3]=h):3===i&amp;&amp;(s[t+1][n]=[],s[t+1][n][0]=Math.floor(e[1]),s[t+1][n][1]=Math.floor(e[2]),s[t+1][n][2]=Math.floor(e[3]),s[t+1][n][3]=h))}}e[3*t+1][3*n+1]=new x,e[3*t+1][3*n+2]=new x,e[3*t+2][3*n+1]=new x,e[3*t+2][3*n+2]=new x,e[3*t+1][3*n+1].x=(-4*e[3*t][3*n].x+6*(e[3*t][3*n+1].x+e[3*t+1][3*n].x)+-2*(e[3*t][3*n+3].x+e[3*t+3][3*n].x)+3*(e[3*t+3][3*n+1].x+e[3*t+1][3*n+3].x)+-1*e[3*t+3][3*n+3].x)/9,e[3*t+1][3*n+2].x=(-4*e[3*t][3*n+3].x+6*(e[3*t][3*n+2].x+e[3*t+1][3*n+3].x)+-2*(e[3*t][3*n].x+e[3*t+3][3*n+3].x)+3*(e[3*t+3][3*n+2].x+e[3*t+1][3*n].x)+-1*e[3*t+3][3*n].x)/9,e[3*t+2][3*n+1].x=(-4*e[3*t+3][3*n].x+6*(e[3*t+3][3*n+1].x+e[3*t+2][3*n].x)+-2*(e[3*t+3][3*n+3].x+e[3*t][3*n].x)+3*(e[3*t][3*n+1].x+e[3*t+2][3*n+3].x)+-1*e[3*t][3*n+3].x)/9,e[3*t+2][3*n+2].x=(-4*e[3*t+3][3*n+3].x+6*(e[3*t+3][3*n+2].x+e[3*t+2][3*n+3].x)+-2*(e[3*t+3][3*n].x+e[3*t][3*n+3].x)+3*(e[3*t][3*n+2].x+e[3*t+2][3*n].x)+-1*e[3*t][3*n].x)/9,e[3*t+1][3*n+1].y=(-4*e[3*t][3*n].y+6*(e[3*t][3*n+1].y+e[3*t+1][3*n].y)+-2*(e[3*t][3*n+3].y+e[3*t+3][3*n].y)+3*(e[3*t+3][3*n+1].y+e[3*t+1][3*n+3].y)+-1*e[3*t+3][3*n+3].y)/9,e[3*t+1][3*n+2].y=(-4*e[3*t][3*n+3].y+6*(e[3*t][3*n+2].y+e[3*t+1][3*n+3].y)+-2*(e[3*t][3*n].y+e[3*t+3][3*n+3].y)+3*(e[3*t+3][3*n+2].y+e[3*t+1][3*n].y)+-1*e[3*t+3][3*n].y)/9,e[3*t+2][3*n+1].y=(-4*e[3*t+3][3*n].y+6*(e[3*t+3][3*n+1].y+e[3*t+2][3*n].y)+-2*(e[3*t+3][3*n+3].y+e[3*t][3*n].y)+3*(e[3*t][3*n+1].y+e[3*t+2][3*n+3].y)+-1*e[3*t][3*n+3].y)/9,e[3*t+2][3*n+2].y=(-4*e[3*t+3][3*n+3].y+6*(e[3*t+3][3*n+2].y+e[3*t+2][3*n+3].y)+-2*(e[3*t+3][3*n].y+e[3*t][3*n+3].y)+3*(e[3*t][3*n+2].y+e[3*t+2][3*n].y)+-1*e[3*t][3*n].y)/9}}this.nodes=e,this.colors=s}paintMesh(t,e){let s=(this.nodes.length-1)/3,r=(this.nodes[0].length-1)/3;if(&quot;bilinear&quot;===this.type||s&lt;2||r&lt;2){let n;for(let o=0;o&lt;s;++o)for(let s=0;s&lt;r;++s){let r=[];for(let t=3*o,e=3*o+4;t&lt;e;++t)r.push(this.nodes[t].slice(3*s,3*s+4));let i=[];i.push(this.colors[o].slice(s,s+2)),i.push(this.colors[o+1].slice(s,s+2)),(n=new m(r,i)).paint(t,e)}}else{let n,o,a,h,l,d,u;const x=s,g=r;s++,r++;let w=new Array(s);for(let t=0;t&lt;s;++t){w[t]=new Array(r);for(let e=0;e&lt;r;++e)w[t][e]=[],w[t][e][0]=this.nodes[3*t][3*e],w[t][e][1]=this.colors[t][e]}for(let t=0;t&lt;s;++t)for(let e=0;e&lt;r;++e)0!==t&amp;&amp;t!==x&amp;&amp;(n=i(w[t-1][e][0],w[t][e][0]),o=i(w[t+1][e][0],w[t][e][0]),w[t][e][2]=c(w[t-1][e][1],w[t][e][1],w[t+1][e][1],n,o)),0!==e&amp;&amp;e!==g&amp;&amp;(n=i(w[t][e-1][0],w[t][e][0]),o=i(w[t][e+1][0],w[t][e][0]),w[t][e][3]=c(w[t][e-1][1],w[t][e][1],w[t][e+1][1],n,o));for(let t=0;t&lt;r;++t){w[0][t][2]=[],w[x][t][2]=[];for(let e=0;e&lt;4;++e)n=i(w[1][t][0],w[0][t][0]),o=i(w[x][t][0],w[x-1][t][0]),w[0][t][2][e]=n&gt;0?2*(w[1][t][1][e]-w[0][t][1][e])/n-w[1][t][2][e]:0,w[x][t][2][e]=o&gt;0?2*(w[x][t][1][e]-w[x-1][t][1][e])/o-w[x-1][t][2][e]:0}for(let t=0;t&lt;s;++t){w[t][0][3]=[],w[t][g][3]=[];for(let e=0;e&lt;4;++e)n=i(w[t][1][0],w[t][0][0]),o=i(w[t][g][0],w[t][g-1][0]),w[t][0][3][e]=n&gt;0?2*(w[t][1][1][e]-w[t][0][1][e])/n-w[t][1][3][e]:0,w[t][g][3][e]=o&gt;0?2*(w[t][g][1][e]-w[t][g-1][1][e])/o-w[t][g-1][3][e]:0}for(let s=0;s&lt;x;++s)for(let r=0;r&lt;g;++r){let n=i(w[s][r][0],w[s+1][r][0]),o=i(w[s][r+1][0],w[s+1][r+1][0]),c=i(w[s][r][0],w[s][r+1][0]),x=i(w[s+1][r][0],w[s+1][r+1][0]),g=[[],[],[],[]];for(let t=0;t&lt;4;++t){(d=[])[0]=w[s][r][1][t],d[1]=w[s+1][r][1][t],d[2]=w[s][r+1][1][t],d[3]=w[s+1][r+1][1][t],d[4]=w[s][r][2][t]*n,d[5]=w[s+1][r][2][t]*n,d[6]=w[s][r+1][2][t]*o,d[7]=w[s+1][r+1][2][t]*o,d[8]=w[s][r][3][t]*c,d[9]=w[s+1][r][3][t]*x,d[10]=w[s][r+1][3][t]*c,d[11]=w[s+1][r+1][3][t]*x,d[12]=0,d[13]=0,d[14]=0,d[15]=0,u=f(d);for(let e=0;e&lt;9;++e){g[t][e]=[];for(let s=0;s&lt;9;++s)g[t][e][s]=p(u,e/8,s/8),g[t][e][s]&gt;255?g[t][e][s]=255:g[t][e][s]&lt;0&amp;&amp;(g[t][e][s]=0)}}h=[];for(let t=3*s,e=3*s+4;t&lt;e;++t)h.push(this.nodes[t].slice(3*r,3*r+4));l=y(h);for(let s=0;s&lt;8;++s)for(let r=0;r&lt;8;++r)(a=new m(l[s][r],[[[g[0][s][r],g[1][s][r],g[2][s][r],g[3][s][r]],[g[0][s][r+1],g[1][s][r+1],g[2][s][r+1],g[3][s][r+1]]],[[g[0][s+1][r],g[1][s+1][r],g[2][s+1][r],g[3][s+1][r]],[g[0][s+1][r+1],g[1][s+1][r+1],g[2][s+1][r+1],g[3][s+1][r+1]]]])).paint(t,e)}}}transform(t){if(t instanceof x)for(let e=0,s=this.nodes.length;e&lt;s;++e)for(let s=0,r=this.nodes[0].length;s&lt;r;++s)this.nodes[e][s]=this.nodes[e][s].add(t);else if(t instanceof g)for(let e=0,s=this.nodes.length;e&lt;s;++e)for(let s=0,r=this.nodes[0].length;s&lt;r;++s)this.nodes[e][s]=this.nodes[e][s].transform(t)}scale(t){for(let e=0,s=this.nodes.length;e&lt;s;++e)for(let s=0,r=this.nodes[0].length;s&lt;r;++s)this.nodes[e][s]=this.nodes[e][s].scale(t)}}document.querySelectorAll(&quot;rect,circle,ellipse,path,text&quot;).forEach((r,n)=&gt;{let o=r.getAttribute(&quot;id&quot;);o||(o=&quot;patchjs_shape&quot;+n,r.setAttribute(&quot;id&quot;,o));const i=r.style.fill.match(/^url\(\s*&quot;?\s*#([^\s&quot;]+)&quot;?\s*\)/),a=r.style.stroke.match(/^url\(\s*&quot;?\s*#([^\s&quot;]+)&quot;?\s*\)/);if(i&amp;&amp;i[1]){const a=document.getElementById(i[1]);if(a&amp;&amp;&quot;meshgradient&quot;===a.nodeName){const i=r.getBBox();let l=document.createElementNS(s,&quot;canvas&quot;);d(l,{width:i.width,height:i.height});const c=l.getContext(&quot;2d&quot;);let u=c.createImageData(i.width,i.height);const f=new b(a);&quot;objectBoundingBox&quot;===a.getAttribute(&quot;gradientUnits&quot;)&amp;&amp;f.scale(new x(i.width,i.height));const p=a.getAttribute(&quot;gradientTransform&quot;);null!=p&amp;&amp;f.transform(h(p)),&quot;userSpaceOnUse&quot;===a.getAttribute(&quot;gradientUnits&quot;)&amp;&amp;f.transform(new x(-i.x,-i.y)),f.paintMesh(u.data,l.width),c.putImageData(u,0,0);const y=document.createElementNS(t,&quot;image&quot;);d(y,{width:i.width,height:i.height,x:i.x,y:i.y});let g=l.toDataURL();y.setAttributeNS(e,&quot;xlink:href&quot;,g),r.parentNode.insertBefore(y,r),r.style.fill=&quot;none&quot;;const w=document.createElementNS(t,&quot;use&quot;);w.setAttributeNS(e,&quot;xlink:href&quot;,&quot;#&quot;+o);const m=&quot;patchjs_clip&quot;+n,M=document.createElementNS(t,&quot;clipPath&quot;);M.setAttribute(&quot;id&quot;,m),M.appendChild(w),r.parentElement.insertBefore(M,r),y.setAttribute(&quot;clip-path&quot;,&quot;url(#&quot;+m+&quot;)&quot;),u=null,l=null,g=null}}if(a&amp;&amp;a[1]){const o=document.getElementById(a[1]);if(o&amp;&amp;&quot;meshgradient&quot;===o.nodeName){const i=parseFloat(r.style.strokeWidth.slice(0,-2))*(parseFloat(r.style.strokeMiterlimit)||parseFloat(r.getAttribute(&quot;stroke-miterlimit&quot;))||1),a=r.getBBox(),l=Math.trunc(a.width+i),c=Math.trunc(a.height+i),u=Math.trunc(a.x-i/2),f=Math.trunc(a.y-i/2);let p=document.createElementNS(s,&quot;canvas&quot;);d(p,{width:l,height:c});const y=p.getContext(&quot;2d&quot;);let g=y.createImageData(l,c);const w=new b(o);&quot;objectBoundingBox&quot;===o.getAttribute(&quot;gradientUnits&quot;)&amp;&amp;w.scale(new x(l,c));const m=o.getAttribute(&quot;gradientTransform&quot;);null!=m&amp;&amp;w.transform(h(m)),&quot;userSpaceOnUse&quot;===o.getAttribute(&quot;gradientUnits&quot;)&amp;&amp;w.transform(new x(-u,-f)),w.paintMesh(g.data,p.width),y.putImageData(g,0,0);const M=document.createElementNS(t,&quot;image&quot;);d(M,{width:l,height:c,x:0,y:0});let S=p.toDataURL();M.setAttributeNS(e,&quot;xlink:href&quot;,S);const k=&quot;pattern_clip&quot;+n,A=document.createElementNS(t,&quot;pattern&quot;);d(A,{id:k,patternUnits:&quot;userSpaceOnUse&quot;,width:l,height:c,x:u,y:f}),A.appendChild(M),o.parentNode.appendChild(A),r.style.stroke=&quot;url(#&quot;+k+&quot;)&quot;,g=null,p=null,S=null}}})}();
</script>
</svg>
